<?xml version="1.0" encoding="UTF-8"?>
<svg xmlns="http://www.w3.org/2000/svg" viewBox="0 0 534.338 186.954">
    <defs>
        <style>.c{fill:#0f92d4;}.d{fill:#FFFFFF;}</style>
    </defs>
    <g id="a">
        <g>
            <path class="c"
                  d="M130.781,91.825l-.006-24.128-31.357-18.104c-6.594-3.807-14.717-3.807-21.312,0l-31.368,18.108v48.252h0l8.349,4.821h0v-21.673l14.333,8.219h0v-9.716l-14.334-8.173v-12.032l24.131,13.818v-9.653l-20.003-11.423,23.154-13.367c3.956-2.284,8.83-2.284,12.787,0l23.085,13.328-23.198,13.31v.022l-6.269,3.602v9.64l4.824-2.808,1.445-.829h0l17.033-9.773,10.35-5.939,.004,16.903,.004,16.903-33.674,19.443-19.341-11.167h0l-4.662-2.691v9.641l24.003,13.857,42.024-24.262h0l-.006-24.128Z"/>
            <path class="d"
                  d="M154.156,115.251h8.498v-20.368h15.606v-7.217h-15.606v-11.937h22.068v-7.216h-30.566v46.738Zm54.511-6.744c-.54,.135-1.361,.246-2.462,.336-1.102,.09-2.148,.136-3.136,.136-2.743,0-4.666-.811-5.766-2.43-1.102-1.618-1.653-4.315-1.653-8.092v-18.481h-8.161v19.761c0,2.385,.247,4.576,.742,6.576,.495,2.001,1.315,3.72,2.462,5.16,1.147,1.441,2.675,2.563,4.586,3.372,1.911,.808,4.283,1.215,7.115,1.215,3.012,0,5.778-.216,8.296-.641,2.517-.427,4.563-.846,6.137-1.25v-34.194h-8.16v28.53Zm33.819-28.901c-.721-.112-1.44-.202-2.159-.27-.719-.067-1.347-.101-1.887-.101-2.878,0-5.497,.259-7.857,.776-2.361,.518-4.328,1.068-5.902,1.652v33.587h8.161v-28.258c.405-.136,1.113-.294,2.125-.473,1.011-.179,1.966-.271,2.866-.271,1.573,0,2.956,.125,4.148,.372,1.191,.248,2.125,.484,2.799,.707l1.416-6.878c-.405-.135-.944-.28-1.619-.438-.674-.157-1.372-.292-2.091-.405Zm23.374-.371c-2.744,0-5.193,.427-7.351,1.281-2.16,.854-3.992,2.047-5.497,3.573-1.507,1.53-2.654,3.375-3.439,5.53-.787,2.159-1.181,4.52-1.181,7.084,0,2.742,.371,5.16,1.113,7.25,.742,2.09,1.776,3.833,3.102,5.226,1.326,1.392,2.922,2.45,4.79,3.168,1.865,.723,3.922,1.081,6.171,1.081,1.707,0,3.226-.2,4.553-.606,1.326-.404,2.394-.81,3.204-1.214v1.349c0,2.652-.698,4.652-2.091,6.003-1.394,1.346-3.732,2.024-7.014,2.024-2.068,0-3.991-.181-5.767-.54-1.776-.363-3.361-.833-4.755-1.416l-1.484,6.945c1.662,.584,3.518,1.057,5.565,1.417,2.045,.36,4.147,.54,6.306,.54,5.89,0,10.262-1.305,13.118-3.914,2.855-2.608,4.282-6.721,4.282-12.34v-30.552c-1.663-.45-3.687-.878-6.07-1.282-2.384-.405-4.901-.607-7.553-.607Zm5.463,25.628c-.72,.497-1.652,.925-2.8,1.282-1.146,.36-2.372,.54-3.675,.54-2.384,0-4.328-.798-5.834-2.395-1.508-1.595-2.26-4.124-2.26-7.586,0-3.194,.787-5.766,2.361-7.724,1.573-1.955,3.845-2.934,6.813-2.934,1.302,0,2.383,.057,3.236,.169,.854,.113,1.574,.237,2.159,.372v18.277Zm43.253-20.705c-1.485-1.618-3.271-2.866-5.362-3.741-2.092-.878-4.373-1.316-6.846-1.316s-4.744,.438-6.811,1.316c-2.069,.875-3.856,2.123-5.362,3.741-1.508,1.618-2.676,3.564-3.507,5.834-.833,2.272-1.249,4.8-1.249,7.588s.415,5.328,1.249,7.621c.831,2.294,1.988,4.251,3.473,5.869,1.484,1.619,3.26,2.877,5.327,3.777,2.068,.898,4.362,1.346,6.88,1.346s4.822-.449,6.914-1.346c2.09-.9,3.878-2.158,5.362-3.777,1.484-1.618,2.631-3.575,3.44-5.869,.809-2.293,1.213-4.832,1.213-7.621s-.415-5.316-1.247-7.588c-.833-2.27-1.99-4.216-3.473-5.834Zm-5.901,21.853c-1.507,2.068-3.609,3.103-6.307,3.103s-4.799-1.034-6.305-3.103c-1.507-2.068-2.26-4.878-2.26-8.432,0-3.506,.753-6.282,2.26-8.329,1.506-2.046,3.608-3.069,6.305-3.069s4.8,1.022,6.307,3.069c1.506,2.047,2.259,4.822,2.259,8.329,0,3.553-.754,6.364-2.259,8.432Zm42.898-22.291c-1.146-1.416-2.688-2.517-4.62-3.303-1.934-.789-4.339-1.182-7.216-1.182-3.059,0-5.846,.202-8.363,.607-2.519,.405-4.565,.832-6.138,1.282v34.126h8.161v-28.463c.539-.09,1.37-.201,2.495-.335,1.123-.135,2.203-.204,3.237-.204,1.394,0,2.574,.194,3.542,.575,.966,.38,1.73,.987,2.293,1.82,.563,.832,.966,1.912,1.214,3.236,.247,1.327,.371,2.935,.371,4.824v18.546h8.161v-19.828c0-2.384-.236-4.575-.708-6.575-.473-2.001-1.283-3.71-2.428-5.127Zm25.221-4.62c-2.069,0-4.092,.394-6.071,1.18-1.979,.788-3.733,1.954-5.262,3.506-1.53,1.552-2.754,3.498-3.676,5.833-.923,2.341-1.381,5.06-1.381,8.163,0,2.653,.361,5.093,1.08,7.318,.718,2.227,1.821,4.159,3.303,5.798,1.484,1.644,3.374,2.925,5.668,3.847,2.293,.918,4.989,1.381,8.092,1.381,1.213,0,2.404-.066,3.575-.202,1.17-.135,2.259-.303,3.27-.505,1.013-.204,1.912-.427,2.699-.674,.785-.249,1.405-.484,1.854-.71l-1.08-6.678c-.942,.405-2.236,.787-3.877,1.148-1.643,.358-3.451,.54-5.429,.54-3.371,0-5.948-.777-7.724-2.327-1.775-1.552-2.775-3.743-3-6.576h23.269c.044-.449,.077-.955,.101-1.517,.021-.562,.034-1.07,.034-1.518,0-5.98-1.359-10.476-4.078-13.489-2.723-3.012-6.511-4.519-11.364-4.519Zm-7.894,15.039c.137-1.033,.383-2.043,.744-3.034,.36-.988,.865-1.865,1.516-2.629,.652-.767,1.451-1.383,2.396-1.856,.943-.473,2.046-.708,3.303-.708,1.214,0,2.258,.214,3.138,.641,.875,.43,1.617,1.01,2.224,1.753,.608,.742,1.068,1.619,1.383,2.631,.315,1.01,.473,2.078,.473,3.202h-15.178Zm47.463,14.435c-1.148,.313-2.463,.472-3.947,.472-2.158,0-3.686-.609-4.584-1.821-.902-1.215-1.351-3.238-1.351-6.071v-14.367h12.545v-6.811h-12.545v-10.656l-8.159,1.349v30.552c0,2.339,.2,4.417,.605,6.237,.406,1.822,1.102,3.372,2.092,4.655,.988,1.282,2.328,2.258,4.014,2.934,1.684,.674,3.786,1.013,6.305,1.013,2.067,0,3.865-.216,5.395-.641,1.528-.427,2.765-.846,3.71-1.25l-1.35-6.473c-.674,.269-1.584,.561-2.73,.876Zm33.923-3.711c-1.391-1.798-2.825-3.494-4.308-5.092-1.48-1.595-2.894-2.955-4.237-4.08,2.511-2.562,5.012-5.193,7.501-7.892,2.49-2.697,4.855-5.304,7.098-7.823h-9.643c-.719,.855-1.585,1.855-2.596,3.003-1.012,1.145-2.079,2.339-3.204,3.574-1.123,1.237-2.272,2.473-3.44,3.709-1.169,1.238-2.27,2.394-3.303,3.474v-30.823l-8.162,1.349v50.988h8.162v-16.188c1.214,.9,2.45,1.99,3.711,3.274,1.256,1.279,2.494,2.64,3.707,4.079,1.214,1.439,2.349,2.923,3.407,4.452,1.055,1.527,1.987,2.989,2.797,4.383h9.443c-.807-1.526-1.816-3.191-3.028-4.99-1.213-1.8-2.514-3.598-3.905-5.397Zm36.609-17.501c-.473-1.731-1.26-3.205-2.363-4.417-1.099-1.215-2.572-2.159-4.416-2.833s-4.114-1.011-6.812-1.011c-2.249,0-4.362,.181-6.34,.539-1.978,.361-3.484,.721-4.519,1.08l1.014,6.608c.988-.357,2.268-.671,3.842-.942,1.573-.27,3.307-.406,5.193-.406,1.397,0,2.553,.18,3.474,.541,.923,.362,1.663,.865,2.227,1.516,.561,.654,.953,1.407,1.18,2.262,.224,.852,.337,1.752,.337,2.696v1.349c-1.125-.271-2.181-.461-3.17-.574-.989-.113-1.933-.169-2.832-.169-1.934,0-3.789,.193-5.566,.574-1.775,.383-3.337,1.012-4.686,1.889-1.349,.875-2.419,2.012-3.204,3.406-.787,1.393-1.181,3.1-1.181,5.125,0,2.115,.349,3.89,1.047,5.329,.696,1.44,1.662,2.608,2.899,3.506,1.237,.901,2.732,1.552,4.483,1.957,1.755,.405,3.688,.607,5.802,.607,3.193,0,6.059-.192,8.599-.572,2.538-.384,4.44-.709,5.697-.98v-21.379c0-2.068-.234-3.968-.706-5.699Zm-7.183,21.751c-1.304,.269-3.215,.404-5.733,.404-2.068,0-3.709-.37-4.924-1.112-1.214-.743-1.82-2.079-1.82-4.013,0-.987,.224-1.811,.674-2.463,.45-.65,1.047-1.159,1.788-1.517,.743-.36,1.572-.606,2.496-.742,.921-.135,1.83-.202,2.732-.202,1.032,0,1.977,.067,2.832,.202,.852,.135,1.505,.27,1.956,.406v9.037Z"/>
        </g>
    </g>
    <g id="b"/>
</svg>