<svg id="Warstwa_1" data-name="Warstwa 1" xmlns="http://www.w3.org/2000/svg" viewBox="0 0 382.6 481.35"><defs><style>.cls-1,.cls-2{fill:#fff;}.cls-1{stroke:#fff;stroke-miterlimit:10;}.cls-3{fill:#e30613;}.cls-4{fill:#d6b160;}.cls-5{fill:#1d1d1b;}</style></defs><path class="cls-1" d="M355,528.32V496.1h4v32.22Zm-21.34-11.89c0,2.79.38,4.8,1.14,6.05a5.64,5.64,0,0,0,9.52.8q1.89-2.25,1.89-6.7c0-3.05-.6-5.29-1.8-6.74a5.49,5.49,0,0,0-4.38-2.17,5.65,5.65,0,0,0-4.48,2.25,10,10,0,0,0-1.9,6.51Zm0,11.85H330V496.1h4v11.49a7.86,7.86,0,0,1,6.4-3.12,9.71,9.71,0,0,1,4.08.86,8.43,8.43,0,0,1,3.17,2.44,11.7,11.7,0,0,1,1.94,3.78,15.51,15.51,0,0,1,.7,4.74q0,6-3,9.25a9.29,9.29,0,0,1-7.12,3.27,7.46,7.46,0,0,1-6.48-3.43Zm-13.73,0V496.1h4v32.22Zm-29.34,0V496.1h23.27v3.78h-19v9.9h17.77v3.78H294.9v11h19.75v3.78Zm-17-3.54.54,3.5a15.17,15.17,0,0,1-3,.35,6.78,6.78,0,0,1-3.34-.68,3.84,3.84,0,0,1-1.66-1.79,14.19,14.19,0,0,1-.48-4.68V508h-2.93v-3h2.93v-5.77l4-2.38V505h4v3h-4v13.68a6.68,6.68,0,0,0,.21,2.18,1.6,1.6,0,0,0,.67.78,2.74,2.74,0,0,0,1.35.28,11.52,11.52,0,0,0,1.76-.16ZM240,528.28V505h3.56v3.32a8.37,8.37,0,0,1,7.42-3.81,9.7,9.7,0,0,1,3.87.75,6.1,6.1,0,0,1,2.65,2,7.62,7.62,0,0,1,1.23,2.92A23.62,23.62,0,0,1,259,514v14.34h-4v-14.2a10.57,10.57,0,0,0-.46-3.62,3.9,3.9,0,0,0-1.63-1.91,5.24,5.24,0,0,0-2.76-.71,6.39,6.39,0,0,0-4.35,1.6c-1.22,1.07-1.83,3.09-1.83,6.08v12.75Zm-22-13.85h13a7.9,7.9,0,0,0-1.49-4.42,6,6,0,0,0-4.89-2.28,6.23,6.23,0,0,0-4.58,1.82,7.23,7.23,0,0,0-2,4.88Zm13,6.35,4.09.54a9.86,9.86,0,0,1-3.57,5.54,12,12,0,0,1-14.77-1.15c-2-2.09-3-5-3-8.83s1-7,3-9.12a10.25,10.25,0,0,1,7.85-3.33,9.91,9.91,0,0,1,7.62,3.18q3,3.18,3,8.95v1.05h-17.5a8.93,8.93,0,0,0,2.18,5.88,6.41,6.41,0,0,0,4.86,2,6,6,0,0,0,3.71-1.15,7.53,7.53,0,0,0,2.44-3.58Zm-38.4-4.09q0,4.47,1.9,6.69a5.71,5.71,0,0,0,4.47,2.21,5.62,5.62,0,0,0,4.42-2.11c1.21-1.41,1.81-3.57,1.81-6.46,0-3.18-.61-5.52-1.85-7a5.69,5.69,0,0,0-4.56-2.24,5.49,5.49,0,0,0-4.42,2.15c-1.17,1.4-1.81,3.66-1.81,6.74Zm12.51,11.65v-3a7.25,7.25,0,0,1-6.52,3.46,9.06,9.06,0,0,1-5.12-1.54,10.13,10.13,0,0,1-3.63-4.28,14.83,14.83,0,0,1-1.29-6.33,16.5,16.5,0,0,1,1.17-6.33,9.22,9.22,0,0,1,3.49-4.35,9.33,9.33,0,0,1,5.2-1.51,7.81,7.81,0,0,1,3.76.89,8,8,0,0,1,2.67,2.32V496.1h4v32.22Zm-37.75,9-.45-3.66a8.6,8.6,0,0,0,2.26.36,4.34,4.34,0,0,0,2.12-.45,3.49,3.49,0,0,0,1.3-1.23,18.1,18.1,0,0,0,1.21-3l.35-1-8.86-23.43h4.23l4.83,13.5c.64,1.7,1.2,3.5,1.71,5.39a53.27,53.27,0,0,1,1.62-5.26l5-13.62h4l-8.83,23.76a45.38,45.38,0,0,1-2.23,5.28,7.7,7.7,0,0,1-2.42,2.86,5.79,5.79,0,0,1-3.26.91,8.07,8.07,0,0,1-2.62-.46Zm-24.41-9v-3.23L157.69,508c-1.68.09-3.16.14-4.44.14H143.8V505h19v2.6L150.15,522.4l-2.42,2.75c1.78-.15,3.44-.22,5-.22h10.81v3.42Zm-20-13.91h13a8,8,0,0,0-1.5-4.42,6,6,0,0,0-4.89-2.28,6.24,6.24,0,0,0-4.57,1.82,7.28,7.28,0,0,0-2,4.88Zm13,6.35,4.1.54a9.86,9.86,0,0,1-3.57,5.54,10.76,10.76,0,0,1-6.67,2,10.62,10.62,0,0,1-8.1-3.15c-2-2.09-3-5-3-8.83s1-7,3-9.12a10.3,10.3,0,0,1,7.85-3.24,9.93,9.93,0,0,1,7.63,3.18q3,3.18,3,8.95v1.05H122.67a9,9,0,0,0,2.17,5.88,6.48,6.48,0,0,0,4.87,2,6,6,0,0,0,3.7-1.15,7.53,7.53,0,0,0,2.44-3.67Zm-31,7.56V505h3.56v3.58a9.43,9.43,0,0,1,2.52-3.28,4.34,4.34,0,0,1,2.54-.79,7.94,7.94,0,0,1,4.07,1.25l-1.44,3.65a5.74,5.74,0,0,0-2.88-.81,3.73,3.73,0,0,0-2.32.78,4.25,4.25,0,0,0-1.46,2.16,15.3,15.3,0,0,0-.66,4.61v12.21ZM79.69,511.43H88c2.76,0,4.71-.51,5.87-1.54a5.54,5.54,0,0,0,1.73-4.34,5.8,5.8,0,0,0-1-3.45,4.83,4.83,0,0,0-2.69-1.91,18.49,18.49,0,0,0-4-.28H79.69Zm-4.27,16.92V496.1H87.58a31.06,31.06,0,0,1,4.91.3,10.07,10.07,0,0,1,4,1.5A8.14,8.14,0,0,1,99.08,501a10.44,10.44,0,0,1-1.65,11.32q-2.61,2.85-9.45,2.85H79.71v13.14Zm355.5-50.28V454.69h4V478Zm0-27.72v-4.5h4v4.5Zm-22.49,27.72V445.82h4v18.36l9.36-9.49h5.12L418,463.37,427.81,478h-4.88l-7.78-11.93-2.75,2.67V478Zm-24.09-7,3.92-.63a5.44,5.44,0,0,0,1.83,3.61,6.45,6.45,0,0,0,4.22,1.25,6.24,6.24,0,0,0,4.06-1.11,3.37,3.37,0,0,0,1.32-2.6,2.37,2.37,0,0,0-1.19-2.11,17.5,17.5,0,0,0-4.05-1.34,37,37,0,0,1-6-1.89,5.77,5.77,0,0,1-3.45-5.34,6,6,0,0,1,.71-2.89,6.44,6.44,0,0,1,1.94-2.21,8.37,8.37,0,0,1,2.51-1.14,11.63,11.63,0,0,1,3.42-.48,13.36,13.36,0,0,1,4.81.8,6.51,6.51,0,0,1,3.07,2.14,8.62,8.62,0,0,1,1.36,3.63l-3.87.54a4.37,4.37,0,0,0-1.53-2.85,5.51,5.51,0,0,0-3.56-1,6.44,6.44,0,0,0-3.88.9,2.64,2.64,0,0,0-1.16,2.11,2.27,2.27,0,0,0,.48,1.39,3.51,3.51,0,0,0,1.52,1c.39.15,1.55.49,3.48,1a49.56,49.56,0,0,1,5.85,1.83,6,6,0,0,1,2.61,2.07,5.73,5.73,0,0,1,1,3.38,6.68,6.68,0,0,1-1.16,3.72,7.53,7.53,0,0,1-3.33,2.7,12.31,12.31,0,0,1-4.93,1q-4.54,0-6.93-1.88a8.83,8.83,0,0,1-3.11-5.6Zm-26.72,7-7.06-23.35h4.14l3.73,13.48,1.32,5c0-.24.46-1.85,1.21-4.81l3.69-13.68h4.06l3.52,13.56,1.15,4.45,1.34-4.51,4-13.5h3.85l-7.33,23.35h-4.09l-3.71-14-.93-4-4.73,18Zm-26.26-13.9h13a8,8,0,0,0-1.5-4.42,6,6,0,0,0-4.89-2.29,6.25,6.25,0,0,0-4.57,1.83,7.25,7.25,0,0,0-2,4.85Zm13,6.34,4.1.54a10,10,0,0,1-3.57,5.55,10.76,10.76,0,0,1-6.67,2,10.62,10.62,0,0,1-8.1-3.15c-2-2.09-3-5-3-8.83s1-7,3-9.12a10.22,10.22,0,0,1,7.85-3.25,10,10,0,0,1,7.63,3.18c2,2.13,3,5.11,3,9v1.05H331.15a9,9,0,0,0,2.17,5.88,6.48,6.48,0,0,0,4.87,2,6,6,0,0,0,3.7-1.15,7.54,7.54,0,0,0,2.43-3.73Zm-26,7.56V445.82h4V478ZM297,466.22q0,4.18,1.14,6.06a5.64,5.64,0,0,0,9.52.8q1.89-2.25,1.89-6.71c0-3-.6-5.22-1.81-6.73a5.5,5.5,0,0,0-4.38-2.18,5.66,5.66,0,0,0-4.47,2.25q-2,2.22-1.95,6.48Zm0,11.85h-3.69V445.82h4v11.5a7.85,7.85,0,0,1,6.4-3.13,9.72,9.72,0,0,1,4.08.87,8.37,8.37,0,0,1,3.16,2.43,11.9,11.9,0,0,1,2,3.79,15.49,15.49,0,0,1,.7,4.73q0,6-3,9.26a9.29,9.29,0,0,1-7.12,3.27,7.47,7.47,0,0,1-6.48-3.44Zm-22.51-26.23,2.88-6.17h5.22l-4.81,6.17Zm-3.6,14.56c0,3,.66,5.22,2,6.7a6.55,6.55,0,0,0,9.24.62,6,6,0,0,0,.62-.62q2-2.24,2-6.81c0-2.88-.66-5.07-2-6.54a6.56,6.56,0,0,0-9.26-.58h0a5.29,5.29,0,0,0-.58.58c-1.33,1.42-2,3.68-2,6.62Zm-4.05,0q0-6.48,3.61-9.59a10.88,10.88,0,0,1,7.34-2.59,10.5,10.5,0,0,1,7.87,3.15q3,3.15,3,8.7a15.37,15.37,0,0,1-1.35,7.07,9.53,9.53,0,0,1-3.93,4,11.35,11.35,0,0,1-5.64,1.43,10.4,10.4,0,0,1-7.92-3.14q-3-3.17-3-9.06ZM253.3,478.07V454.69h3.55v3.58A9.54,9.54,0,0,1,259.4,455a4.48,4.48,0,0,1,2.55-.8,7.74,7.74,0,0,1,4.07,1.26l-1.41,3.65a5.74,5.74,0,0,0-2.88-.81,3.73,3.73,0,0,0-2.32.78,4.25,4.25,0,0,0-1.46,2.16,15.3,15.3,0,0,0-.66,4.61V478Zm-35.57,0-8.48-32.22h4.43L218.54,467c.52,2.21,1,4.41,1.38,6.59q1.28-5.16,1.49-5.94l6.09-21.78h5.14l4.62,16.32a96.57,96.57,0,0,1,2.51,11.4c.43-2,1-4.37,1.64-7l5-20.72h4.29l-8.82,32.22h-4.15L231,453.53c-.57-2.06-.91-3.32-1-3.78-.37,1.47-.7,2.73-1,3.77l-6.76,24.55Zm-41-11.64q0,4.47,1.89,6.69a5.75,5.75,0,0,0,4.47,2.21,5.6,5.6,0,0,0,4.42-2.12c1.21-1.41,1.81-3.56,1.82-6.45q0-4.77-1.86-7a5.69,5.69,0,0,0-4.56-2.23,5.48,5.48,0,0,0-4.41,2.14c-1.21,1.39-1.8,3.64-1.8,6.76Zm12.51,11.64v-3a7.32,7.32,0,0,1-6.53,3.46,9.06,9.06,0,0,1-5.12-1.54,10.16,10.16,0,0,1-3.59-4.28,14.82,14.82,0,0,1-1.28-6.33,16.68,16.68,0,0,1,1.16-6.33,9.11,9.11,0,0,1,3.49-4.35,9.3,9.3,0,0,1,5.2-1.52A7.81,7.81,0,0,1,189,457.4V445.82h4V478Zm-25.17,0V445.82h4V478ZM141.7,466.4q0,4.5,2,6.7a6.54,6.54,0,0,0,9.23.62h0a6,6,0,0,0,.62-.62q2-2.24,2-6.81c0-2.88-.66-5.07-2-6.54a6.56,6.56,0,0,0-9.26-.58h0a5.29,5.29,0,0,0-.58.58q-2.06,2.16-2,6.62Zm-4,0q0-6.48,3.61-9.59a10.88,10.88,0,0,1,7.34-2.59,10.5,10.5,0,0,1,7.87,3.15q3,3.15,3,8.7a15.37,15.37,0,0,1-1.35,7.07,9.5,9.5,0,0,1-3.94,4,11.31,11.31,0,0,1-5.63,1.43,10.51,10.51,0,0,1-7.93-3.14q-3-3.17-3-9.06Zm-2.42,8.14.54,3.5a15.17,15.17,0,0,1-3,.35,6.89,6.89,0,0,1-3.34-.68,3.77,3.77,0,0,1-1.66-1.8,14.19,14.19,0,0,1-.48-4.68V457.75h-2.93v-3.06h2.93v-5.78l4-2.37v8.15h4v3.06h-4v13.68a6.68,6.68,0,0,0,.21,2.18,1.62,1.62,0,0,0,.67.77,2.74,2.74,0,0,0,1.35.29,11.94,11.94,0,0,0,1.68-.16Zm-18.59,3.53V454.69h4V478Zm0-27.72v-4.5h4v4.5ZM80.25,478.07l-8.49-32.22h4.39L81,467c.52,2.21,1,4.41,1.39,6.59.84-3.44,1.34-5.42,1.48-5.94L90,445.88H95.1l4.62,16.32a96.57,96.57,0,0,1,2.51,11.4q.64-3.06,1.64-7l5-20.72h4.3l-8.82,32.22H100.2l-6.76-24.54c-.57-2.06-.91-3.32-1-3.78-.37,1.47-.7,2.73-1,3.77L84.68,478.1Zm347.24-41.29-.45-3.66a9.18,9.18,0,0,0,2.27.35,4.41,4.41,0,0,0,2.11-.44,3.77,3.77,0,0,0,1.31-1.23,20.4,20.4,0,0,0,1.2-3c.08-.21.19-.54.36-1l-8.9-23.37h4.23l4.88,13.48c.63,1.7,1.19,3.5,1.7,5.39.46-1.77,1-3.53,1.63-5.25l5-13.62h4L438,428.19a43.71,43.71,0,0,1-2.23,5.28,7.74,7.74,0,0,1-2.42,2.85,5.71,5.71,0,0,1-3.26.91,8.43,8.43,0,0,1-2.63-.48Zm-28.12-9-7.08-23.35h4.14l3.72,13.46,1.32,5q.09-.37,1.21-4.81l3.7-13.68h4.06L414,418l1.2,4.47,1.34-4.5,4-13.5h3.85L417,427.78h-4.1l-3.7-14-.94-4-4.72,18Zm-26.66-11.67q0,4.5,2,6.7a6.54,6.54,0,0,0,9.23.62h0a6,6,0,0,0,.62-.62c1.33-1.49,2-3.77,2-6.82q0-4.32-2-6.54a6.57,6.57,0,0,0-9.27-.57,7.66,7.66,0,0,0-.57.57c-1.39,1.45-2,3.67-2,6.65Zm-4,0q0-6.47,3.61-9.58a10.83,10.83,0,0,1,7.34-2.59,10.5,10.5,0,0,1,7.87,3.15c2,2.09,3.05,5,3.05,8.69a15.41,15.41,0,0,1-1.35,7.08,9.56,9.56,0,0,1-3.94,4,11.42,11.42,0,0,1-5.63,1.43,10.51,10.51,0,0,1-7.93-3.14q-3.09-3.15-3.1-9.06Zm-13.54,11.68V404.43h3.55V408a9.49,9.49,0,0,1,2.52-3.27,4.28,4.28,0,0,1,2.54-.8,7.88,7.88,0,0,1,4.08,1.25l-1.41,3.66a5.74,5.74,0,0,0-2.88-.81,3.73,3.73,0,0,0-2.32.78,4.09,4.09,0,0,0-1.46,2.16,15,15,0,0,0-.66,4.61v12.2Zm-22.42-11.67q0,4.5,2,6.7a6.54,6.54,0,0,0,9.23.62h0a6,6,0,0,0,.62-.62c1.33-1.49,2-3.77,2-6.82q0-4.32-2-6.54a6.57,6.57,0,0,0-9.27-.57,7.66,7.66,0,0,0-.57.57c-1.44,1.44-2.09,3.66-2.09,6.64Zm-4,0q0-6.47,3.61-9.58A10.83,10.83,0,0,1,339.7,404a10.5,10.5,0,0,1,7.87,3.15c2,2.09,3.05,5,3.05,8.69a15.41,15.41,0,0,1-1.35,7.08,9.56,9.56,0,0,1-3.94,4,11.52,11.52,0,0,1-5.63,1.43,10.51,10.51,0,0,1-7.93-3.14q-3.16-3.17-3.15-9.07ZM305.21,427.8V404.43h3.55v3.31a8.4,8.4,0,0,1,7.42-3.81,9.94,9.94,0,0,1,3.88.76,6.07,6.07,0,0,1,2.64,2,7.51,7.51,0,0,1,1.23,2.91,22.49,22.49,0,0,1,.22,3.85v14.34h-4V413.58a10.52,10.52,0,0,0-.46-3.61,3.79,3.79,0,0,0-1.63-1.92,5.21,5.21,0,0,0-2.75-.71A6.33,6.33,0,0,0,311,409c-1.23,1.06-1.83,3.09-1.83,6.08v12.74Zm-22.47-11.67c0,3,.66,5.22,2,6.7a6.55,6.55,0,0,0,9.24.62,6,6,0,0,0,.62-.62c1.33-1.49,2-3.77,2-6.82q0-4.32-2-6.54a6.57,6.57,0,0,0-9.27-.57,7.66,7.66,0,0,0-.57.57c-1.49,1.43-2.15,3.65-2.15,6.63Zm-4,0q0-6.47,3.61-9.58a10.88,10.88,0,0,1,7.34-2.59,10.5,10.5,0,0,1,7.87,3.15c2,2.09,3,5,3,8.69a15.41,15.41,0,0,1-1.35,7.08,9.53,9.53,0,0,1-3.93,4,11.48,11.48,0,0,1-5.64,1.43,10.49,10.49,0,0,1-7.92-3.14q-3.17-3.17-3.16-9.08Zm-30.33,11.68V395.55h4.27v13.28h16.47V395.55h4.28v32.22h-4.28V412.61H252.5v15.16Zm-17.26-3.57.54,3.49a13.75,13.75,0,0,1-3,.36,6.73,6.73,0,0,1-3.33-.69,3.81,3.81,0,0,1-1.67-1.79,14.19,14.19,0,0,1-.48-4.68V407.48h-2.92v-3.05h2.92v-5.78l4-2.38v8.16h4v3.06h-4v13.68a6.68,6.68,0,0,0,.21,2.18,1.69,1.69,0,0,0,.68.77,2.52,2.52,0,0,0,1.35.29,13.79,13.79,0,0,0,1.7-.17Zm-18.68-8.17a29.44,29.44,0,0,1-6.48,1.49,15.3,15.3,0,0,0-3.47.78,3.61,3.61,0,0,0-1.56,1.28,3.46,3.46,0,0,0-.55,1.87,3.32,3.32,0,0,0,1.2,2.62,5.14,5.14,0,0,0,3.51,1,8.16,8.16,0,0,0,4.07-1,6.13,6.13,0,0,0,2.62-2.71,9.47,9.47,0,0,0,.64-3.94Zm.31,8.78a14.58,14.58,0,0,1-4.24,2.64,12.1,12.1,0,0,1-4.37.78,8.52,8.52,0,0,1-5.92-1.88,6.14,6.14,0,0,1-2.07-4.78,6.44,6.44,0,0,1,2.83-5.4,9.65,9.65,0,0,1,2.85-1.29,30.09,30.09,0,0,1,3.52-.6,36.18,36.18,0,0,0,7.07-1.35v-1a4.34,4.34,0,0,0-1.13-3.4,6.63,6.63,0,0,0-4.51-1.33,7,7,0,0,0-4.13,1,5.91,5.91,0,0,0-2,3.47l-3.88-.54a9.63,9.63,0,0,1,1.74-4,7.65,7.65,0,0,1,3.51-2.35,15.75,15.75,0,0,1,5.32-.83,13.67,13.67,0,0,1,4.87.71,5.57,5.57,0,0,1,4,4.47,23.18,23.18,0,0,1,.19,3.63V418a58.42,58.42,0,0,0,.25,7,9.13,9.13,0,0,0,1,2.82h-4.14a8.92,8.92,0,0,1-.77-3Zm-40.28,2.92V404.43h3.56v3.31a8.38,8.38,0,0,1,7.42-3.81,9.89,9.89,0,0,1,3.87.76,6,6,0,0,1,2.65,2,7.51,7.51,0,0,1,1.23,2.91,23.62,23.62,0,0,1,.22,3.85v14.34h-4V413.58A10.53,10.53,0,0,0,187,410a3.76,3.76,0,0,0-1.64-1.92,5.21,5.21,0,0,0-2.75-.71,6.35,6.35,0,0,0-4.35,1.61q-1.83,1.59-1.83,6.08v12.74ZM150,416.1q0,4.5,2,6.7a6.54,6.54,0,0,0,9.23.62h0a6,6,0,0,0,.62-.62c1.33-1.49,2-3.77,2-6.82q0-4.32-2-6.54a6.57,6.57,0,0,0-9.27-.57,7.66,7.66,0,0,0-.57.57c-1.37,1.46-2,3.68-2,6.66Zm-4,0q0-6.47,3.61-9.58a10.83,10.83,0,0,1,7.34-2.59,10.5,10.5,0,0,1,7.87,3.15c2,2.09,3.05,5,3.05,8.69a15.41,15.41,0,0,1-1.35,7.08,9.56,9.56,0,0,1-3.94,4,11.42,11.42,0,0,1-5.63,1.43,10.51,10.51,0,0,1-7.93-3.14q-3-3.13-3-9.05Zm-13.54,11.68V404.43H136V408a9.49,9.49,0,0,1,2.52-3.27,4.28,4.28,0,0,1,2.54-.8,7.88,7.88,0,0,1,4.08,1.25l-1.41,3.66a5.74,5.74,0,0,0-2.88-.81,3.73,3.73,0,0,0-2.32.78,4.09,4.09,0,0,0-1.46,2.16,15,15,0,0,0-.66,4.61v12.2Zm-3.87-3.53.54,3.49a13.75,13.75,0,0,1-3,.36,6.66,6.66,0,0,1-3.34-.69,3.86,3.86,0,0,1-1.67-1.79,14.19,14.19,0,0,1-.48-4.68V407.48h-2.92v-3.05h2.92v-5.78l4-2.38v8.16h4v3.06h-4v13.68a6.68,6.68,0,0,0,.21,2.18,1.69,1.69,0,0,0,.68.77,2.52,2.52,0,0,0,1.35.29,13.79,13.79,0,0,0,1.7-.17Zm-18.68-8.17a29.44,29.44,0,0,1-6.48,1.49,14.7,14.7,0,0,0-3.46.78,3.42,3.42,0,0,0-1.87,4.46,3.36,3.36,0,0,0,1,1.31,5.15,5.15,0,0,0,3.51,1.05,8.16,8.16,0,0,0,4.07-1,6,6,0,0,0,2.62-2.71,9.47,9.47,0,0,0,.64-3.94Zm.32,8.78A14.5,14.5,0,0,1,106,427.5a12.1,12.1,0,0,1-4.37.78,8.52,8.52,0,0,1-5.92-1.88,6.14,6.14,0,0,1-2.07-4.78,6.59,6.59,0,0,1,2.78-5.4,9.65,9.65,0,0,1,2.85-1.29,30.09,30.09,0,0,1,3.52-.6,36.18,36.18,0,0,0,7.07-1.35v-1a4.34,4.34,0,0,0-1.12-3.4,6.66,6.66,0,0,0-4.52-1.33,7,7,0,0,0-4.13,1,5.91,5.91,0,0,0-2,3.47l-3.87-.54a9.51,9.51,0,0,1,1.74-4,7.65,7.65,0,0,1,3.51-2.35,15.73,15.73,0,0,1,5.31-.83,13.67,13.67,0,0,1,4.87.71,5.57,5.57,0,0,1,4,4.47,22,22,0,0,1,.2,3.63v5.25a58.42,58.42,0,0,0,.24,7,9.13,9.13,0,0,0,1,2.82h-4.14a8.44,8.44,0,0,1-.71-3Zm-40.5-14H78c2.76,0,4.71-.51,5.87-1.54A5.46,5.46,0,0,0,85.65,405a5.83,5.83,0,0,0-1-3.46,4.79,4.79,0,0,0-2.7-1.9,18.5,18.5,0,0,0-4-.29H69.71Zm-4.28,16.92V395.55H77.61a29.73,29.73,0,0,1,4.9.31,9.78,9.78,0,0,1,4,1.5,7.87,7.87,0,0,1,2.59,3.1,10.44,10.44,0,0,1-1.64,11.33q-2.61,2.85-9.46,2.84H69.74v13.14Z" transform="translate(-64.95 -57.68)"/><path class="cls-1" d="M430.07,516.62a28.86,28.86,0,0,1-6.48,1.48,14.8,14.8,0,0,0-3.47.79A3.37,3.37,0,0,0,418,522a3.35,3.35,0,0,0,1.2,2.62,5.25,5.25,0,0,0,3.51,1,8.16,8.16,0,0,0,4.07-1,6.15,6.15,0,0,0,2.62-2.72A9.42,9.42,0,0,0,430,518Zm.31,8.77a14.83,14.83,0,0,1-4.24,2.65,12.31,12.31,0,0,1-4.37.77,8.52,8.52,0,0,1-5.92-1.87,6.2,6.2,0,0,1-2.07-4.79,6.43,6.43,0,0,1,2.83-5.39,9.32,9.32,0,0,1,2.85-1.3,30.06,30.06,0,0,1,3.52-.59,36.2,36.2,0,0,0,7.07-1.36v-1a4.31,4.31,0,0,0-1.13-3.39,6.59,6.59,0,0,0-4.51-1.34,7,7,0,0,0-4.13,1,6,6,0,0,0-2,3.48l-3.87-.54a9.63,9.63,0,0,1,1.74-4,7.74,7.74,0,0,1,3.51-2.36,15.72,15.72,0,0,1,5.31-.82,14.15,14.15,0,0,1,4.88.7A6.41,6.41,0,0,1,432.6,507a6.29,6.29,0,0,1,1.24,2.7,23.31,23.31,0,0,1,.19,3.64v5.25a58.42,58.42,0,0,0,.25,7,9.13,9.13,0,0,0,1,2.82h-4.13a8.92,8.92,0,0,1-.77-3Zm-37.77-9.15c0,3,.61,5.27,1.83,6.68A5.8,5.8,0,0,0,399,525a5.87,5.87,0,0,0,4.58-2.09c1.23-1.4,1.84-3.59,1.85-6.57s-.64-5-1.91-6.45a5.85,5.85,0,0,0-4.58-2.17,5.72,5.72,0,0,0-4.49,2.14c-1.23,1.42-1.84,3.54-1.85,6.35Zm-3.24,14,3.83.54a3.73,3.73,0,0,0,1.34,2.6,6.65,6.65,0,0,0,4,1.09,7.12,7.12,0,0,0,4.24-1.09,5.45,5.45,0,0,0,2-3.07,25.2,25.2,0,0,0,.28-5.06,8.15,8.15,0,0,1-6.46,3.06,8.83,8.83,0,0,1-7.46-3.48,13.27,13.27,0,0,1-2.64-8.31,15.54,15.54,0,0,1,1.21-6.17,9.2,9.2,0,0,1,8.9-5.89,8.3,8.3,0,0,1,6.81,3.37V505h3.73v20.18q0,5.46-1.11,7.72a8.14,8.14,0,0,1-3.51,3.6,12.28,12.28,0,0,1-5.92,1.32,11.15,11.15,0,0,1-6.73-1.88,6.33,6.33,0,0,1-2.51-5.64Zm-4.92-1.93a5.78,5.78,0,0,0-1.95,1.89,4.58,4.58,0,0,0-.69,2.3,2.38,2.38,0,0,0,.51,1.56,2,2,0,0,0,1.64.64,3.37,3.37,0,0,0,1-.15,3.9,3.9,0,0,0,1-.38V537a7,7,0,0,1-3,.77,5.45,5.45,0,0,1-2-.32,4.26,4.26,0,0,1-1.4-.88,3.73,3.73,0,0,1-.82-1.29,4.18,4.18,0,0,1-.28-1.56,5.73,5.73,0,0,1,.79-2.82,8.79,8.79,0,0,1,2.24-2.58ZM380,516.61a28.86,28.86,0,0,1-6.48,1.48,14.72,14.72,0,0,0-3.46.79,3.4,3.4,0,0,0-.92,5.77,5.25,5.25,0,0,0,3.51,1,8.19,8.19,0,0,0,4.08-1,6.13,6.13,0,0,0,2.61-2.72A9.37,9.37,0,0,0,380,518Zm.32,8.77a14.88,14.88,0,0,1-4.25,2.65,12.09,12.09,0,0,1-4.37.77,8.56,8.56,0,0,1-5.92-1.87,6.2,6.2,0,0,1-2.07-4.79,6.43,6.43,0,0,1,2.83-5.39,9.32,9.32,0,0,1,2.85-1.3,29.88,29.88,0,0,1,3.53-.59A36.1,36.1,0,0,0,380,513.5v-1a4.35,4.35,0,0,0-1.12-3.39,6.61,6.61,0,0,0-4.52-1.34,7,7,0,0,0-4.13,1,6,6,0,0,0-2,3.48l-3.87-.54a9.51,9.51,0,0,1,1.74-4,7.74,7.74,0,0,1,3.51-2.36,15.48,15.48,0,0,1,5.31-.82,14.13,14.13,0,0,1,4.87.7,5.51,5.51,0,0,1,4,4.47,22.16,22.16,0,0,1,.2,3.64v5.25a56.41,56.41,0,0,0,.25,7,8.88,8.88,0,0,0,1,2.82h-4.14a9.13,9.13,0,0,1-.75-3Z" transform="translate(-64.95 -57.68)"/><g id="Warstwa_2" data-name="Warstwa 2"><path class="cls-2" d="M131.42,182.69c0,1.56,0,3.13.07,4.76h250c0-1.63.06-3.2.06-4.76,0-2.38,1.5-122.15,1.5-123.38l-1-.67-252.33.2c0,1.22,1.63,121.33,1.63,123.85" transform="translate(-64.95 -57.68)"/><path class="cls-3" d="M130.58,187.45c1.62,42.89,17.67,79.33,48.46,109.72,26,25.28,55.47,39.08,69.54,45.67,3.2,1.5,5.64,2.65,7,3.41l.82.54.82-.54c2.92-1.71,6.79-3.68,11.28-6.06,18.42-9.58,45.75-24.19,69.74-49,27.81-28.82,42.76-63,43.85-103.73Z" transform="translate(-64.95 -57.68)"/><path class="cls-4" d="M380.12,190.31v-3.74H293.24v3.74h24.88l-.34.34L305.48,203l-12.24-12.3-.4-.34h.4v-3.74H195.15v3.74H220.1l-.41.34L207.42,203l-12.31-12.3-.34-.34h.34v-3.74H132.82v3.74H141l15.43,15.43L136.24,226c.41,1.36.75,2.72,1.16,4l21-20.88,7.27,7.27L181,231.73l-15.36,15.43-7.27,7.27L139.16,235.2c1,2.85,2,5.64,3.19,8.43l14.14,14.14-4.76,4.76c.69,1.08,1.3,2.17,2,3.26l4.69-4.69,7.27,7.27,15.36,15.43-7.54,7.55c.75.81,1.49,1.63,2.24,2.37l7.21-7.13,12.23,12.23,10.4,10.41L200,314.77c1,.75,2,1.49,3.05,2.18l4.43-4.43,12.23,12.31,6.87,6.87,5.44,2.92c.88.47,1.69.88,2.58,1.36l-.75-.75,10.4-10.4,12.13-12.31,12.3,12.31,10,10c.81-.48,1.56-.89,2.24-1.36,2.31-1.36,4.35-2.79,7-4.35l5.3-5,12.24-11.63,3.74,3.74c1-.67,2-1.42,3.06-2.17l-4.9-4.89,10.4-10.41L330,286.53l6.79,6.73c.62-.68,1.3-1.36,2-2a3,3,0,0,0,.27-.35L332,283.77l15.37-15.43,7.27-7.27,4.49,4.48c.68-1.08,1.35-2.17,2-3.26l-4.67-4.55,14-13.94c1.15-2.78,2.24-5.64,3.26-8.49l-19.1,19.09-7.27-7.27L332,231.7l15.37-15.36,7.27-7.27L375.42,230c.41-1.36.75-2.72,1.16-4.08l-20.16-20.16,15.43-15.43Zm-62.34,31.06,10.34,10.33-10.34,10.4-12.3,12.3-12.24-12.3-10.4-10.4,10.4-10.4,12.24-12.23ZM244.23,242.1l-10.4-10.4,10.4-10.4,12.19-12.23,12.3,12.3,10.4,10.33-10.4,10.4-12.3,12.3Zm10.34,15.64-10.34,10.4L232,280.37l-12.31-12.23-10.4-10.4,10.4-10.4L232,235.1l12.23,12.24Zm14.13-10.4,12.24-12.24,12.3,12.24,10.41,10.4-10.41,10.4-12.3,12.23L268.7,268.14l-10.4-10.4Zm12.24-57h7.27l5,5,10.41,10.41-10.41,10.4-12.3,12.23-12.24-12.3-10.4-10.33,10.4-10.41,5-5Zm-36.71,0H269l-.34.34L256.42,203l-12.17-12.3-.41-.34Zm-24.54,5,5-5h14.48l5,5,10.34,10.41-10.34,10.4-12.23,12.23-12.31-12.3-10.4-10.33Zm0,26,10.4,10.33-10.4,10.4L207.42,254.4l-12.31-12.3-10.4-10.4,10.4-10.4,12.31-12.23Zm-74-31.06H171l-5.37,5.36L158.42,203Zm19.92,20.8-5.37-5.37,5.37-5.37,10.06-10.06h14.45l5,5,10.4,10.41-10.4,10.4-12.2,12.28Zm0,52-5.37-5.37,5.37-5.38,17.27-17.26,12.23,12.24,10.4,10.4-10.4,10.4-12.19,12.26Zm29.5,31.06-10.4-10.4,10.4-10.4,12.31-12.27,12.23,12.3,10.4,10.4-10.4,10.34-12.23,12.3Zm49.08,25.43L232,331.8l-12.31-12.23-10.4-10.4,10.4-10.41L232,286.53l12.23,12.23,10.34,10.41Zm0-25.43-10.4-10.4,10.4-10.4,12.23-12.27,12.3,12.3,10.4,10.4-10.4,10.34-12.3,12.3Zm49,25.43-12.3,12.23-12.24-12.23-10.4-10.4,10.4-10.41,12.24-12.23,12.3,12.23,10.41,10.41Zm24.54-25.49-12.3,12.3-12.24-12.24-10.4-10.4,10.4-10.4L305.43,261l12.3,12.3,10.34,10.4Zm29.51-41.75,5.43,5.38-5.43,5.37L330,280.37l-12.24-12.23-10.36-10.4,10.4-10.4L330,235.1Zm0-41.25L330,228.37l-12.24-12.3L307.4,205.74l10.4-10.41,5-5h14.47l10,10,5.43,5.44Zm7.27-8.16-7.27-7.28-5.38-5.36h25.29Z" transform="translate(-64.95 -57.68)"/><path class="cls-5" d="M256.33,57.68H128.81v1.64c0,1.22,1.63,120.24,1.63,122.76,0,45.06,16.31,83.81,48.53,115.29,26,25.29,55.47,39.09,69.54,45.68,3.2,1.49,5.65,2.65,7,3.39l.81.55.82-.55c2.92-1.69,6.8-3.66,11.28-6,18.42-9.59,46.3-24.13,70.29-48.95,28.89-29.91,43.57-66.82,43.57-109.44,0-2.38,1.63-121.54,1.63-122.76V57.68ZM379,182.08c0,97.21-75.66,136.5-112.09,155.4-4.08,2.17-7.68,4-10.54,5.64-1.49-.76-3.67-1.77-6.39-3.06-28.68-13.46-116.17-54.31-116.17-158,0-2.38-1.43-106-1.63-121.14H380.6C380.42,76.1,379,179.77,379,182.08Z" transform="translate(-64.95 -57.68)"/><path class="cls-4" d="M307.18,146.53c-.48-3.2-.82-6.8-1.09-10.74-.27-4.35-.41-9-.41-13.8,0-5.64.21-11.08.61-16,.21-3.13.55-6.06.89-8.64v-.07a1.41,1.41,0,0,0,.07-.54,4.25,4.25,0,0,0-1.83-3.5,4.49,4.49,0,0,0-2.38-.75h0a5.25,5.25,0,0,0-1.56.34,1.06,1.06,0,0,0-.47.27h-.07c-.14.07-.21.14-.34.2-7.82,4.49-20.94,11.22-23.8,9.52-2.65-1.5,2.45-13.32,9.32-25.56v-.14a4.71,4.71,0,0,0,.47-1.08V75.7a4.3,4.3,0,0,0-.68-3.06h-.06c-.07-.14-.21-.28-.28-.41a.86.86,0,0,1-.13-.14.9.9,0,0,1-.28-.27c-.06-.07-.13-.07-.2-.13s-.2-.14-.27-.21a.26.26,0,0,0-.21-.06c-.07,0-.2-.14-.26-.21a.27.27,0,0,1-.21-.07c-.14-.07-.21-.07-.34-.14h-.18c-.14-.06-.27-.06-.41-.13h-1.39a169.46,169.46,0,0,1-25.36,1.7,169.33,169.33,0,0,1-25.35-1.7h-1.29c-.14.07-.35.07-.48.13H229c-.14.07-.28.07-.35.14a.25.25,0,0,1-.2.07c-.14.07-.2.14-.34.21a.16.16,0,0,0-.13.06c-.14.07-.21.14-.34.21s-.07.06-.14.13l-.27.27c-.07,0-.07.08-.14.14s-.2.27-.34.41A4.49,4.49,0,0,0,226,75.7v.06a.4.4,0,0,1,.07.28,3.22,3.22,0,0,0,.41,1.08c.07.07.07.07.07.14,6.79,12.24,12,24.06,9.31,25.56-2.86,1.63-15.77-4.89-23.59-9.45a4.53,4.53,0,0,1-.54-.27h-.07a1.47,1.47,0,0,0-.47-.27,6,6,0,0,0-1.57-.34h-.07a4.24,4.24,0,0,0-4.21,4.27h0v.61c.41,2.58.68,5.51,1,8.64.41,4.89.61,10.33.61,16,0,4.76-.2,9.45-.47,13.8-.28,3.94-.61,7.54-1.09,10.74v1.29c.07.07.07.07.07.14a4.09,4.09,0,0,0,1.76,2.71,4.3,4.3,0,0,0,2.38.75h.07a4.26,4.26,0,0,0,1.57-.34c.13-.07.74-.41.88-.47,7.75-4.49,20.87-11.22,23.79-9.52,2.65,1.5-2.52,13.32-9.31,25.63l-.07.07a4.25,4.25,0,0,0-.48,2.24,3.84,3.84,0,0,0,.75,2.24c.14.14.21.27.34.41s.07.13.14.13a.45.45,0,0,0,.27.27l.14.14a3.79,3.79,0,0,0,.34.2.22.22,0,0,0,.13.08c.14.06.2.13.34.2a.27.27,0,0,1,.14.07c.13.07.27.07.41.13s.06,0,.13.07.34.07.48.07h.07c.2,0,.33.07.54.07l.34-.07H231a159.84,159.84,0,0,1,21.75-1.63h3.6a169.4,169.4,0,0,1,25.36,1.63h.2c.21,0,.34.07.48.07h.12c.13,0,.33-.07.47-.07H283c.21,0,.34-.07.48-.07a.25.25,0,0,1,.2-.07c.07-.06.2-.06.34-.13s.14-.07.21-.07.2-.14.26-.2a.32.32,0,0,1,.21-.08c.07,0,.2-.13.27-.2s.14-.06.2-.14l.28-.27.13-.13a2.25,2.25,0,0,1,.34-.41,4.37,4.37,0,0,0,.75-2.24,3.76,3.76,0,0,0-.54-2.24v-.07c-6.8-12.31-12-24.13-9.32-25.63,2.86-1.7,16,5,23.8,9.58.13,0,.2.07.34.14v.07l.54.2a4,4,0,0,0,1.56.34h.07a4.49,4.49,0,0,0,2.38-.75,4.16,4.16,0,0,0,1.77-2.71v-.14a2,2,0,0,0,.07-.68,1.41,1.41,0,0,0-.07-.54Zm-4.22.61c-5.1-3-25-14.07-30.25-9.18s7.34,27,9.59,30.87a199,199,0,0,0-52.07,0c2.17-4,14.48-26.65,9.58-30.87-5.44-4.62-25.15,6.26-30.25,9.18A183.64,183.64,0,0,0,211.13,122a185,185,0,0,0-1.57-25.22c5.1,2.92,24.81,13.8,30.25,9.18,4.9-4.22-7.41-26.92-9.58-30.87a182.26,182.26,0,0,0,26,1.71,171.3,171.3,0,0,0,26-1.71C280.05,79,267.48,101,272.71,106s25.15-6.19,30.25-9.18A186,186,0,0,0,301.42,122,186.88,186.88,0,0,0,303,147.14Z" transform="translate(-64.95 -57.68)"/><path class="cls-3" d="M272.71,106c-5.23-5,7.34-27,9.59-30.87a171.3,171.3,0,0,1-26,1.71,182.26,182.26,0,0,1-26-1.71c2.17,4,14.48,26.65,9.58,30.87-5.44,4.62-25.15-6.26-30.25-9.18a182.73,182.73,0,0,1,1.5,25.18,183.93,183.93,0,0,1-1.57,25.15c5.1-2.92,24.81-13.8,30.25-9.18,4.9,4.22-7.41,26.92-9.58,30.87a199,199,0,0,1,52.07,0c-2.25-3.88-14.82-25.91-9.59-30.87s25.15,6.19,30.25,9.18A185.51,185.51,0,0,1,301.42,122,185.4,185.4,0,0,1,303,96.76c-5.1,3-25,14.07-30.25,9.18" transform="translate(-64.95 -57.68)"/><path class="cls-5" d="M256.26,167.4a167.51,167.51,0,0,0-26,1.7l-.47.07.2-.48c6.73-12.1,13.33-27.39,9.66-30.52a5.54,5.54,0,0,0-3.81-1.09c-7.82,0-22,7.88-26.17,10.27l-.41.27.07-.48A182.08,182.08,0,0,0,210.92,122a180.27,180.27,0,0,0-1.56-25.22l-.07-.48.41.28c4.14,2.38,18.35,10.26,26.17,10.26a5.54,5.54,0,0,0,3.81-1.09c3.67-3.13-2.93-18.42-9.66-30.52l-.2-.48.47.14a178,178,0,0,0,26,1.7V77a183.57,183.57,0,0,1-25.56-1.64c2.86,5.24,14.14,26.52,9.25,30.66a6,6,0,0,1-4.08,1.23c-7.68,0-21.34-7.41-26-10.13A189.82,189.82,0,0,1,211.42,122a189.52,189.52,0,0,1-1.5,24.74c4.63-2.65,18.29-10.13,26-10.13a6,6,0,0,1,4.08,1.23c4.89,4.14-6.39,25.42-9.25,30.72a174.8,174.8,0,0,1,25.56-1.63Zm26.52,1.77-.48-.07a170,170,0,0,0-26-1.7v-.48a177.16,177.16,0,0,1,25.63,1.63c-3-5.16-14.47-25.9-9.31-30.72a5.81,5.81,0,0,1,4.14-1.29c7.68,0,21.28,7.47,26,10.19A189.16,189.16,0,0,1,301.2,122a188.84,188.84,0,0,1,1.49-24.81c-4.69,2.72-18.29,10.2-26,10.2a5.8,5.8,0,0,1-4.14-1.3c-5.16-4.82,6.32-25.49,9.31-30.66A184.6,184.6,0,0,1,256.23,77v-.47a179.38,179.38,0,0,0,26-1.7l.48-.14-.28.48c-1.49,2.58-14.75,25.7-9.58,30.52a5.18,5.18,0,0,0,3.8,1.16c7.75,0,22-7.89,26.17-10.33l.41-.28-.07.48A182.59,182.59,0,0,0,301.68,122a183.91,183.91,0,0,0,1.55,25.15l.07.48-.41-.27c-4.21-2.44-18.42-10.36-26.17-10.36a5.48,5.48,0,0,0-3.8,1.16c-5.17,4.82,8.09,27.93,9.58,30.52Z" transform="translate(-64.95 -57.68)"/><path class="cls-5" d="M256.26,72.3h0A179.29,179.29,0,0,1,231,70.67h-.14a1.79,1.79,0,0,0-.61-.07,1.24,1.24,0,0,0-.54.07h-.07c-.21,0-.34.06-.55.06a.21.21,0,0,1-.13.07c-.14.07-.27.07-.41.14s-.07.07-.2.07a2.33,2.33,0,0,1-.34.2.27.27,0,0,1-.14.07c-.14.07-.21.14-.34.2l-.07.07c0,.06-.07.06-.07.06l-.27.28L227,72c-.07,0-.07.07-.14.07s-.21.27-.34.47a4.44,4.44,0,0,0-.75,3.2V76a.27.27,0,0,0,.07.21,3.43,3.43,0,0,0,.4,1.15l.07.07c7.82,14.13,11.49,24.06,9.38,25.28a2.4,2.4,0,0,1-1.15.21c-3.94,0-14.07-5-22.23-9.66l-.61-.34-.48-.2a4.36,4.36,0,0,0-1.63-.34h-.06a4.79,4.79,0,0,0-2.52.75,4.48,4.48,0,0,0-2,3.67v.07a1.66,1.66,0,0,0,.06.54v.07c.35,2.58.69,5.44.89,8.63.41,5,.61,10.47.61,16,0,4.69-.13,9.38-.41,13.8-.27,3.94-.61,7.61-1.09,10.74v.07a1.66,1.66,0,0,0-.06.54v.07a2.57,2.57,0,0,0,.06.68v0a4.63,4.63,0,0,0,1.91,2.85,4.79,4.79,0,0,0,2.52.75h.06a4.14,4.14,0,0,0,1.63-.34c.21-.07.34-.14.55-.21l.07-.07.27-.2c8.22-4.69,18.42-9.72,22.43-9.72a2.66,2.66,0,0,1,1.15.2c2.11,1.23-1.56,11.15-9.38,25.29l-.07.07a4.46,4.46,0,0,0-.54,2.45,4.81,4.81,0,0,0,.82,2.31c.13.2.27.34.34.47s.07.07.14.07h0a1.09,1.09,0,0,1,.33.27l.07.07.07.06a2.39,2.39,0,0,0,.34.21.27.27,0,0,1,.14.07l.4.21c.07.06.07.06.14.06a1,1,0,0,0,.48.14s0,.06.05.07h0a4.26,4.26,0,0,0,.62.13h1l.27-.06a173,173,0,0,1,21.68-1.64h3.6V171c-1.22,0-2.38,0-3.6.07a162.55,162.55,0,0,0-21.82,1.57.21.21,0,0,1-.13.07h-1c-.14-.07-.35-.07-.48-.14H229a1,1,0,0,0-.34-.14l-.2-.06c-.07-.08-.2-.14-.27-.21a.27.27,0,0,0-.21-.07,1.05,1.05,0,0,0-.27-.2l-.14-.14a.76.76,0,0,0-.27-.2l-.06-.07v-.06a1.74,1.74,0,0,1-.34-.42,3.88,3.88,0,0,1-.75-2.1,3.71,3.71,0,0,1,.47-2.11l.07-.07c4-7.14,12.71-23.92,9.25-26a2.72,2.72,0,0,0-1.43-.27c-5.3,0-19.78,8.15-22.64,9.78l-.4.27-.48.21a3.2,3.2,0,0,1-1.43.27h-.06a3.78,3.78,0,0,1-2.25-.68,4,4,0,0,1-1.7-2.58v-.07a2.22,2.22,0,0,1-.07-.68,1.08,1.08,0,0,1,.07-.47v-.07c.41-3.2.82-6.8,1.09-10.81.27-4.42.41-9,.41-13.8,0-5.51-.21-11.08-.61-16-.21-3.19-.55-6.11-.89-8.7v-.07a1.08,1.08,0,0,1-.07-.47,4,4,0,0,1,1.77-3.33,3.78,3.78,0,0,1,2.25-.68h.06a3.87,3.87,0,0,1,1.5.27,2.39,2.39,0,0,0,.34.21l.13.06.55.28c8.15,4.75,18.35,9.72,22.43,9.72a3,3,0,0,0,1.43-.27c3.46-2-5.3-18.77-9.25-25.91l-.07-.06c-.13-.34-.27-.68-.41-1.09v-.34a4.12,4.12,0,0,1,.62-2.86h.07c.07-.13.2-.27.27-.4s.07-.07.13-.07v-.07a1.05,1.05,0,0,0,.27-.2l.14-.14a1.05,1.05,0,0,0,.27-.2c.07,0,.14-.08.21-.08a1.41,1.41,0,0,1,.34-.19.17.17,0,0,0,.13-.07l.34-.07.14-.07a1,1,0,0,1,.48-.07l.07-.07h.47a1.41,1.41,0,0,1,.54.07h.14a179.07,179.07,0,0,0,25.35,1.63Zm51.16,74.23c-.48-3.13-.81-6.8-1.09-10.74-.27-4.42-.47-9.11-.47-13.8,0-5.51.2-11,.61-16,.27-3.19.54-6,.95-8.63v-.61a4.44,4.44,0,0,0-1.9-3.74,4.73,4.73,0,0,0-2.45-.75h-.13a4.74,4.74,0,0,0-1.71.34,2.76,2.76,0,0,1-.47.2l-.41.28c-8.16,4.69-18.42,9.72-22.43,9.72a2.57,2.57,0,0,1-1.16-.21c-2.1-1.22,1.63-11.15,9.45-25.28v-.07a3.43,3.43,0,0,0,.48-1.15v-.35h.07a4.5,4.5,0,0,0-.82-3.2,1.21,1.21,0,0,0-.34-.47l-.07-.07-.06-.07c-.07-.07-.21-.14-.28-.28s-.06,0-.13-.06l-.07-.07c-.07-.06-.2-.13-.27-.2a.27.27,0,0,0-.21-.07c-.07,0-.2-.14-.34-.2S284,71,284,71a2.83,2.83,0,0,1-.41-.14c-.21-.07-.07-.07-.14-.07s-.34-.06-.47-.06h-.07a1.79,1.79,0,0,0-.61-.07,2.08,2.08,0,0,0-.61.07h-.07a179.21,179.21,0,0,1-25.36,1.63v.47a181.8,181.8,0,0,0,25.43-1.63h.13a1.29,1.29,0,0,1,.55-.07h.47l.07.07a.83.83,0,0,1,.41.07l.2.07.34.07c0,.07.07.07.14.13a1.4,1.4,0,0,0,.34.13.22.22,0,0,0,.13.08.8.8,0,0,1,.28.2l.13.14a.8.8,0,0,1,.28.2l.06.07.07.07c.14.13.21.27.34.4a4.15,4.15,0,0,1,.68,2.86v.07c0,.06-.07.06-.07.13V76a2.83,2.83,0,0,1-.41,1.09v.06C281.86,84.27,273,101,276.56,103a2.88,2.88,0,0,0,1.36.27c5.3,0,19.85-8.16,22.7-9.8l.28-.2.2-.06a1.2,1.2,0,0,1,.34-.21,4.17,4.17,0,0,1,1.56-.27,3.78,3.78,0,0,1,2.25.68A4,4,0,0,1,307,96.78c0,.21-.07.34-.07.47v.07c-.4,2.59-.67,5.51-.95,8.7-.41,4.9-.54,10.47-.54,16,0,4.76.13,9.38.41,13.8.27,4,.61,7.61,1.08,10.81v.07a1.25,1.25,0,0,0,.07.47c0,.21-.07.41-.07.68l-.06.07a4,4,0,0,1-1.63,2.58,3.78,3.78,0,0,1-2.25.68h-.06a3.87,3.87,0,0,1-1.5-.27,2.27,2.27,0,0,1-.48-.27l-.34-.14c-2.85-1.7-17.4-9.85-22.7-9.85a2.66,2.66,0,0,0-1.36.27c-3.54,2,5.3,18.82,9.24,26V167a3.73,3.73,0,0,1,.55,2.11,4.55,4.55,0,0,1-.75,2.1c-.13.14-.2.28-.34.42l-.13.13a1.1,1.1,0,0,1-.28.2l-.13.14a.8.8,0,0,1-.28.2c-.07,0-.07.07-.13.07s-.2.13-.34.21-.07,0-.14.06a.48.48,0,0,0-.34.14h-.07c-.21.07-.34.07-.55.14h-1.08l-.07-.07a181.81,181.81,0,0,0-25.43-1.64v.48a178.82,178.82,0,0,1,25.43,1.64.16.16,0,0,1,.13.06h.57a3.15,3.15,0,0,0,.61-.06,1.08,1.08,0,0,0,.47-.07c.07,0,.07,0,.21-.07a.48.48,0,0,0,.34-.14c.07,0,.14-.06.2-.06a1.2,1.2,0,0,0,.34-.21c.07,0,.14-.07.21-.07s.2-.13.27-.21l.07-.06c.07,0,.07-.07.13-.07s.21-.2.28-.27l.06-.07.07-.07a3.07,3.07,0,0,0,.41-.47,4.66,4.66,0,0,0,.81-2.31,5,5,0,0,0-.61-2.45v-.07c-7.82-14.14-11.55-24.06-9.45-25.29a2.87,2.87,0,0,1,1.16-.2c4,0,14.27,5,22.43,9.79l.41.2c.14.07.34.14.47.21a4.74,4.74,0,0,0,1.71.34h.06a4.79,4.79,0,0,0,2.52-.75,4.45,4.45,0,0,0,1.82-3l.07-.07v-1.36Z" transform="translate(-64.95 -57.68)"/><path class="cls-4" d="M307.18,283.09c-.48-3.19-.82-6.86-1.09-10.81-.27-4.35-.41-9-.41-13.79,0-5.58.21-11,.61-16,.21-3.12.55-6,.89-8.63v-.07a1.24,1.24,0,0,0,.07-.54,4.27,4.27,0,0,0-1.84-3.54A4.4,4.4,0,0,0,303,229h0a4.17,4.17,0,0,0-1.56.27,1.06,1.06,0,0,0-.47.27h-.07c-.14.08-.21.14-.34.21-7.82,4.49-20.94,11.22-23.8,9.52-2.65-1.5,2.45-13.26,9.32-25.56v-.07a7.82,7.82,0,0,0,.47-1.16v-.33a4.46,4.46,0,0,0-.68-3.06h-.06c-.07-.14-.21-.28-.28-.42s-.13-.06-.13-.13a.57.57,0,0,1-.28-.27c-.06,0-.13-.07-.2-.13a.54.54,0,0,0-.27-.14c-.07-.07-.14-.14-.21-.14a.43.43,0,0,0-.26-.13c-.07-.07-.14-.07-.21-.14a.5.5,0,0,0-.34-.07.25.25,0,0,0-.2-.07,2.83,2.83,0,0,1-.41-.14h-1.23a.22.22,0,0,0-.13.08,181.36,181.36,0,0,1-25.4,1.61,182.09,182.09,0,0,1-25.35-1.63c0-.08-.07-.08-.14-.08h-1.15c-.14.08-.35.08-.48.14s-.07,0-.13.07l-.35.07c-.06.07-.13.07-.2.14s-.2.06-.34.13a.15.15,0,0,0-.13.14c-.14,0-.21.07-.34.14a.15.15,0,0,1-.14.13c-.07.13-.21.2-.27.27l-.14.13c-.13.14-.2.28-.34.42a4.6,4.6,0,0,0-.75,3.06v.06a.42.42,0,0,1,.07.27,4.46,4.46,0,0,0,.41,1.16c.07,0,.07,0,.07.07,6.79,12.3,12,24.06,9.31,25.56-2.86,1.7-15.77-4.9-23.59-9.39a3.06,3.06,0,0,1-.54-.34h-.07a2,2,0,0,0-.47-.27,4.19,4.19,0,0,0-1.57-.27h-.07a4.09,4.09,0,0,0-4.21,4v.89c.41,2.58.68,5.51,1,8.63.41,5,.61,10.4.61,16,0,4.75-.2,9.44-.47,13.79-.28,4-.61,7.62-1.09,10.81v1.3s.06,0,.07.05h0a4.1,4.1,0,0,0,1.76,2.72,3.85,3.85,0,0,0,2.38.75h.07a4.26,4.26,0,0,0,1.57-.34l.88-.41c7.75-4.49,20.87-11.21,23.79-9.58,2.65,1.56-2.52,13.32-9.31,25.63,0,.06-.07.06-.07.06a4.5,4.5,0,0,0-.48,2.31,3.8,3.8,0,0,0,.75,2.18,3.12,3.12,0,0,0,.34.47c.07,0,.07.07.14.07a.51.51,0,0,0,.27.27c.07.07.07.14.14.14a3.79,3.79,0,0,0,.34.2c0,.08.06.08.13.14a1.4,1.4,0,0,0,.34.13.27.27,0,0,1,.14.07.84.84,0,0,0,.41.14c.06,0,.06.07.13.07s.34.06.48.06h.07a1.41,1.41,0,0,0,.54.07.5.5,0,0,0,.34-.07H231a163.24,163.24,0,0,1,21.75-1.63h3.6a180.71,180.71,0,0,1,25.36,1.63h.2a1.3,1.3,0,0,0,.48.07h.12a1.08,1.08,0,0,0,.47-.07H283c.21,0,.34-.06.48-.06s.13-.07.2-.07a1.43,1.43,0,0,0,.34-.14c.07,0,.14-.07.21-.07a.43.43,0,0,0,.26-.13c.06-.07.14-.06.21-.14s.2-.13.27-.2.14-.07.2-.14l.28-.27a.21.21,0,0,1,.13-.07c.07-.13.21-.27.34-.47a4.39,4.39,0,0,0,.75-2.18,4,4,0,0,0-.54-2.31v-.06c-6.8-12.31-12-24.07-9.32-25.63,2.86-1.63,16,5.09,23.8,9.58.13.07.2.13.34.21a3.16,3.16,0,0,0,.54.2,4,4,0,0,0,1.56.34h.07a3.85,3.85,0,0,0,2.38-.75,4.18,4.18,0,0,0,1.77-2.72v-.06a2.58,2.58,0,0,0,.07-.68v-.07a1.12,1.12,0,0,0-.07-.48Zm-4.22.62c-5.1-3-25-14.14-30.25-9.18s7.34,26.92,9.59,30.79a201.68,201.68,0,0,0-52.07,0c2.17-3.87,14.48-26.64,9.58-30.79-5.44-4.69-25.15,6.18-30.25,9.18a203.67,203.67,0,0,0,0-50.44c5.1,2.92,24.81,13.86,30.25,9.17,4.9-4.14-7.41-26.91-9.58-30.86a172.59,172.59,0,0,0,26,1.7,172.59,172.59,0,0,0,26-1.7c-2.25,4-14.82,26-9.59,30.86s25.15-6.19,30.25-9.17a204.64,204.64,0,0,0,0,50.44Z" transform="translate(-64.95 -57.68)"/><path class="cls-2" d="M272.71,242.44c-5.23-4.89,7.34-26.92,9.59-30.86a172.59,172.59,0,0,1-26,1.7,172.59,172.59,0,0,1-26-1.7c2.17,3.94,14.48,26.72,9.58,30.86-5.44,4.69-25.15-6.25-30.25-9.17a203.67,203.67,0,0,1,0,50.44c5.1-3,24.81-13.87,30.25-9.18,4.9,4.14-7.41,26.92-9.58,30.79a199.92,199.92,0,0,1,52.07,0c-2.25-3.87-14.82-25.9-9.59-30.79s25.15,6.18,30.25,9.18a204.64,204.64,0,0,1,0-50.44c-5.1,3-25,14.07-30.25,9.17" transform="translate(-64.95 -57.68)"/><path class="cls-5" d="M256.26,303.9a179.38,179.38,0,0,0-26,1.69l-.47.07.2-.41c6.73-12.16,13.33-27.46,9.66-30.58a5.89,5.89,0,0,0-3.81-1.09c-7.82,0-22,7.88-26.17,10.33l-.41.21.07-.48a179.27,179.27,0,0,0,1.56-25.15,179.27,179.27,0,0,0-1.56-25.15l-.07-.55.41.27c4.14,2.45,18.35,10.27,26.17,10.27a5.54,5.54,0,0,0,3.81-1.09c3.67-3.13-2.93-18.35-9.66-30.52l-.2-.41.47.07a178,178,0,0,0,26,1.7v.47a183.56,183.56,0,0,1-25.56-1.63c2.86,5.3,14.14,26.58,9.25,30.73a6.39,6.39,0,0,1-4.08,1.16c-7.68,0-21.34-7.41-26-10.07a204.86,204.86,0,0,1,0,49.49c4.63-2.65,18.29-10.13,26-10.13a6,6,0,0,1,4.08,1.22c4.89,4.15-6.39,25.43-9.25,30.73a174.8,174.8,0,0,1,25.56-1.63Zm26.52,1.76-.48-.07a180.8,180.8,0,0,0-26-1.69v-.48A177.13,177.13,0,0,1,281.93,305c-3-5.17-14.47-25.83-9.31-30.73a5.81,5.81,0,0,1,4.14-1.29c7.68,0,21.28,7.48,26,10.2a205.88,205.88,0,0,1,0-49.49c-4.69,2.66-18.29,10.2-26,10.2a5.83,5.83,0,0,1-4.14-1.36c-5.16-4.82,6.32-25.49,9.31-30.66a186.21,186.21,0,0,1-25.63,1.63V213a179.38,179.38,0,0,0,26-1.7l.48-.07-.28.41c-1.49,2.65-14.75,25.7-9.58,30.52a5.2,5.2,0,0,0,3.8,1.22c7.75,0,22-7.95,26.17-10.4l.41-.2-.07.48a180.79,180.79,0,0,0-1.55,25.15,182.34,182.34,0,0,0,1.55,25.15l.07.48-.41-.21c-4.21-2.45-18.42-10.4-26.17-10.4a5.48,5.48,0,0,0-3.8,1.16c-5.17,4.89,8.09,27.93,9.58,30.58Z" transform="translate(-64.95 -57.68)"/><path class="cls-5" d="M305.55,229.53a4.73,4.73,0,0,0-2.45-.75H303a4.73,4.73,0,0,0-1.7.34,4.39,4.39,0,0,0-.47.27l-.41.2c-8.16,4.7-18.42,9.79-22.43,9.79a1.89,1.89,0,0,1-1.16-.27c-2.1-1.22,1.63-11.14,9.45-25.21v-.14a3.48,3.48,0,0,0,.48-1.16v-.34c.07,0,.07,0,.07-.06A4.65,4.65,0,0,0,286,209a1.9,1.9,0,0,0-.34-.41c0-.07-.07-.07-.07-.14h-.07a1.15,1.15,0,0,0-.27-.27l-.13-.13H285c-.07-.07-.2-.14-.27-.21a.36.36,0,0,0-.21-.13c-.14-.07-.2-.14-.34-.2a.22.22,0,0,1-.2-.08c-.07-.07-.21-.07-.41-.13s-.07,0-.14-.07-.34-.06-.47-.06h-.07a1.79,1.79,0,0,0-.61-.07c-.21,0-.34.07-.61.07h-.07a170.74,170.74,0,0,1-25.36,1.63A170.49,170.49,0,0,1,231,207.17h-.14c-.2,0-.4-.07-.61-.07a1.24,1.24,0,0,0-.54.07h-.07c-.21,0-.34.06-.55.06,0,.07-.07.07-.13.07a1.23,1.23,0,0,0-.41.13c-.13.07-.07.08-.2.08a2.33,2.33,0,0,1-.34.2l-.14.13c-.14.07-.21.14-.34.21h-.09c0,.07-.07.07-.07.13a.59.59,0,0,0-.27.27H227l-.14.14a2.25,2.25,0,0,1-.34.41,4.55,4.55,0,0,0-.75,3.2v.19a.27.27,0,0,0,.07.21,3.22,3.22,0,0,0,.41,1.16l.06.14c7.82,14.07,11.49,24,9.38,25.21a1.79,1.79,0,0,1-1.15.27c-3.94,0-14.07-5-22.23-9.65l-.61-.41a2.55,2.55,0,0,0-.48-.2,4.14,4.14,0,0,0-1.63-.34h-.06a4.79,4.79,0,0,0-2.52.75,4.59,4.59,0,0,0-2,3.67v.13a1.69,1.69,0,0,0,.06.55v.1c.35,2.52.69,5.44.89,8.57.41,5,.61,10.47.61,16,0,4.75-.13,9.38-.41,13.79-.27,4-.61,7.62-1.09,10.75v.06a2.14,2.14,0,0,0-.06.62,2.5,2.5,0,0,0,.06.67v.14a4.65,4.65,0,0,0,1.91,2.86,4.19,4.19,0,0,0,2.52.74h.06a4.29,4.29,0,0,0,1.63-.26,1.91,1.91,0,0,1,.55-.28h.07l.27-.2c8.22-4.76,18.42-9.8,22.43-9.8a2.53,2.53,0,0,1,1.15.21c2.11,1.22-1.56,11.22-9.38,25.36h-.06a4.33,4.33,0,0,0-.55,2.44,5.33,5.33,0,0,0,.82,2.38,2.25,2.25,0,0,1,.34.41c.07,0,.07.06.14.06v.08c.13.06.2.2.33.27l.07.07.07.06a2.39,2.39,0,0,0,.34.21c.07.07.14.07.14.13s.27.07.4.2h.14a4,4,0,0,0,.47.21H229c.21.07.34.07.62.14h1.29a160.43,160.43,0,0,1,21.68-1.63c1.22-.07,2.38-.07,3.6-.07a170.31,170.31,0,0,1,25.43,1.7h1.29c.13-.07.34-.07.47-.14s.07,0,.21-.07a.48.48,0,0,0,.34-.14.24.24,0,0,0,.2-.06c.14-.07.27-.07.34-.14s.14-.06.21-.13.2-.13.27-.21l.07-.06c.07,0,.07-.07.13-.07l.27-.27.07-.08.07-.06A3,3,0,0,0,286,308a4.66,4.66,0,0,0,.81-2.31,5,5,0,0,0-.61-2.44c-7.77-14.23-11.5-24.23-9.4-25.42a2.88,2.88,0,0,1,1.16-.21c4,0,14.27,5,22.43,9.8l.41.2a1.5,1.5,0,0,1,.47.28,5.16,5.16,0,0,0,1.7.26v.07l.07-.07a4.19,4.19,0,0,0,2.52-.74,4.48,4.48,0,0,0,1.83-2.86l.07-.14V283c-.48-3.13-.82-6.73-1.09-10.75-.27-4.41-.47-9-.47-13.79,0-5.51.2-11,.61-16,.27-3.13.54-6,.95-8.57v-.67a4.52,4.52,0,0,0-1.9-3.74m1.42,4.28v.07c-.4,2.52-.67,5.44-1,8.63-.41,5-.54,10.47-.54,16,0,4.75.13,9.38.41,13.79.27,4,.61,7.69,1.08,10.81v.07a1.12,1.12,0,0,0,.07.48v.07c0,.2-.07.41-.07.6l-.06.14a3.72,3.72,0,0,1-1.63,2.51,3.88,3.88,0,0,1-2.25.76h0a5.94,5.94,0,0,1-1.5-.34c-.13-.07-.33-.14-.47-.21l-.34-.21c-2.86-1.63-17.4-9.85-22.7-9.85a2.66,2.66,0,0,0-1.36.27c-3.54,2,5.3,18.83,9.24,26v.07a3.73,3.73,0,0,1,.55,2.11,4.3,4.3,0,0,1-.75,2.1c-.14.21-.21.34-.34.41l-.13.14c-.07.06-.14.2-.28.26l-.13.08a1.1,1.1,0,0,1-.28.2l-.13.14c-.14,0-.2.06-.34.14s-.07.06-.14.06a.73.73,0,0,0-.34.14h-.1a1.77,1.77,0,0,1-.55.13h-1.15a170.31,170.31,0,0,0-25.43-1.7c-1.22,0-2.38.07-3.6.07a164.28,164.28,0,0,0-21.82,1.63h-1.15a1.32,1.32,0,0,1-.48-.13h-.14c-.13-.07-.27-.07-.34-.14l-.2-.06c-.07-.08-.2-.08-.27-.14s-.14-.07-.21-.14a.6.6,0,0,0-.27-.2l-.14-.08c-.06-.06-.13-.2-.27-.26l-.06-.07v-.07c-.14-.14-.27-.2-.34-.41a4,4,0,0,1-.28-4.21l.07-.07c4-7.14,12.71-23.93,9.25-26a3,3,0,0,0-1.43-.27c-5.3,0-19.78,8.22-22.64,9.85l-.4.21a5,5,0,0,1-.48.21,4.74,4.74,0,0,1-1.43.34h-.06a4.24,4.24,0,0,1-3.95-3.27v-.14a1.89,1.89,0,0,1-.07-.67,1.12,1.12,0,0,1,.07-.48v-.07c.41-3.12.82-6.79,1.09-10.81q.41-6.61.41-13.79c0-5.51-.21-11-.61-16-.21-3.19-.55-6.11-.89-8.63v-.07a1.3,1.3,0,0,1-.07-.48v-.06a4,4,0,0,1,1.74-3.27,4.36,4.36,0,0,1,2.25-.68h.06a4.05,4.05,0,0,1,1.5.34,1.43,1.43,0,0,1,.34.14l.13.07.55.34c8.15,4.69,18.35,9.72,22.43,9.72a2.75,2.75,0,0,0,1.43-.34c3.46-2-5.3-18.76-9.25-25.9l-.07-.07c-.13-.34-.27-.68-.4-1.09v-.34a3.85,3.85,0,0,1,.61-2.78l.07-.07c.07-.13.2-.27.27-.41s.07,0,.13-.06l.27-.28.14-.14c.14-.06.21-.13.27-.13a.36.36,0,0,1,.21-.13.48.48,0,0,1,.34-.14c0-.07.06-.07.13-.07a.48.48,0,0,1,.34-.14l.14-.06c.13,0,.27-.07.48-.07h.07a1.08,1.08,0,0,1,.47-.07c.21,0,.34.07.54.07H231a170.6,170.6,0,0,0,25.35,1.63,173,173,0,0,0,25.43-1.63h.13c.14,0,.34-.07.55-.07a1.08,1.08,0,0,1,.47.07H283c.14,0,.27.07.41.07l.2.06a1,1,0,0,1,.34.14.27.27,0,0,1,.14.07c.14,0,.2.07.34.14a.16.16,0,0,0,.13.06,1.1,1.1,0,0,1,.28.2l.13.14a.63.63,0,0,1,.28.28h.06c0,.06.07.06.07.06a4.35,4.35,0,0,0,.34.41,4.11,4.11,0,0,1,.68,2.85v.08a.21.21,0,0,1-.07.13v.13a2.83,2.83,0,0,1-.41,1.09v.07c-3.94,7.14-12.78,23.86-9.24,25.9a2.57,2.57,0,0,0,1.36.34c5.3,0,19.84-8.23,22.7-9.86l.28-.2.2-.07a1.38,1.38,0,0,1,.33-.2,5.1,5.1,0,0,1,1.5-.28h0a4.49,4.49,0,0,1,2.25.68A4.07,4.07,0,0,1,307,233.3c0,.15-.07.28-.07.49Z" transform="translate(-64.95 -57.68)"/></g></svg>