<svg width="630" height="264" viewBox="0 0 630 264" fill="none" xmlns="http://www.w3.org/2000/svg">
<g clip-path="url(#clip0_1913_103591)">
<g opacity="0.5">
<path opacity="0.5" d="M589.324 157.484H479.515C475.183 157.484 471.671 153.972 471.671 149.64C471.671 145.309 475.183 141.797 479.515 141.797H589.324C593.655 141.797 597.167 145.309 597.167 149.64C597.167 153.972 593.655 157.484 589.324 157.484Z" fill="white"/>
</g>
<g opacity="0.5">
<path opacity="0.5" d="M589.324 47.687H479.515C475.183 47.687 471.671 44.1749 471.671 39.8433C471.671 35.5118 475.183 32 479.515 32H589.324C593.655 32 597.167 35.5118 597.167 39.8433C597.167 44.1749 593.655 47.687 589.324 47.687Z" fill="white"/>
</g>
<g opacity="0.5">
<path opacity="0.5" d="M542.263 102.605H479.515C475.183 102.605 471.671 99.093 471.671 94.7613C471.671 90.4298 475.183 86.918 479.515 86.918H542.263C546.594 86.918 550.107 90.4298 550.107 94.7613C550.107 99.093 546.594 102.605 542.263 102.605Z" fill="white"/>
</g>
<g opacity="0.5">
<path opacity="0.5" d="M259.885 157.496C255.553 157.496 252.041 153.984 252.041 149.653V39.8437C252.041 35.5121 255.553 32 259.885 32C264.216 32 267.728 35.5121 267.728 39.8437V149.653C267.728 153.984 264.216 157.496 259.885 157.496Z" fill="white"/>
</g>
<path d="M157.926 32H63.8036C46.5478 32 32.4297 46.1182 32.4297 63.3739V126.122C32.4297 143.378 46.5478 157.496 63.8036 157.496H157.926C175.182 157.496 189.3 143.378 189.3 126.122V63.3739C189.3 46.1182 175.182 32 157.926 32ZM157.926 47.687C166.576 47.687 173.613 54.724 173.613 63.3739V126.122C173.613 134.772 166.576 141.809 157.926 141.809H63.8036C55.1537 141.809 48.1167 134.772 48.1167 126.122V63.3739C48.1167 54.724 55.1537 47.687 63.8036 47.687H157.926Z" fill="white"/>
<path d="M388.534 142.471L279.462 94.7514L388.534 47.0324C392.503 45.2966 394.313 40.6719 392.576 36.7031C390.84 32.7326 386.211 30.9218 382.247 32.6612L256.751 87.5658C256.597 87.6329 256.469 87.7317 256.321 87.8074C256.051 87.9463 255.781 88.0839 255.528 88.2541C255.328 88.3881 255.151 88.5412 254.967 88.6908C254.757 88.8607 254.549 89.0269 254.356 89.2192C254.172 89.4032 254.014 89.604 253.85 89.8041C253.693 89.9963 253.533 90.1829 253.393 90.3921C253.23 90.6355 253.099 90.8935 252.965 91.1525C252.884 91.3082 252.78 91.4446 252.709 91.6077C252.689 91.6539 252.683 91.7019 252.663 91.7481C252.549 92.0238 252.472 92.3109 252.389 92.5984C252.329 92.8105 252.251 93.0198 252.208 93.2337C252.157 93.4935 252.145 93.7586 252.12 94.0233C252.097 94.2667 252.058 94.5091 252.058 94.7514C252.058 94.9937 252.097 95.2361 252.12 95.4795C252.145 95.7442 252.157 96.0093 252.208 96.269C252.251 96.4826 252.329 96.6919 252.389 96.9043C252.472 97.1918 252.549 97.4789 252.663 97.7547C252.683 97.8009 252.689 97.8488 252.709 97.895C252.871 98.2653 253.058 98.6167 253.267 98.948C253.274 98.958 253.283 98.9667 253.289 98.9767C253.532 99.358 253.811 99.7047 254.109 100.031C254.198 100.128 254.294 100.217 254.387 100.311C254.639 100.559 254.903 100.788 255.183 100.999C255.283 101.074 255.378 101.152 255.483 101.223C255.873 101.489 256.281 101.723 256.711 101.914C256.725 101.921 256.736 101.931 256.751 101.937L382.247 156.841C383.271 157.289 384.337 157.502 385.387 157.502C388.407 157.502 391.288 155.745 392.576 152.799C394.313 148.831 392.503 144.206 388.534 142.471Z" fill="white"/>
<path d="M479.515 157.496C475.183 157.496 471.671 153.984 471.671 149.653V39.8437C471.671 35.5121 475.183 32 479.515 32C483.847 32 487.359 35.5121 487.359 39.8437V149.653C487.359 153.984 483.847 157.496 479.515 157.496Z" fill="white"/>
<path d="M110.183 226.089H139.6V198.644H110.183V226.089ZM103.529 202.12C103.529 198.538 104.138 196.094 105.355 194.784C106.571 193.476 108.845 192.82 112.172 192.82H137.61C140.937 192.82 143.21 193.476 144.427 194.784C145.646 196.094 146.253 198.538 146.253 202.12V222.748C146.253 226.33 145.651 228.766 144.447 230.06C143.244 231.356 140.964 232.001 137.61 232.001H112.172C108.791 232.001 106.504 231.363 105.314 230.083C104.123 228.804 103.529 226.36 103.529 222.748V202.12Z" fill="white"/>
<path d="M178.976 231.966V198.842C178.976 196.498 179.887 192.785 185.411 192.785H214.034V198.608H185.631V210.707H201.658V216.438H185.631V231.966H178.976Z" fill="white"/>
<path d="M269.998 198.644V232.002H263.384V198.644H246.75V192.82H286.714V198.644H269.998Z" fill="white"/>
<path d="M333.089 232.001L319.455 192.82H326.353L336.092 222.748L346.478 192.82H350.86L361.005 222.748L370.742 192.82H376.706L363.236 232.001H358.366L348.467 202.798L338.078 232.001H333.089Z" fill="white"/>
<path d="M423.372 217.196H442.077L432.704 198.554L423.372 217.196ZM409.414 232.001L429.783 192.82H435.869L456.724 232.001H449.501L444.917 222.839H420.573L416.067 232.001H409.414Z" fill="white"/>
<path d="M514.862 198.554H496.116V211.194H514.862C516.348 211.194 517.35 210.922 517.865 210.38C518.379 209.838 518.637 208.785 518.637 207.22V202.526C518.637 201.082 518.365 200.058 517.824 199.457C517.282 198.855 516.295 198.554 514.862 198.554ZM489.461 232.001V192.82H517.783C520.407 192.82 522.292 193.415 523.443 194.603C524.593 195.793 525.167 197.727 525.167 200.404V209.162C525.167 211.809 524.593 213.72 523.443 214.893C522.292 216.068 520.407 216.654 517.783 216.654H513.117L528.656 232.001H519.77L505.733 216.654H496.116V232.001H489.461Z" fill="white"/>
<path d="M561.372 226.178V198.644C561.372 196.506 562.721 192.82 567.745 192.82H597.16V198.644H568.025V208.71H585.393V214.534H568.025V226.27H597.16V232.002H568.36C566.069 232.002 561.372 230.209 561.372 226.178Z" fill="white"/>
<path d="M68.9971 210.719C67.7922 209.44 65.5411 208.8 62.2408 208.8H39.6428V198.644H70.1778C69.9057 196.907 69.373 195.572 68.5298 194.716C67.2862 193.453 65.0266 192.82 61.755 192.82H42.1579C38.8306 192.82 36.5728 193.476 35.3813 194.784C34.1913 196.094 33.5972 198.538 33.5972 202.12V205.822C33.5972 209.433 34.1913 211.877 35.3813 213.156C36.5728 214.436 38.8306 215.074 42.1579 215.074H64.8386V226.089H44.0501H38.2617H32.4292C32.7042 227.89 33.2038 229.256 33.9817 230.083C35.1848 231.363 37.4629 232.002 40.8172 232.002H62.2408C65.5951 232.002 67.8614 231.363 69.0376 230.083C70.2141 228.804 70.8029 226.36 70.8029 222.749V218.055C70.8029 214.444 70.2006 211.998 68.9971 210.719Z" fill="white"/>
<g opacity="0.5">
<path opacity="0.5" d="M589.324 157.484H479.515C475.183 157.484 471.671 153.972 471.671 149.64C471.671 145.309 475.183 141.797 479.515 141.797H589.324C593.655 141.797 597.167 145.309 597.167 149.64C597.167 153.972 593.655 157.484 589.324 157.484Z" fill="white"/>
</g>
<g opacity="0.5">
<path opacity="0.5" d="M589.324 47.687H479.515C475.183 47.687 471.671 44.1749 471.671 39.8433C471.671 35.5118 475.183 32 479.515 32H589.324C593.655 32 597.167 35.5118 597.167 39.8433C597.167 44.1749 593.655 47.687 589.324 47.687Z" fill="white"/>
</g>
<g opacity="0.5">
<path opacity="0.5" d="M542.263 102.605H479.515C475.183 102.605 471.671 99.093 471.671 94.7613C471.671 90.4298 475.183 86.918 479.515 86.918H542.263C546.594 86.918 550.107 90.4298 550.107 94.7613C550.107 99.093 546.594 102.605 542.263 102.605Z" fill="white"/>
</g>
<g opacity="0.5">
<path opacity="0.5" d="M259.885 157.496C255.553 157.496 252.041 153.984 252.041 149.653V39.8437C252.041 35.5121 255.553 32 259.885 32C264.216 32 267.728 35.5121 267.728 39.8437V149.653C267.728 153.984 264.216 157.496 259.885 157.496Z" fill="white"/>
</g>
<path d="M157.926 32H63.8036C46.5478 32 32.4297 46.1182 32.4297 63.3739V126.122C32.4297 143.378 46.5478 157.496 63.8036 157.496H157.926C175.182 157.496 189.3 143.378 189.3 126.122V63.3739C189.3 46.1182 175.182 32 157.926 32ZM157.926 47.687C166.576 47.687 173.613 54.724 173.613 63.3739V126.122C173.613 134.772 166.576 141.809 157.926 141.809H63.8036C55.1537 141.809 48.1167 134.772 48.1167 126.122V63.3739C48.1167 54.724 55.1537 47.687 63.8036 47.687H157.926Z" fill="white"/>
<path d="M388.534 142.471L279.462 94.7514L388.534 47.0324C392.503 45.2966 394.313 40.6719 392.576 36.7031C390.84 32.7326 386.211 30.9218 382.247 32.6612L256.751 87.5658C256.597 87.6329 256.469 87.7317 256.321 87.8074C256.051 87.9463 255.781 88.0839 255.528 88.2541C255.328 88.3881 255.151 88.5412 254.967 88.6908C254.757 88.8607 254.549 89.0269 254.356 89.2192C254.172 89.4032 254.014 89.604 253.85 89.8041C253.693 89.9963 253.533 90.1829 253.393 90.3921C253.23 90.6355 253.099 90.8935 252.965 91.1525C252.884 91.3082 252.78 91.4446 252.709 91.6077C252.689 91.6539 252.683 91.7019 252.663 91.7481C252.549 92.0238 252.472 92.3109 252.389 92.5984C252.329 92.8105 252.251 93.0198 252.208 93.2337C252.157 93.4935 252.145 93.7586 252.12 94.0233C252.097 94.2667 252.058 94.5091 252.058 94.7514C252.058 94.9937 252.097 95.2361 252.12 95.4795C252.145 95.7442 252.157 96.0093 252.208 96.269C252.251 96.4826 252.329 96.6919 252.389 96.9043C252.472 97.1918 252.549 97.4789 252.663 97.7547C252.683 97.8009 252.689 97.8488 252.709 97.895C252.871 98.2653 253.058 98.6167 253.267 98.948C253.274 98.958 253.283 98.9667 253.289 98.9767C253.532 99.358 253.811 99.7047 254.109 100.031C254.198 100.128 254.294 100.217 254.387 100.311C254.639 100.559 254.903 100.788 255.183 100.999C255.283 101.074 255.378 101.152 255.483 101.223C255.873 101.489 256.281 101.723 256.711 101.914C256.725 101.921 256.736 101.931 256.751 101.937L382.247 156.841C383.271 157.289 384.337 157.502 385.387 157.502C388.407 157.502 391.288 155.745 392.576 152.799C394.313 148.831 392.503 144.206 388.534 142.471Z" fill="white"/>
<path d="M479.515 157.496C475.183 157.496 471.671 153.984 471.671 149.653V39.8437C471.671 35.5121 475.183 32 479.515 32C483.847 32 487.359 35.5121 487.359 39.8437V149.653C487.359 153.984 483.847 157.496 479.515 157.496Z" fill="white"/>
<path d="M110.183 226.089H139.6V198.644H110.183V226.089ZM103.529 202.12C103.529 198.538 104.138 196.094 105.355 194.784C106.571 193.476 108.845 192.82 112.172 192.82H137.61C140.937 192.82 143.21 193.476 144.427 194.784C145.646 196.094 146.253 198.538 146.253 202.12V222.748C146.253 226.33 145.651 228.766 144.447 230.06C143.244 231.356 140.964 232.001 137.61 232.001H112.172C108.791 232.001 106.504 231.363 105.314 230.083C104.123 228.804 103.529 226.36 103.529 222.748V202.12Z" fill="white"/>
<path d="M178.976 231.966V198.842C178.976 196.498 179.887 192.785 185.411 192.785H214.034V198.608H185.631V210.707H201.658V216.438H185.631V231.966H178.976Z" fill="white"/>
<path d="M269.998 198.644V232.002H263.384V198.644H246.75V192.82H286.714V198.644H269.998Z" fill="white"/>
<path d="M333.089 232.001L319.455 192.82H326.353L336.092 222.748L346.478 192.82H350.86L361.005 222.748L370.742 192.82H376.706L363.236 232.001H358.366L348.467 202.798L338.078 232.001H333.089Z" fill="white"/>
<path d="M423.372 217.196H442.077L432.704 198.554L423.372 217.196ZM409.414 232.001L429.783 192.82H435.869L456.724 232.001H449.501L444.917 222.839H420.573L416.067 232.001H409.414Z" fill="white"/>
<path d="M514.862 198.554H496.116V211.194H514.862C516.348 211.194 517.35 210.922 517.865 210.38C518.379 209.838 518.637 208.785 518.637 207.22V202.526C518.637 201.082 518.365 200.058 517.824 199.457C517.282 198.855 516.295 198.554 514.862 198.554ZM489.461 232.001V192.82H517.783C520.407 192.82 522.292 193.415 523.443 194.603C524.593 195.793 525.167 197.727 525.167 200.404V209.162C525.167 211.809 524.593 213.72 523.443 214.893C522.292 216.068 520.407 216.654 517.783 216.654H513.117L528.656 232.001H519.77L505.733 216.654H496.116V232.001H489.461Z" fill="white"/>
<path d="M561.372 226.178V198.644C561.372 196.506 562.721 192.82 567.745 192.82H597.16V198.644H568.025V208.71H585.393V214.534H568.025V226.27H597.16V232.002H568.36C566.069 232.002 561.372 230.209 561.372 226.178Z" fill="white"/>
<path d="M68.9971 210.719C67.7922 209.44 65.5411 208.8 62.2408 208.8H39.6428V198.644H70.1778C69.9057 196.907 69.373 195.572 68.5298 194.716C67.2862 193.453 65.0266 192.82 61.755 192.82H42.1579C38.8306 192.82 36.5728 193.476 35.3813 194.784C34.1913 196.094 33.5972 198.538 33.5972 202.12V205.822C33.5972 209.433 34.1913 211.877 35.3813 213.156C36.5728 214.436 38.8306 215.074 42.1579 215.074H64.8386V226.089H44.0501H38.2617H32.4292C32.7042 227.89 33.2038 229.256 33.9817 230.083C35.1848 231.363 37.4629 232.002 40.8172 232.002H62.2408C65.5951 232.002 67.8614 231.363 69.0376 230.083C70.2141 228.804 70.8029 226.36 70.8029 222.749V218.055C70.8029 214.444 70.2006 211.998 68.9971 210.719Z" fill="white"/>
</g>
<defs>
<clipPath id="clip0_1913_103591">
<rect width="565.333" height="200" fill="white" transform="translate(32 32)"/>
</clipPath>
</defs>
</svg>
