<?xml version="1.0" encoding="UTF-8"?>
<!DOCTYPE svg PUBLIC "-//W3C//DTD SVG 1.0//EN" "http://www.w3.org/TR/2001/REC-SVG-20010904/DTD/svg10.dtd">
<!-- Creator: CorelDRAW 2018 (64-Bit Evaluation Version) -->
<svg xmlns="http://www.w3.org/2000/svg" xml:space="preserve" width="2268px" height="531px" version="1.0" style="shape-rendering:geometricPrecision; text-rendering:geometricPrecision; image-rendering:optimizeQuality; fill-rule:evenodd; clip-rule:evenodd"
viewBox="0 0 2236.54 523.53"
 xmlns:xlink="http://www.w3.org/1999/xlink">
 <defs>
  <style type="text/css">
   <![CDATA[
    .fil0 {fill:#FFFFFF}
    .fil1 {fill:#FFFFFF;fill-rule:nonzero}
   ]]>
  </style>
 </defs>
 <g id="Warstwa_x0020_1">
  <metadata id="CorelCorpID_0Corel-Layer"/>
  <path class="fil0" d="M763.67 260.43c27.37,0 50.63,9.58 69.79,28.74 19.16,19.16 28.74,42.42 28.74,69.8 0,27.36 -9.58,50.63 -28.74,69.79 -19.16,19.16 -42.42,28.74 -69.79,28.74 -27.37,0 -50.64,-9.58 -69.8,-28.74 -19.16,-19.16 -28.74,-42.43 -28.74,-69.79 0,-27.38 9.58,-50.64 28.74,-69.8 19.16,-19.16 42.43,-28.74 69.8,-28.74zm0 25.32c-20.3,0 -37.58,7.13 -51.84,21.38 -14.25,14.26 -21.38,31.54 -21.38,51.84 0,20.29 7.13,37.57 21.38,51.83 14.26,14.25 31.54,21.38 51.84,21.38 20.3,0 37.57,-7.13 51.83,-21.38 14.25,-14.26 21.38,-31.54 21.38,-51.83 0,-20.3 -7.13,-37.58 -21.38,-51.84 -14.26,-14.25 -31.53,-21.38 -51.83,-21.38zm134.45 231.62l0 -253.18 23.61 0 0 33.53c8.27,-12.09 18.65,-21.38 31.25,-27.88 12.6,-6.5 26.12,-9.75 40.54,-9.75 26.8,0 50.24,8.55 70.42,25.66 21.5,18.25 32.28,40.94 32.28,68.08 0,29.88 -9.58,54.4 -28.74,73.56 -19.16,19.16 -42.77,28.74 -70.82,28.74 -16.65,0 -31.48,-3.48 -44.48,-10.44 -13,-6.95 -22.46,-16.82 -28.4,-29.59l0 101.27 -25.66 0zm23.61 -157.72c0,18.02 5.7,33.76 17.11,47.21 13.91,16.65 33.3,24.98 58.16,24.98 19.61,0 36.67,-7.01 51.15,-21.04 14.48,-14.03 21.72,-31.42 21.72,-52.18 0,-20.07 -7.13,-37.35 -21.38,-51.83 -14.25,-14.48 -32.22,-21.73 -53.89,-21.73 -21.66,0 -39.45,7.76 -53.37,23.27 -13,14.37 -19.5,31.48 -19.5,51.32zm201.86 -2.4c0,-29.19 10.26,-53.03 30.79,-71.5 18.93,-17.11 40.94,-25.66 66.03,-25.66 25.09,0 46.99,8.44 65.69,25.32 21.21,19.16 31.82,44.82 31.82,76.98l0 4.78 -169.01 0c0,20.08 8.21,36.38 24.63,48.93 13.91,10.49 29.31,15.74 46.18,15.74 14.15,0 27.78,-3.94 40.89,-11.81 13.12,-7.87 21.84,-17.73 26.17,-29.59l26.01 0c-7.99,21.44 -21.22,38.09 -39.69,49.95 -16.42,10.49 -34.67,15.74 -54.74,15.74 -25.32,0 -47.22,-9.01 -65.69,-27.03 -19.39,-18.93 -29.08,-42.88 -29.08,-71.85zm169.69 -12.66c-3.19,-16.64 -11.29,-30.67 -24.29,-42.08 -13.91,-12.08 -29.88,-18.13 -47.9,-18.13 -17.79,0 -33.07,5.25 -45.84,15.74 -15.74,13 -24.52,27.83 -26.34,44.47l144.37 0zm52.69 13.35c0,-28.97 10.04,-52.92 30.11,-71.85 18.47,-17.33 39.34,-26 62.61,-26 17.11,0 32.79,3.76 47.04,11.29 14.26,7.53 24.47,17.68 30.62,30.45l0 -37.64 23.95 0 0 171.75c0,27.83 -9.35,49.73 -28.05,65.69 -17.11,14.6 -38.43,21.9 -63.98,21.9 -22.35,0 -42.08,-5.59 -59.19,-16.77 -18.7,-12.31 -30.79,-29.19 -36.27,-50.63l24.64 0c5.93,14.37 15.28,25.32 28.05,32.84 12.78,7.53 26.58,11.29 41.4,11.29 19.16,0 35.24,-5.58 48.24,-16.76 14.14,-12.09 21.21,-28.17 21.21,-48.24l0 -20.53c-14.82,27.6 -39.11,41.4 -72.87,41.4 -25.32,0 -47.33,-8.33 -66.03,-24.98 -20.99,-18.7 -31.48,-43.1 -31.48,-73.21zm25.32 -4.79c0,23.49 7.07,42.65 21.21,57.48 13.46,14.14 30.22,21.21 50.29,21.21 17.11,0 32.74,-5.7 46.88,-17.11 17.79,-14.37 26.68,-34.21 26.68,-59.53 0,-18.02 -7.47,-34.21 -22.41,-48.58 -14.94,-14.37 -32.67,-21.56 -53.2,-21.56 -19.84,0 -35.81,6.16 -47.9,18.48 -14.37,14.6 -21.55,31.13 -21.55,49.61zm212.12 98.87l0 -187.14 25.32 0 0 187.14 -25.32 0zm0 -209.72l0 -43.45 25.32 0 0 43.45 -25.32 0zm61.24 114.95c0,-29.19 10.27,-53.03 30.79,-71.5 18.93,-17.11 40.95,-25.66 66.03,-25.66 25.09,0 46.99,8.44 65.69,25.32 21.22,19.16 31.82,44.82 31.82,76.98l0 4.78 -169.01 0c0,20.08 8.21,36.38 24.63,48.93 13.92,10.49 29.31,15.74 46.19,15.74 14.14,0 27.77,-3.94 40.89,-11.81 13.11,-7.87 21.83,-17.73 26.17,-29.59l26 0c-7.98,21.44 -21.21,38.09 -39.69,49.95 -16.42,10.49 -34.67,15.74 -54.74,15.74 -25.32,0 -47.21,-9.01 -65.69,-27.03 -19.38,-18.93 -29.08,-42.88 -29.08,-71.85zm169.7 -12.66c-3.2,-16.64 -11.29,-30.67 -24.29,-42.08 -13.92,-12.08 -29.88,-18.13 -47.9,-18.13 -17.79,0 -33.07,5.25 -45.85,15.74 -15.73,13 -24.52,27.83 -26.34,44.47l144.38 0zm59.53 107.43l0 -253.17 25.32 0 0 177.56 86.21 -111.53 31.82 0 -72.13 93.8 77.61 93.34 -32.96 0.06 -60.45 -74.3 -30.28 38.55 0.18 35.69 -25.32 0zm164.22 -92.37c0,-29.42 10.61,-53.72 31.82,-72.88 19.61,-17.78 42.42,-26.68 68.42,-26.68 15.29,0 28.97,3.08 41.06,9.24 13.69,7.07 24.52,17.67 32.5,31.81l0 -36.26 24.64 0 0 187.14 -24.64 0 0 -35.58c-7.07,12.77 -17.16,22.58 -30.28,29.43 -13.11,6.84 -28.22,10.26 -45.33,10.26 -26.46,0 -49.15,-8.67 -68.08,-26 -20.07,-18.48 -30.11,-41.97 -30.11,-70.48zm26 -5.82c0,23.27 7.42,42.31 22.24,57.14 13.91,13.91 30.56,20.87 49.95,20.87 21.67,0 39.69,-7.3 54.06,-21.9 14.37,-14.6 21.55,-31.36 21.55,-50.29 0,-20.53 -6.95,-38.09 -20.87,-52.69 -13.91,-14.6 -31.02,-21.9 -51.32,-21.9 -21.44,0 -39.8,7.87 -55.08,23.61 -13.69,14.14 -20.53,29.2 -20.53,45.16z"/>
  <path class="fil1" d="M271.47 301.3l61.1 0 5.59 0 0 5.59 0 58.19 0 23.68 0 51.35 0 5.59 -5.59 0 -61.1 0 -5.59 0 0 -5.59 0 -24.28 0 -18.44 0 -90.5 0 -5.59 5.59 0zm55.51 11.18l-49.92 0 0 84.91 0 18.44 0 18.69 49.92 0 0 -45.76 0 -23.68 0 -52.6z"/>
  <path class="fil0" d="M303.67 198.71c23.81,0 43.23,19.41 43.23,43.22 0,23.81 -19.42,43.22 -43.23,43.22 -23.8,0 -43.22,-19.41 -43.22,-43.22 0,-23.81 19.42,-43.22 43.22,-43.22z"/>
  <path class="fil0" d="M636.94 0.14c-15.64,-0.54 -32.83,0.54 -50.11,2.41 -116.01,12.5 -255.68,52.33 -371.05,121.42 -123.32,73.86 -209.5,167.4 -215.56,250.22 -5.9,80.48 109.81,95.19 202.88,65.94 21.63,-6.8 44.69,-14.86 68.37,-24.3l0 -18.44c-17.08,7.23 -33.85,12.8 -49.78,16.53 -79.4,18.6 -125.92,12.01 -142.09,-16.42 -13.4,-23.56 -6.49,-62.12 24.59,-113.76 40.85,-67.87 99.01,-124.16 183.44,-171.6 110.84,-62.29 228.79,-98.83 349.31,-112zm-304.37 388.62c67.04,-32.97 133.59,-77.45 182.45,-136.3 60.55,-72.92 46.63,-123.25 -22.82,-126.8 -63.46,-3.24 -119.97,25.85 -165.68,62.56 69.25,-36.08 138.46,-58.51 152.15,-5.92 1.73,6.64 2.28,11.21 1.9,15.95 -0.46,5.91 -2.3,11.94 -5.87,18.6 -32.76,61.12 -86.01,112.5 -142.13,148.23l0 23.68z"/>
 </g>
</svg>
