<svg id="logo" xmlns="http://www.w3.org/2000/svg" viewBox="0 0 3881.01 1004.05">
    <defs>
        <style>.cls-1{fill:#fff;}.cls-2{fill:#d51317;}.cls-2,.cls-3{fill-rule:evenodd;}.cls-3{fill:#fff;}</style>
    </defs>
    <g id="logo-2">
        <path id="portEl.pl" class="cls-1"
              d="M3920.72,120.58v656c0,31,2.38,51.4,6.8,61.53A47.61,47.61,0,0,0,3948.35,861c9.39,5.14,26.72,7.91,52.33,7.91v19.36h-242.3V868.87c22.65,0,38.12-2.39,46.25-7.19,8.27-4.59,14.91-12.35,19.52-23.21,4.61-10.68,7-31.33,7-61.91V327.32q0-83.74-3.68-102.82c-2.58-12.71-6.63-21.55-12.17-26.17-5.7-4.79-12.7-7-21.37-7-9.39,0-21.19,2.74-35.55,8.65l-9.22-19,147.42-60.44Zm-585.6,408.15V713.36c0,40,1.46,66.15,4.78,78.87,5,20.82,17.32,39,37,54.9q29.28,23.75,74.27,23.77,53.88,0,87.33-42c29.12-36.65,43.67-88.45,43.67-155,0-75.54-16.4-133.77-49.56-174.3-23-28.21-50.5-42.21-82-42.21-17.32,0-34.46,4.41-51.41,12.9C3386.33,476.94,3365,496.28,3335.12,528.73Zm-172.85-85.87,152.21-61.55h20.64V496.85q38.13-65.25,76.84-91.59c25.78-17.31,52.87-26.16,81.27-26.16,49.73,0,91,19.52,124.18,58.42,40.72,47.52,61,109.27,61,185.73q0,127.69-73.53,211.53-60.24,68.55-152.21,68.55c-26.52,0-49.55-3.69-69.09-11.24-14.36-5.51-30.59-16.21-48.45-32.43v150.57c0,33.88,2,55.26,6.07,64.46,4.24,9.23,11.43,16.59,21.74,21.93,10.13,5.36,28.75,8.12,55.83,8.12v19.89H3159.51v-19.89h13.64c19.71.36,36.66-3.5,50.66-11.44,6.83-3.86,12.17-10.31,16-19.15,3.69-8.85,5.54-31.15,5.54-67.06V539.41c0-31.89-1.3-52.34-4.24-61s-7.56-15.12-13.81-19.34c-6.26-4.44-14.76-6.47-25.64-6.47-8.64,0-19.52,2.41-33,7.56Zm-137.1,340.7c17,0,31.14,5.7,42.58,17.52,11.6,11.6,17.32,25.78,17.32,42.37s-5.92,30.58-17.51,42.38a60.07,60.07,0,0,1-84.76,0c-11.62-11.8-17.51-25.8-17.51-42.38,0-17,5.89-31.14,17.51-42.75C2994.4,789.26,3008.59,783.56,3025.17,783.56Zm-240.83-663v656c0,31,2.39,51.4,6.82,61.53A47.45,47.45,0,0,0,2812,861c9.39,5.14,26.72,7.91,52.34,7.91v19.36H2622V868.87c22.67,0,38.14-2.39,46.25-7.19,8.29-4.59,14.93-12.34,19.53-23.21,4.62-10.68,7-31.33,7-61.91V327.32c0-55.82-1.29-90.11-3.69-102.82-2.59-12.71-6.63-21.55-12.17-26.17-5.7-4.79-12.71-7-21.36-7-9.41,0-21.2,2.74-35.57,8.65l-9.2-19,147.39-60.44Zm-648.8,75.56V485.42H2296.4q62.74,0,83.66-18.8c18.79-16.58,29.11-45.7,31.33-87.52h19.9V633.93h-19.9c-5-35.55-10.14-58.41-15.11-68.55-6.46-12.51-17.15-22.46-31.88-29.66s-37.41-10.86-68-10.86H2135.54V766.25c0,32.43,1.47,52.13,4.23,59.14,2.95,7,7.92,12.52,15.12,16.77,7.18,4.06,21,6.08,41.08,6.08h124.21c41.27,0,71.49-2.76,90.09-8.67,18.81-5.7,36.68-16.94,54-33.9q33.42-33.43,68.53-101h21.57l-63,183.54H1927.13v-19.9h26a102.51,102.51,0,0,0,49-12.55c11.61-5.7,19.34-14.35,23.58-25.79q6.09-17.41,6.08-70.74V283.64c0-46.43-4.6-75-14-85.85q-19.35-21.57-64.66-21.56h-26V156.14h564.23l8.11,160.3h-21.2c-7.56-38.51-15.85-64.86-25.05-79.23s-22.68-25.42-40.73-33c-14.38-5.35-39.81-8.09-76.1-8.09ZM1775.48,231.3V393.65H1891v37.79H1775.48v320.8q0,48.07,13.83,64.66c9,11.24,20.82,16.78,35.19,16.78,12,0,23.39-3.69,34.63-11q16.61-11.07,26-32.62h21c-12.71,35.19-30.4,61.74-53.44,79.6s-46.81,26.72-71.32,26.72q-24.86,0-48.64-13.82a82.94,82.94,0,0,1-35-39.42q-11.36-25.43-11.43-79.06V431.44h-78.13v-17.7c19.71-7.93,40-21.37,60.63-40.17a321.71,321.71,0,0,0,55.27-67.25c8.3-13.64,19.9-38.71,34.64-75ZM1408.42,379.1V490.4q61.92-111.4,127.33-111.3c19.71,0,36.1,6.08,49.2,18.06,12.9,12.15,19.35,26.16,19.35,41.82,0,14.2-4.61,26-14,35.75s-20.44,14.57-33.51,14.57c-12.54,0-26.74-6.28-42.39-18.62s-27.29-18.61-34.84-18.61c-6.45,0-13.44,3.51-21,10.69q-24.35,22.1-50.13,73v237c0,27.26,3.31,48.09,10.13,62.09q7.2,14.64,24.89,24.33c12,6.45,28.93,9.76,51.23,9.76v19.36H1241.48V868.87c25.24,0,44-4,56.19-12,9-5.72,15.3-14.93,19-27.45,1.66-6.28,2.59-23.6,2.59-52.52V585.3c0-57.51-1.1-91.77-3.49-102.83-2.23-10.87-6.64-19-12.91-24s-14.2-7.55-23.58-7.55c-11.06,0-23.6,2.76-37.78,8.12l-5.35-19.54,149.62-60.44ZM295.28,528.73V713.36c0,40,1.46,66.15,4.79,78.87,5,20.82,17.31,39,37,54.9,19.54,15.84,44.24,23.77,74.27,23.77q53.89,0,87.35-42c29.11-36.65,43.67-88.43,43.67-155,0-75.54-16.42-133.77-49.57-174.3-23-28.21-50.48-42.21-82-42.21-17.32,0-34.46,4.41-51.4,12.9C346.5,476.94,325.13,496.28,295.28,528.73ZM122.43,442.86l152.2-61.55h20.65V496.85q38.13-65.25,76.83-91.59C397.9,388,425,379.1,453.37,379.1c49.74,0,91,19.52,124.2,58.42,40.72,47.52,61,109.27,61,185.73Q638.55,751,565,834.78c-40.17,45.7-91,68.55-152.21,68.55-26.54,0-49.56-3.69-69.09-11.24-14.38-5.51-30.6-16.21-48.46-32.43v150.57c0,33.88,2,55.26,6.07,64.46,4.24,9.24,11.43,16.59,21.75,21.93,10.13,5.36,28.74,8.12,55.83,8.12v19.89H119.67v-19.89H133.3c19.71.36,36.67-3.5,50.68-11.44,6.82-3.86,12.15-10.31,16-19.15,3.69-8.85,5.52-31.15,5.52-67.06V539.41c0-31.89-1.29-52.34-4.24-61s-7.56-15.12-13.82-19.34c-6.25-4.44-14.73-6.47-25.61-6.47-8.65,0-19.53,2.41-33,7.56Z"
              transform="translate(-119.67 -120.58)"/>
        <g id="herb">
            <path class="cls-2"
                  d="M952.53,369.08c138.58,0,251,120,251,267.9s-112.41,267.9-251,267.9S701.6,784.91,701.6,637,814,369.08,952.53,369.08"
                  transform="translate(-119.67 -120.58)"/>
            <path class="cls-3" d="M700.36,633.67c1.7-148.34,114-268.06,252.17-268.06s250.52,119.72,252.17,268.06Z"
                  transform="translate(-119.67 -120.58)"/>
            <path class="cls-2"
                  d="M1017.92,617.92a507.63,507.63,0,0,0-132.17,0c15.92-24.06,29.88-47.38,40.34-69.52a841.84,841.84,0,0,0-75.63,44.4,503.27,503.27,0,0,0,0-132.28c26.74,17.61,52.54,33,76.91,43.7q-17.7-33.56-41.62-70.34a502.44,502.44,0,0,0,132.17,0c-16.56,25.05-31.14,49.36-41.67,72.38a848.3,848.3,0,0,0,78.34-45.74,515.57,515.57,0,0,0,0,132.28c-26.9-18-53.06-33.48-77.65-44.17q17.44,33.14,41,69.29"
                  transform="translate(-119.67 -120.58)"/>
            <path class="cls-3"
                  d="M1017.92,843.62a513.82,513.82,0,0,0-132.17,0c15.92-23.94,29.88-47.32,40.34-69.46a867.76,867.76,0,0,0-75.63,44.35,503.42,503.42,0,0,0,0-132.3c26.74,17.73,52.54,33.07,76.91,43.71-11.8-22.37-25.7-45.86-41.62-70.27a508.5,508.5,0,0,0,132.17,0c-16.56,25.05-31.14,49.41-41.67,72.3a805.26,805.26,0,0,0,78.34-45.74,515.72,515.72,0,0,0,0,132.3c-26.9-17.91-53.06-33.37-77.65-44.07,11.63,22.1,25.29,45,41,69.18"
                  transform="translate(-119.67 -120.58)"/>
        </g>
    </g>
</svg>