<svg xmlns="http://www.w3.org/2000/svg" viewBox="0 0 769.18 30.63"><defs><style>.cls-1{fill:#fff;}</style></defs><g id="Warstwa_2" data-name="Warstwa 2"><g id="Warstwa_1-2" data-name="Warstwa 1"><path class="cls-1" d="M3,0H7.08C7.7,0,8,.59,8,1.69v.46a7.42,7.42,0,0,1-.23,1.18L8.13,5v.12a25.77,25.77,0,0,1-2.93.36v.22H8l.71.12a2.9,2.9,0,0,1,1.18-.46H10A2.73,2.73,0,0,1,11,6.53v.34A1.71,1.71,0,0,0,10.61,8c.22,1.25.46,1.88.72,1.88,2.52.08,4.17.12,5,.12a.11.11,0,0,1,.12-.12,1.11,1.11,0,0,0,.34.82l.84-.12h1.76a1.29,1.29,0,0,0,.59-.11l.7.11H21c2.36,0,3.54.28,3.54.83l.6.12H26.9c.59.1.91.25.94.47v11.8a1.44,1.44,0,0,1-1.18.83H22.18c-1.81,0-2.71-.56-2.71-1.66-.08,0-.12,0-.12-.11V16l-.12-.82h-.12c-.41,0-1.08,0-2-.12l-.12.24c0,3.39-.36,5.08-1.06,5.08H14.87a11.59,11.59,0,0,0-1.54.1c-1.33,0-2-.23-2-.7l-.72-4.6a15.32,15.32,0,0,1-1.88-.24c-.33,0-.64,1.06-.94,3.18l-1.18.84q-2.25,0-2.25-.72a4.79,4.79,0,0,0-.58-1.3l.12-.58c0-1.91-.4-3.05-1.18-3.42-1.57,0-2.36-.32-2.36-1L0,6.87c0-.63.87-.94,2.6-.94A9.4,9.4,0,0,1,5.08,5V4.75H5c-.73,0-1.76,0-3.08.12A3.09,3.09,0,0,1,0,4.17q0-4,.6-4C1.46.07,2.25,0,3,0ZM1.3,13.72h.82c.61,0,1,.83,1.3,2.48.16,0,.24.2.24.58a.92.92,0,0,0-.12.36c.29,1.49.65,2.24,1.06,2.24,2.51.17,3.77.45,3.77.84l.12.58-.24.12H7.91A19.84,19.84,0,0,0,5.78,21a2.73,2.73,0,0,1-2-1.3l-.24-.12-.12.24c.36,1.1.72,1.66,1.06,1.66,2.52,0,3.77.27,3.77.82a4.27,4.27,0,0,1,.24,1.06c-.44.86-.87,1.29-1.3,1.29H4.26c-2.44,0-3.66-.27-3.66-.82a14.37,14.37,0,0,1-.24-2.25V14.78C.36,14.08.67,13.72,1.3,13.72ZM20.52,5.11c.23,0,.71,1.45,1.42,4.36a7.91,7.91,0,0,1-3.06.36h-.12c-1.57-.05-2.35-.24-2.35-.58.11,0,.22-.12.34-.36V8.65a12.57,12.57,0,0,0-.1-1.3c.3-1.49.66-2.24,1.06-2.24Zm-.82-5H27c.33,0,.53.79.6,2.36Q27.44,10,26.78,10c-.08.24-.31.36-.7.36h-.82L23,9.47q-1.14-5.53-2.48-5.54-1.17,0-1.17-.72l.23-.82c0-.13,0-.84-.11-2.12Z"/><path class="cls-1" d="M30.47.21h6.39q1,0,1,2V3.76a5.9,5.9,0,0,0,.12,1.06c0,.51-.36.83-1.08.94H35.68c-.7.38-1.06.61-1.06.72v.24a10.18,10.18,0,0,0,1.54-.12c1,.16,1.54.35,1.54.58V9.43q0,5,.12,14.32c-.21.63-.56.94-1.08.94H36q-.74,0-2.25-2.25-.24,0-.24.24v.48a2.87,2.87,0,0,0,.24,1.3l-.36.23H30.35c-.23,0-.5-.59-.82-1.77q.12-11.39.12-15l.12-1.06-.12-.24c.08-1.46.12-2.69.12-3.68V.56C29.85.32,30.08.21,30.47.21Z"/><path class="cls-1" d="M40.9.14h6.17c.63,0,1,.87,1,2.61.08,0,.16.27.24.82-.1.48-.69.72-1.78.72v.36a20.87,20.87,0,0,0,4,.6A16,16,0,0,1,51.1,8a3,3,0,0,0-.46,1.2v.58h1.65C53.4,9.74,54,8.68,54,6.55l.12-1.08h.24a1.13,1.13,0,0,0,.82.48h1.08a12.69,12.69,0,0,0,1.3.24h.36c.83,0,2.13.08,3.91.24V6.31a7.23,7.23,0,0,0-3.91-.84c-.29-.55-.57-.82-.84-.82s-.59,0-1.3.12a4.12,4.12,0,0,1-2.26-3.68c.31-.63.71-.95,1.2-.95h6.51c.33,0,.57,1.54.72,4.63.08,0,.16.43.24,1.3a.11.11,0,0,1-.12.12l.12.59V10.1a.11.11,0,0,0,.12.12l-.12.24v.72a.11.11,0,0,0,.12.12l-.12.22V12a1,1,0,0,0,.12.48.89.89,0,0,0-.12.47v.12a.94.94,0,0,0,.12.47.94.94,0,0,0-.12.47v.12a.9.9,0,0,0,.12.48,1,1,0,0,0-.12.48.88.88,0,0,0,.12.46,1,1,0,0,0-.12.48v.36a.11.11,0,0,0,.12.12l-.12.24v4.39a9.28,9.28,0,0,1-.12,1.3l.12.24-.12.24c.08.56.12.87.12.94-.12.56-.27.83-.48.83H61q-1.08,0-1.08-1.77-.41-1.08-.6-1.08h-.23V22a8.86,8.86,0,0,1,.23,1.56c-.05.78-.21,1.17-.46,1.17H54.43q-.84,0-.84-1.53l.48-1-.36-3c0-.48.28-.71.84-.71a4.07,4.07,0,0,1,1.42.59l1.78-.36c1.1.21,1.65.76,1.65,1.66.24,1.14.36,1.73.36,1.78H60l.12-.58V19.7q0-1.36-2.37-1.65l-2.14.12a18.65,18.65,0,0,0-2.26-.94q-1.17.12-1.77.12a8.86,8.86,0,0,1-.82-3.1c0-.26.43-.5,1.3-.71v-.11c0-.28-1-.52-3-.72H48.5q-.24,0-.24.36a7.07,7.07,0,0,0,.12,1.3c-.11,2.21-.35,3.32-.72,3.32a21.94,21.94,0,0,1-4.15-.94q-.09,0-.72.12c0-.13-.15-.25-.46-.36a10.48,10.48,0,0,0-1.67.24,1.63,1.63,0,0,1-1.06-.6l.12-.82V8.56a9.28,9.28,0,0,1,.12-1.3L39.72,7q.12-2,.12-3.09V1.2C39.94.49,40.29.14,40.9.14ZM42.33,17c0,.46.51.7,1.54.7q.23.72,2.73.72,1.78,1.26,1.78,4.75h.12q-.27,1.53-1.08,1.53H46c-.21,0-.64-.27-1.3-.83h-.84c-.11.56-.27.83-.48.83H40.55a1,1,0,0,1-.95-.59A3.5,3.5,0,0,0,40,22.92c-.08-2.73-.12-4.39-.12-5C39.84,17.71,40.67,17.4,42.33,17Z"/><path class="cls-1" d="M67.61,18.9a3.93,3.93,0,0,1,.34.94l-.12.24c.08,1.06.12,1.85.12,2.36h.12l-.12.24v.6a.94.94,0,0,0,.12.47c0,.37-.55.68-1.66.94h-1.9c-.37,0-.65-1.77-.82-5.33a2.07,2.07,0,0,1,.94-.36H67ZM65.11.19h18q.17,0,.36.36V1.61a1.16,1.16,0,0,0,.12.59c0,1.9-.48,2.84-1.42,2.84h-.6a64.6,64.6,0,0,1-7.11-.24,3.31,3.31,0,0,1-.82.12L72.46,4.8q0,.86-.6,4.86l.24.12h.48c3,0,4.5.16,4.5.47l.11.48-.11.58a1.78,1.78,0,0,0,.7,1.66l.24-.12-.12-.58c0-1.5.47-2.26,1.41-2.26.68,0,1.86,0,3.56-.11a.76.76,0,0,1,.12.35c0,.67,0,1.93.12,3.8-.3.62-.69.94-1.18.94H78.85c-.4,0-.76-.36-1.07-1.06h-.12c0,.7-.28,1.06-.82,1.06H72.46c-.08,1.32-.24,2.74-.48,4.25a1,1,0,0,1,.12.48h9.23q.24,0,.24.24v.24l-.6.12H79.21a1.19,1.19,0,0,0-.6.7.11.11,0,0,1,.12.12L79.91,21h1.66c.31,0,.78-.39,1.42-1.18h.12q.24,0,.24.24v1.3c0,.56,0,1.42.12,2.6a2.63,2.63,0,0,1-2.14.71H79.79c-.78,0-1.18-1-1.18-3v-.48h-.12c-.34,0-.54,1.11-.59,3.32H71.26c-1,0-2-1-2.83-3a1,1,0,0,1,.12-.48,9.28,9.28,0,0,1-.12-1.3v-1.3q0-.3-.48-.36c-.63,0-1.45,0-2.48.12-.94-.16-1.42-.36-1.42-.59V15.23a.11.11,0,0,0-.12-.12l.12-.24v-.12a3.73,3.73,0,0,0-.12-.94q0-.24.12-.24c-.08-.79-.12-1.38-.12-1.78V8.6a.9.9,0,0,0-.12-.48c0-.4,1.46-.71,4.38-.94q0-.21.6-.24l.24.12c.3-.13.46-.25.46-.36V6.58l-2.24-.36a7.22,7.22,0,0,1-1.3.36c-1.26,0-1.9-.59-1.9-1.78,0-.94,0-1.42-.12-1.42l.12-.24Q63.93,1.73,63.93,1C63.93.46,64.33.19,65.11.19Z"/><path class="cls-1" d="M105,.09a.92.92,0,0,0,.36.12v.7a2.48,2.48,0,0,1-.7,1.17c0,2-.43,2.94-1.3,2.94H94.8C94.25,5,94,6.16,94,8.44l-.12.48H93.5c-.49-.48-.84-.72-1.06-.72a16.31,16.31,0,0,1-2.82.48l-2-.24v.24c0,.24.71.43,2.12.58H92.1c.59,0,1.26.64,2,1.9A78.92,78.92,0,0,1,93.26,19a1.15,1.15,0,0,0,1.06.84h.12c2.23,0,5.34,0,9.31-.12.21,0,.52.31.94.94-.08.92-.12,1.59-.12,2v.94c0,.7-.43,1.05-1.3,1.05h-.58c-2,0-3.07-.47-3.07-1.41V22.1c0-.11-.12-.22-.35-.34H99a9.06,9.06,0,0,1-.48,2v.83a.9.9,0,0,1-.46.11H94c-.36,0-1.1-.58-2.24-1.76a16.37,16.37,0,0,1-2.24.71c-.21.62-.56.94-1.06.94H86.68a1.38,1.38,0,0,1-.84-.36c-.08-1.58-.15-4.71-.22-9.42.31-.87.66-1.3,1.06-1.3l.7.12.12-.22v-.24c-1.33-.16-2-.4-2-.72a5.51,5.51,0,0,1-.12-.94q-.12-7.89-.12-9.3c0-.05,0-.29-.12-.7C85.4.64,85.8.21,86.32.21H97.5C99.26.21,101.78.17,105,.09Z"/><path class="cls-1" d="M108,0l.6.12h2.24a5.65,5.65,0,0,1,1.18,1.42V4.75c-.06,1.81-.22,2.72-.48,2.72a.83.83,0,0,1,.12.36c-.16.7-.24,1.1-.24,1.18a2.52,2.52,0,0,0,1,2.35h.34c1-.23,1.58-.35,1.66-.35a2.52,2.52,0,0,0,1.06.59.11.11,0,0,1,.12-.12,3.13,3.13,0,0,0-.94-1.29,12.8,12.8,0,0,1-2,.23l-.48-.35a22.87,22.87,0,0,0,.58-4.84,1.1,1.1,0,0,0-.1-.36c.06-.85.1-1.6.1-2.24V1.45a1.39,1.39,0,0,0-.34-.82V.39q0-.24.24-.24h13.21c.62,0,.94.59.94,1.76q.12,0,.24.84l-.36,2.84a11,11,0,0,0,.6,2c0,1.33-.44,2-1.3,2a2.08,2.08,0,0,0-2.24,1.54,1,1,0,0,1-.48.12h-1.18a1.33,1.33,0,0,0-1.06.58l2.12.36h3.18l.36.23-.12.82v.12a13.72,13.72,0,0,0,.48,1.9,38.81,38.81,0,0,0-.6,5.66v.24c.24,1,.36,1.58.36,1.65v.59c0,.65-.44,1.08-1.3,1.29h-2.24l-.6-.11V23.4c0-.12-.11-.24-.34-.36h-.12c-.16,1.1-.47,1.65-.94,1.65h-1.78c-.5,0-.81-.31-.94-.94l.12-.23v-.24a7.11,7.11,0,0,0-.6-2.36c.12-2.36.39-3.54.82-3.54,2-.16,3.78-.36,5.44-.6v-.22h-5.44c-.1,0-.33-.39-.7-1.18a.88.88,0,0,1-.48-.24h-2.23a21.83,21.83,0,0,0-.24,2.24,6.93,6.93,0,0,1,.24,1.06c-.33.32-1.71.48-4.12.48a1.59,1.59,0,0,0-1,.7.11.11,0,0,1,.12.12,22.26,22.26,0,0,1,3.2-.24c1.33.1,2,.34,2,.72,0,2.9-.36,4.36-1.06,4.36h-5a1,1,0,0,1-.94-.59c.95-.75,1.42-1.34,1.42-1.77V19.74h-.12c-.37.19-.65,1.1-.84,2.72-.47,0-1,.62-1.76,1.88h-.24q.36-7.89.48-8.38a6.19,6.19,0,0,1-.6-2.12q0-5.55,1.78-5.55a7.36,7.36,0,0,1,2.24-.46l.34-.36a.81.81,0,0,0-.34-.12,5.51,5.51,0,0,0-.94.12c-1.81-.14-2.72-.34-2.72-.6C107.63,2.31,107.83,0,108,0Zm7.68,5.08-.12.58v.72a2.43,2.43,0,0,0,.59,1.18L116,9.71l.24.12h.58l1.42.12a7.87,7.87,0,0,0,.36-2.36l-.12-.48a6.14,6.14,0,0,0,.12-1.18V5.59q0-.2-.48-.48Z"/><path class="cls-1" d="M130.14,0q9.23.12,13.84.12h4.89l.6.12V1.91l-.12,1.42h.12a.92.92,0,0,0-.12.36q0,3.83-.24,9.2h.12a.76.76,0,0,0-.12.35q0,1-.12,5.73a.78.78,0,0,1-.84.6,1.68,1.68,0,0,1-1.07-.6q-1.1,0-4.53-.24a5.34,5.34,0,0,1-1.56.6,2.34,2.34,0,0,0-.72-1.92h-1.55l-.7-.12q-.35,0-.6.84.24,3.69.24,6a1.68,1.68,0,0,1-1.08.59H135A1.68,1.68,0,0,1,134,24.1l-.72.59h-3.69c-.32-.1-.48-.46-.48-1.07q.48-5,.6-9.06l-.12-.24.12-.72-.12-.24a.89.89,0,0,0,.12-.47.9.9,0,0,0-.12-.48,1,1,0,0,0,.12-.48v-.24a.11.11,0,0,0-.12-.12l.12-.24V4.17a9.28,9.28,0,0,1,.12-1.3l-.12-.24a3.53,3.53,0,0,0,.12-.84l-.12-.23a1,1,0,0,0,.12-.48V.72a.11.11,0,0,0-.12-.12Q129.81,0,130.14,0Zm4.29,4.77L134.31,6v.48q0,.87.36,1h2.75l.24.12q0,1.44-1,1.44t-.84,1a9.46,9.46,0,0,1-.24,1.44l.36.6v1.31q0,.24.24.24h1.08c.16,0,.4-.61.72-1.67l1.3-.24c1.27.28,1.91.68,1.91,1.2s-.12.66-.12.71l.24.12h1.2c.24,0,.51-1.11.83-3.35a3.06,3.06,0,0,1-.71-1.65h-.12l-1.2.12a5.26,5.26,0,0,1-.48-1.2l.36-.24h.6c.56,0,1.43,0,2.63-.12a.89.89,0,0,1,.1-.36c0-.08,0-.12-.1-.12l.1-.6V4.89h-3.09a7.41,7.41,0,0,0-1.08,2.27l-.6.12h-2A9.13,9.13,0,0,0,138,5.13a.83.83,0,0,1-.12-.36Zm8.24,14.56q3.93.15,3.93,1a2.66,2.66,0,0,1,2.27,1.07c0,2.22-.64,3.33-1.91,3.33h-5.61a1.15,1.15,0,0,1-1.08-.83q.57-4.17,1-4.17A6.35,6.35,0,0,0,142.67,19.33Z"/><path class="cls-1" d="M152.54.21H170.4c.48,0,.72.31.72.94a5.78,5.78,0,0,0,.7,2c-.17,1.19-.52,1.78-1.06,1.78H166q-.18,0-.36-.36v-.7a7.19,7.19,0,0,1,.24-1c0-.46-.43-.7-1.3-.7A5.76,5.76,0,0,0,163.55.56c-.13,0-.32.32-.6.94.45,0,.88.56,1.3,1.66q.6.12.6.48c-.16.87-.51,1.3-1.06,1.3H161l-.84-.12a1.47,1.47,0,0,0-.23.72V8.72A1.16,1.16,0,0,0,161,9.91h3.3q.6,0,.6.24l1.42-.12h4.37c.18,0,.3.28.36.82a7.52,7.52,0,0,0-.36,1.78,6.19,6.19,0,0,0,.48,1.18c-.16.94-.51,1.42-1.06,1.42h-5.33l-.24-.12a15.36,15.36,0,0,1,1-3.9v-.12a.92.92,0,0,1-.12-.36h-.24l-1.66,3.44a5,5,0,0,1-3.55,1.18q-.4,9.11-1.06,9.11l-.84.23H151.6a1,1,0,0,1-.59-.94V21.62q0-2.14.12-5.79a.11.11,0,0,0-.12-.12l.12-.84V9.79A35.27,35.27,0,0,1,152.3.32Z"/><path class="cls-1" d="M174.06.19h13.09l.34.24a13,13,0,0,0-1.18,2.94c.19,0,.31.2.36.59a8,8,0,0,0-.24,1.41c.19.55.3.83.36.83l-.12.58v17a2,2,0,0,1-1.64.94H179.6c-.55,0-.94-.47-1.18-1.41l.12-.82V21.4q0-3.18,2-3.18c0-.1.24-.18.7-.24.7.08,1.13.12,1.3.12l2.36-.36a2.73,2.73,0,0,0,.94.24l.12-.24c-.08,0-.28-.19-.6-.58a18.58,18.58,0,0,1-2.58.24c-1.51-.16-2.58-.24-3.19-.24h-.22c-.09,0-.12,0-.12.12-.35,0-.55-.43-.6-1.3q.12-8.07.12-10.25a6.26,6.26,0,0,1,.94-2.94V2.55c-.7,0-1.25.7-1.64,2.12l-.6.12c-.61,0-1.71,0-3.3.11-.42,0-.7-.82-.82-2.47C173.52.93,173.75.19,174.06.19Zm14.15,0H190a16.15,16.15,0,0,1,3.18.24V.77a2.05,2.05,0,0,0,.36,1c-.53,2-1.15,3.06-1.88,3.06,0,.08,0,.11-.12.11-2.44,0-3.66-.27-3.66-.82q0-.07-.36-1.65A6.77,6.77,0,0,1,188.21.19Z"/><path class="cls-1" d="M211.25.19c.79.18,1.19.53,1.19,1.06a4,4,0,0,1-2.25,3.55,14.14,14.14,0,0,0-1.54-.12c-.22.64-.81,1-1.78,1a4.68,4.68,0,0,0-2.71.7v.12c1.77-.16,3.07-.24,3.89-.24h.36c.09,0,.52-.08,1.3-.24h1.08a1.14,1.14,0,0,0,.82-.46h.24c.14,2.76.5,4.14,1.06,4.14a16.66,16.66,0,0,1,2,.35H216V5.64q0-.84,1.65-.84c0-.08.08-.12.23-.12V4.32a2.14,2.14,0,0,1-1.78-.58c.29-2.37.61-3.55,1-3.55h6.39c.7.1,1.06.45,1.06,1.06V4c0,.73,0,1.76.12,3.08a.11.11,0,0,1-.12.12l.12,1.42v6.75l.12.7c0,.26-.32.5-.94.72l-1.78-.24c-.32.11-.48.23-.48.35a6.91,6.91,0,0,0-.94-.11,14.51,14.51,0,0,1-3.79.94,2.14,2.14,0,0,1-.72-.47l-1.18.11h-.72a16.52,16.52,0,0,1-1.66-.11l-2.37.94c-1.11-.08-1.82-.12-2.14-.12-1.49.22-2.24.77-2.24,1.66v1.9l.12.6h.22c.22-2.21.77-3.32,1.66-3.32l.48-.12a12.45,12.45,0,0,0,1.66.34,4.35,4.35,0,0,1,1.42-.58.82.82,0,0,1,.83.58c0,.17-.12,1.21-.35,3.1.23.54.39.82.47.82,0,1.1-.28,1.65-.83,1.65h-4.38q-.48,0-.48-1.41c0-.08.08-.56.24-1.42h-.24a4.21,4.21,0,0,0-.82,2.48,1.32,1.32,0,0,1-.83.35h-.71c-.23,0-.39-.31-.47-.94l.12-.83-.12-.24a.11.11,0,0,1,.12-.12l-.12-1.42V16.77a.11.11,0,0,0-.12-.12l.12-.24v-.36a.88.88,0,0,0-.12-.46,1,1,0,0,0,.12-.48,1,1,0,0,0-.12-.48,1,1,0,0,0,.12-.48v-.1a1,1,0,0,0-.12-.48,1,1,0,0,0,.12-.48V13a1,1,0,0,0-.12-.48.88.88,0,0,0,.12-.46v-.48a.11.11,0,0,0-.12-.12l.12-.24v-.7a.11.11,0,0,0-.12-.12l.12-.24V6.82a1,1,0,0,1,.12-.48.11.11,0,0,0-.12-.12q.62-5.92.82-6ZM222.05,17c1.65.41,2.48.73,2.48.94v.12q-.12,4.53-.12,5s.12.44.36,1.18a1.4,1.4,0,0,1-.94.47h-2.62c-.47,0-.7-.27-.7-.82h-.6c-.29,0-.73.28-1.3.82H217c-.51,0-.86-.47-1.06-1.41A10.07,10.07,0,0,1,217,19.12c0-.39,1.06-.75,3.19-1.06a2.53,2.53,0,0,1,1.78-.59A.91.91,0,0,1,222.05,17Z"/><path class="cls-1" d="M227.16,0q9.22.12,13.84.12h4.89l.6.12V1.91l-.12,1.42h.12a.92.92,0,0,0-.12.36q0,3.83-.24,9.2h.12a.76.76,0,0,0-.12.35q0,1-.12,5.73a.78.78,0,0,1-.84.6,1.7,1.7,0,0,1-1.08-.6c-.73,0-2.23-.08-4.52-.24a5.34,5.34,0,0,1-1.56.6,2.34,2.34,0,0,0-.72-1.92h-1.55l-.7-.12q-.34,0-.6.84.24,3.69.24,6a1.68,1.68,0,0,1-1.08.59h-1.55A1.68,1.68,0,0,1,231,24.1l-.72.59h-3.69c-.32-.1-.48-.46-.48-1.07q.48-5,.6-9.06l-.12-.24.12-.72-.12-.24a.89.89,0,0,0,.12-.47.9.9,0,0,0-.12-.48,1,1,0,0,0,.12-.48v-.24a.11.11,0,0,0-.12-.12l.12-.24V4.17a9.28,9.28,0,0,1,.12-1.3l-.12-.24a3.53,3.53,0,0,0,.12-.84l-.12-.23a1,1,0,0,0,.12-.48V.72a.11.11,0,0,0-.12-.12Q226.83,0,227.16,0Zm4.29,4.77L231.33,6v.48q0,.87.36,1h2.75l.24.12q0,1.44-1,1.44t-.84,1a9.46,9.46,0,0,1-.24,1.44l.36.6v1.31q0,.24.24.24h1.08c.16,0,.4-.61.72-1.67l1.3-.24c1.27.28,1.91.68,1.91,1.2s-.12.66-.12.71l.24.12h1.2c.23,0,.51-1.11.83-3.35a3.06,3.06,0,0,1-.71-1.65h-.12l-1.2.12a5.26,5.26,0,0,1-.48-1.2l.36-.24h.6c.56,0,1.43,0,2.63-.12a.89.89,0,0,1,.1-.36c0-.08,0-.12-.1-.12l.1-.6V4.89h-3.09c-.13,0-.49.76-1.08,2.27l-.6.12h-2A9.13,9.13,0,0,0,235,5.13a.83.83,0,0,1-.12-.36Zm8.24,14.56q3.93.15,3.93,1a2.66,2.66,0,0,1,2.27,1.07q0,3.33-1.92,3.33h-5.6a1.15,1.15,0,0,1-1.08-.83q.57-4.17,1-4.17A6.48,6.48,0,0,0,239.69,19.33Z"/><path class="cls-1" d="M267.92.09a.92.92,0,0,0,.36.12v.7a2.58,2.58,0,0,1-.7,1.17c0,2-.44,2.94-1.3,2.94h-8.6c-.55,0-.82,1.14-.82,3.42l-.12.48h-.36c-.49-.48-.84-.72-1.06-.72a16.11,16.11,0,0,1-2.82.48l-2-.24v.24c0,.24.71.43,2.12.58H255c.59,0,1.26.64,2,1.9a78.92,78.92,0,0,1-.84,7.88,1.15,1.15,0,0,0,1.06.84h.12q3.35,0,9.32-.12c.2,0,.51.31.94.94-.08.92-.12,1.59-.12,2v.94c0,.7-.44,1.05-1.3,1.05h-.58c-2.05,0-3.08-.47-3.08-1.41V22.1c0-.11-.11-.22-.34-.34h-.24a9.06,9.06,0,0,1-.48,2v.83a.9.9,0,0,1-.46.11h-4.12c-.35,0-1.1-.58-2.24-1.76a16.37,16.37,0,0,1-2.24.71c-.2.62-.56.94-1.06.94h-1.76a1.34,1.34,0,0,1-.83-.36c-.08-1.58-.16-4.71-.23-9.42.31-.87.66-1.3,1.06-1.3l.7.12.12-.22v-.24c-1.33-.16-2-.4-2-.72a5.51,5.51,0,0,1-.12-.94q-.12-7.89-.12-9.3c0-.05,0-.29-.12-.7.27-.86.66-1.29,1.18-1.29h11.18Q263,.21,267.92.09Z"/><path class="cls-1" d="M270.93,0l.59.12h2.24c.13,0,.52.49,1.18,1.42V4.75c-.06,1.81-.22,2.72-.48,2.72a.83.83,0,0,1,.12.36c-.16.7-.24,1.1-.24,1.18a2.52,2.52,0,0,0,1,2.35h.34c1-.23,1.58-.35,1.66-.35a2.58,2.58,0,0,0,1.06.59.11.11,0,0,1,.12-.12,3.13,3.13,0,0,0-.94-1.29,12.68,12.68,0,0,1-2,.23l-.48-.35a22.87,22.87,0,0,0,.58-4.84.89.89,0,0,0-.1-.36c.07-.85.1-1.6.1-2.24V1.45a1.33,1.33,0,0,0-.34-.82V.39q0-.24.24-.24H278q.17,0,.36.36c.08,3,.12,5,.12,6a3,3,0,0,0,.6,1.06l-.24,2.12.24.12h.58l1.42.12a7.87,7.87,0,0,0,.36-2.36.92.92,0,0,0-.12-.36,39.22,39.22,0,0,0,.24-4.48C282,1,282.4.15,282.85.15h5.9c.63,0,.94.59.94,1.76q.12,0,.24.84l-.36,2.84a11,11,0,0,0,.6,2c0,1.33-.43,2-1.3,2a2.08,2.08,0,0,0-2.24,1.54,1,1,0,0,1-.48.12H285a1.33,1.33,0,0,0-1.06.58l2.12.36h3.18l.36.23-.12.82v.12a13.72,13.72,0,0,0,.48,1.9,38.81,38.81,0,0,0-.6,5.66v.24c.24,1,.36,1.58.36,1.65v.59c0,.65-.43,1.08-1.3,1.29h-2.24l-.6-.11V23.4c0-.12-.11-.24-.34-.36h-.12c-.16,1.1-.47,1.65-.94,1.65h-1.77c-.51,0-.82-.31-.94-.94l.12-.23v-.24a7.11,7.11,0,0,0-.6-2.36c.11-2.36.38-3.54.82-3.54q2.94-.24,5.43-.6v-.22h-5.43c-.11,0-.34-.39-.7-1.18a.82.82,0,0,1-.48-.24h-2.24a21.83,21.83,0,0,0-.24,2.24,6.93,6.93,0,0,1,.24,1.06c-.33.32-1.7.48-4.12.48a1.66,1.66,0,0,0-1,.7.11.11,0,0,1,.12.12,22.37,22.37,0,0,1,3.2-.24c1.33.1,2,.34,2,.72,0,2.9-.35,4.36-1.06,4.36h-5a1,1,0,0,1-.94-.59c.95-.75,1.42-1.34,1.42-1.77V19.74h-.12c-.36.19-.64,1.1-.84,2.72-.46,0-1.05.62-1.76,1.88h-.24q.36-7.89.48-8.38a6,6,0,0,1-.59-2.12q0-5.55,1.77-5.55A7.36,7.36,0,0,1,274,7.83l.34-.36a.81.81,0,0,0-.34-.12,5.63,5.63,0,0,0-.94.12c-1.81-.14-2.72-.34-2.72-.6C270.52,2.31,270.71,0,270.93,0Z"/><path class="cls-1" d="M292.92,0q9.22.12,13.84.12h4.89l.6.12V1.91l-.12,1.42h.12a.92.92,0,0,0-.12.36q0,3.83-.24,9.2H312a.76.76,0,0,0-.12.35q0,1-.12,5.73a.78.78,0,0,1-.84.6,1.68,1.68,0,0,1-1.07-.6q-1.1,0-4.53-.24a5.34,5.34,0,0,1-1.56.6,2.34,2.34,0,0,0-.72-1.92H301.5l-.7-.12q-.35,0-.6.84.24,3.69.24,6a1.68,1.68,0,0,1-1.08.59h-1.55a1.68,1.68,0,0,1-1.08-.59l-.72.59h-3.69c-.32-.1-.48-.46-.48-1.07q.48-5,.6-9.06l-.12-.24.12-.72-.12-.24a.89.89,0,0,0,.12-.47.9.9,0,0,0-.12-.48,1,1,0,0,0,.12-.48v-.24a.11.11,0,0,0-.12-.12l.12-.24V4.17a9.28,9.28,0,0,1,.12-1.3l-.12-.24a3.53,3.53,0,0,0,.12-.84l-.12-.23a1,1,0,0,0,.12-.48V.72a.11.11,0,0,0-.12-.12Q292.59,0,292.92,0Zm4.29,4.77L297.09,6v.48q0,.87.36,1h2.75l.24.12q0,1.44-1,1.44c-.56,0-.83.35-.83,1a11,11,0,0,1-.24,1.44l.35.6v1.31q0,.24.24.24h1.08c.16,0,.4-.61.72-1.67l1.3-.24c1.27.28,1.91.68,1.91,1.2s-.12.66-.12.71l.24.12h1.2c.24,0,.52-1.11.83-3.35a3.06,3.06,0,0,1-.71-1.65h-.12l-1.2.12a6.43,6.43,0,0,1-.48-1.2L304,7.4h.6c.56,0,1.43,0,2.63-.12a1.1,1.1,0,0,1,.1-.36c0-.08,0-.12-.1-.12l.1-.6V4.89h-3.09a7.41,7.41,0,0,0-1.08,2.27l-.59.12h-2a9.13,9.13,0,0,0,.24-2.15.83.83,0,0,1-.12-.36Zm8.24,14.56q3.93.15,3.93,1a2.66,2.66,0,0,1,2.27,1.07c0,2.22-.64,3.33-1.91,3.33h-5.61a1.15,1.15,0,0,1-1.08-.83q.57-4.17,1-4.17A6.35,6.35,0,0,0,305.45,19.33Z"/><path class="cls-1" d="M314.49.19h13.09l.34.24a12.46,12.46,0,0,0-1.18,2.94c.18,0,.3.2.36.59a8,8,0,0,0-.24,1.41c.18.55.3.83.36.83l-.12.58v17a2,2,0,0,1-1.64.94H320c-.54,0-.94-.47-1.17-1.41l.11-.82V21.4c0-2.12.68-3.18,2-3.18,0-.1.23-.18.7-.24.7.08,1.13.12,1.3.12l2.36-.36a2.73,2.73,0,0,0,.94.24l.12-.24c-.08,0-.28-.19-.6-.58a18.58,18.58,0,0,1-2.58.24c-1.52-.16-2.58-.24-3.2-.24h-.22a.11.11,0,0,0-.12.12c-.34,0-.54-.43-.6-1.3q.12-8.07.12-10.25a6.38,6.38,0,0,1,.94-2.94V2.55c-.69,0-1.24.7-1.64,2.12l-.59.12c-.61,0-1.71,0-3.3.11-.42,0-.7-.82-.82-2.47C314,.93,314.18.19,314.49.19Zm14.15,0h1.76a16.22,16.22,0,0,1,3.18.24V.77a2.05,2.05,0,0,0,.36,1c-.53,2-1.16,3.06-1.88,3.06,0,.08,0,.11-.12.11-2.44,0-3.66-.27-3.66-.82q0-.07-.36-1.65C328.28.93,328.52.19,328.64.19Z"/><path class="cls-1" d="M343,.19c.8.18,1.2.53,1.2,1.06a4,4,0,0,1-2.26,3.55,14,14,0,0,0-1.53-.12c-.22.64-.81,1-1.78,1a4.71,4.71,0,0,0-2.72.7v.12q2.67-.24,3.9-.24h.36c.09,0,.52-.08,1.3-.24h1.07a1.11,1.11,0,0,0,.82-.46h.24c.15,2.76.5,4.14,1.06,4.14a16.67,16.67,0,0,1,2,.35h1.09V5.64c0-.56.55-.84,1.66-.84,0-.08.07-.12.22-.12V4.32a2.15,2.15,0,0,1-1.78-.58c.3-2.37.62-3.55,1-3.55h6.39c.71.1,1.06.45,1.06,1.06V4c0,.73,0,1.76.12,3.08a.11.11,0,0,1-.12.12l.12,1.42v6.75l.12.7c0,.26-.31.5-.94.72l-1.78-.24c-.31.11-.48.23-.48.35a6.81,6.81,0,0,0-.93-.11,14.63,14.63,0,0,1-3.8.94,2.35,2.35,0,0,1-.72-.47l-1.18.11H346a16.34,16.34,0,0,1-1.66-.11l-2.38.94q-1.65-.12-2.13-.12c-1.5.22-2.24.77-2.24,1.66v1.9l.12.6h.22c.22-2.21.77-3.32,1.66-3.32l.48-.12a12.15,12.15,0,0,0,1.65.34,4.35,4.35,0,0,1,1.42-.58.84.84,0,0,1,.84.58c0,.17-.12,1.21-.36,3.1.24.54.4.82.48.82q0,1.65-.84,1.65h-4.37q-.48,0-.48-1.41c0-.08.08-.56.24-1.42h-.24a4.14,4.14,0,0,0-.82,2.48,1.36,1.36,0,0,1-.84.35H336c-.24,0-.4-.31-.48-.94l.12-.83-.12-.24a.11.11,0,0,1,.12-.12l-.12-1.42V16.77a.11.11,0,0,0-.12-.12l.12-.24v-.36a.88.88,0,0,0-.12-.46,1,1,0,0,0,.12-.48,1,1,0,0,0-.12-.48,1,1,0,0,0,.12-.48v-.1a1,1,0,0,0-.12-.48,1,1,0,0,0,.12-.48V13a1,1,0,0,0-.12-.48.88.88,0,0,0,.12-.46v-.48a.11.11,0,0,0-.12-.12l.12-.24v-.7a.11.11,0,0,0-.12-.12l.12-.24V6.82a1,1,0,0,1,.12-.48.11.11,0,0,0-.12-.12,38.86,38.86,0,0,1,.82-6ZM353.79,17c1.66.41,2.48.73,2.48.94v.12q-.12,4.53-.12,5s.12.44.36,1.18a1.38,1.38,0,0,1-.94.47H353c-.47,0-.7-.27-.7-.82h-.6c-.3,0-.73.28-1.3.82H348.7c-.5,0-.85-.47-1.06-1.41a10.23,10.23,0,0,1,1.06-4.16c0-.39,1.07-.75,3.2-1.06a2.51,2.51,0,0,1,1.77-.59A.91.91,0,0,1,353.79,17Z"/><path class="cls-1" d="M358.41.21h6.34c.81,0,1.27.5,1.4,1.52V2.79c0,.11.11.22.34.34h.24a8.77,8.77,0,0,1,.48-2V.32a1,1,0,0,1,.46-.11h1.68c.34,0,1.08.58,2.22,1.76a16.39,16.39,0,0,1,2.22-.71c.2-.62.56-.94,1.06-.94h1.76a1.35,1.35,0,0,1,.82.35q.12,2.54.24,9.38c-.32.85-.67,1.28-1.06,1.28l-.7-.1-.12.22v.24c1.33.16,2,.39,2,.7a6.49,6.49,0,0,1,.1.94q.12,7.86.12,9.26c.08.41.12.65.12.7-.26.86-.65,1.29-1.16,1.29H366.49c-1.4,0-3.31,0-5.74.11a4.62,4.62,0,0,1-1.64-.46A32.27,32.27,0,0,1,358,15v-5l-.12-.7L358,9c-.08-2.42-.12-4.33-.12-5.74V1.15A1,1,0,0,1,358.41.21Zm8,4.8c.07,2.23.14,3.6.22,4.1a3.73,3.73,0,0,0-.12.94v.36c0,.07,0,.1.12.1a2,2,0,0,0-.22.94v.48c.15,2.3.22,3.55.22,3.74v3.52l.12.58h1.79c.55,0,.83-1.13.83-3.4.07-.27.12-.43.12-.46h.34c.49.47.84.7,1.06.7a15.92,15.92,0,0,1,2.82-.48l2,.24v-.24c0-.22-.7-.42-2.1-.58h-2.34c-.61,0-1.28-.62-2-1.88q0-1.71.82-7.84A1.12,1.12,0,0,0,369,5Z"/><path class="cls-1" d="M381,.14h6.17q1,0,1,2.61c.08,0,.16.27.24.82-.1.48-.7.72-1.78.72v.36a20.77,20.77,0,0,0,4,.6A14.61,14.61,0,0,1,391.19,8a3,3,0,0,0-.46,1.2v.58h1.65c1.11,0,1.66-1.06,1.66-3.19l.12-1.08h.24a1.13,1.13,0,0,0,.82.48h1.08a12.69,12.69,0,0,0,1.3.24H398c.84,0,2.14.08,3.92.24V6.31A7.27,7.27,0,0,0,398,5.47c-.28-.55-.56-.82-.83-.82s-.6,0-1.3.12a4.1,4.1,0,0,1-2.26-3.68c.31-.63.71-.95,1.2-.95h6.51c.33,0,.57,1.54.72,4.63.08,0,.16.43.24,1.3a.11.11,0,0,1-.12.12l.12.59V10.1a.11.11,0,0,0,.12.12l-.12.24v.72a.11.11,0,0,0,.12.12l-.12.22V12a1,1,0,0,0,.12.48.89.89,0,0,0-.12.47v.12a.94.94,0,0,0,.12.47.94.94,0,0,0-.12.47v.12a.9.9,0,0,0,.12.48,1,1,0,0,0-.12.48.88.88,0,0,0,.12.46,1,1,0,0,0-.12.48v.36a.11.11,0,0,0,.12.12l-.12.24v4.39a9.28,9.28,0,0,1-.12,1.3l.12.24-.12.24c.08.56.12.87.12.94-.12.56-.28.83-.48.83h-.7q-1.08,0-1.08-1.77-.41-1.08-.6-1.08h-.24V22a8.21,8.21,0,0,1,.24,1.56c-.06.78-.21,1.17-.46,1.17h-4.39q-.84,0-.84-1.53l.48-1-.36-3c0-.48.28-.71.84-.71a4.07,4.07,0,0,1,1.42.59l1.77-.36c1.11.21,1.66.76,1.66,1.66.24,1.14.36,1.73.36,1.78h.24l.12-.58V19.7c0-.91-.79-1.46-2.38-1.65l-2.13.12a18.65,18.65,0,0,0-2.26-.94c-.78.08-1.38.12-1.77.12a8.86,8.86,0,0,1-.82-3.1c0-.26.43-.5,1.29-.71v-.11q0-.42-3-.72h-.58q-.24,0-.24.36a7.07,7.07,0,0,0,.12,1.3c-.12,2.21-.35,3.32-.72,3.32a21.94,21.94,0,0,1-4.15-.94q-.09,0-.72.12c0-.13-.15-.25-.46-.36a11,11,0,0,0-1.68.24,1.61,1.61,0,0,1-1.05-.6l.11-.82V8.56a9.28,9.28,0,0,1,.12-1.3L379.8,7q.12-2,.12-3.09V1.2C380,.49,380.38.14,381,.14ZM382.42,17c0,.46.51.7,1.54.7.14.48,1.06.72,2.73.72q1.79,1.26,1.78,4.75h.12q-.27,1.53-1.08,1.53h-1.42c-.2,0-.63-.27-1.3-.83H384c-.12.56-.28.83-.48.83h-2.84a1,1,0,0,1-.95-.59,3.66,3.66,0,0,0,.35-1.18c-.08-2.73-.12-4.39-.12-5C379.92,17.71,380.76,17.4,382.42,17Z"/><path class="cls-1" d="M427.11,21.72v-.48H427c-.32,0-.52,1.07-.6,3.22v.12H420c-.81,0-1.68-1-2.62-3a1,1,0,0,1,.12-.48,9.15,9.15,0,0,1-.12-1.3V18.51l-.24-.34q-1.24,0-2.61.12c-1-.14-1.54-.34-1.54-.6v-2.5q0-.24.36-.24v-.24l-.36-.59c.08-1.87.12-3.14.12-3.8a.83.83,0,0,1,.12-.36c1.7.08,2.88.12,3.56.12.95,0,1.43.75,1.43,2.26l-.12.6.24.12a1.84,1.84,0,0,0,.7-1.68l-.12-.58.12-.48c0-.32,1.36-.48,4.09-.48h.46l.24-.12c-.39-2.67-.58-4.3-.58-4.87L422,5q.09,0-.39-.12a64.67,64.67,0,0,1-7.13.24h-.6c-.94,0-1.42-1-1.42-2.85a1.22,1.22,0,0,0,.12-.6V.58q.19-.36.36-.36h17.62c.79,0,1.18.28,1.18.82s0,1.2-.12,2.16l.12.24q-.12,0-.12,1.41c0,1.19-.63,1.78-1.9,1.78a7.21,7.21,0,0,1-1.31-.36l-2.26.36v.12q0,.2.48.36l.24-.12q.6,0,.6.24c2.93.23,4.39.55,4.39,1a.88.88,0,0,0-.12.46v3.21c0,.4,0,1-.12,1.78q.12,0,.12.24c-.08.79-.2,1.19-.36,1.19h-10a36,36,0,0,1-.46,4l.12.59h8.81a.21.21,0,0,1,.24.24v.24l-.6.12h-1.77a1.19,1.19,0,0,0-.6.7.11.11,0,0,1,.12.12l1.18-.12h1.67c.31,0,.78-.39,1.42-1.18h.12a.21.21,0,0,1,.24.24v1.3c0,.56,0,1.43.12,2.62a2.63,2.63,0,0,1-2.14.71h-1.55C427.5,24.69,427.11,23.7,427.11,21.72Zm-14.53-2.25a1.07,1.07,0,0,1,1-.48h2.38l.58-.12a2.74,2.74,0,0,1,.36,1.07h-.12c.07,1.26.12,2,.12,2.26a.92.92,0,0,0,.12.36.11.11,0,0,0-.12.12v.6l.12.58a2.58,2.58,0,0,1-1.66.83h-1.9Q412.88,24.69,412.58,19.47Z"/><path class="cls-1" d="M453.89,24.69h-6.32c-.82,0-1.3-.5-1.42-1.52V22.11c0-.11-.12-.22-.34-.34h-.24a9.14,9.14,0,0,1-.47,2v.83a.88.88,0,0,1-.47.11H443c-.34,0-1.08-.58-2.22-1.76a16.39,16.39,0,0,1-2.22.71c-.21.62-.56.94-1.06.94h-1.76a1.33,1.33,0,0,1-.82-.35q-.12-2.53-.24-9.38c.32-.85.67-1.28,1.06-1.28l.7.1.12-.22v-.24c-1.32-.16-2-.39-2-.7a5.89,5.89,0,0,1-.12-.94q-.12-7.86-.12-9.26c-.08-.41-.12-.65-.12-.7.26-.86.65-1.29,1.18-1.29h10.46c1.41,0,3.32,0,5.74-.11a4.72,4.72,0,0,1,1.64.46,32.63,32.63,0,0,1,1.16,9.26v5l.12.7-.12.24c.08,2.42.12,4.33.12,5.74v2.1A1,1,0,0,1,453.89,24.69Zm-8-4.8c-.08-2.23-.16-3.6-.23-4.1a4.25,4.25,0,0,0,.12-.94v-.36c0-.07-.05-.1-.12-.1a2,2,0,0,0,.23-.94V13c-.16-2.3-.23-3.55-.23-3.74V5.71l-.12-.58h-1.8c-.55,0-.82,1.13-.82,3.4a3.77,3.77,0,0,0-.12.46h-.34c-.49-.47-.84-.7-1.06-.7a16.15,16.15,0,0,1-2.8.48l-2-.24v.24c0,.23.7.42,2.1.58h2.36c.59,0,1.25.63,2,1.88q0,1.71-.82,7.84a1.12,1.12,0,0,0,1.06.82Z"/><path class="cls-1" d="M470.67,21.72v-.48h-.12c-.32,0-.52,1.07-.6,3.22v.12h-6.44c-.81,0-1.68-1-2.61-3a1,1,0,0,1,.12-.48,9.15,9.15,0,0,1-.12-1.3V18.51l-.24-.34c-.83,0-1.71,0-2.62.12-1-.14-1.54-.34-1.54-.6v-2.5q0-.24.36-.24v-.24l-.36-.59c.08-1.87.12-3.14.12-3.8a.83.83,0,0,1,.12-.36c1.7.08,2.88.12,3.56.12.95,0,1.43.75,1.43,2.26l-.12.6.24.12a1.84,1.84,0,0,0,.7-1.68l-.12-.58.12-.48c0-.32,1.37-.48,4.09-.48h.46l.24-.12c-.39-2.67-.58-4.3-.58-4.87l-1.2.12q.09,0-.39-.12a64.55,64.55,0,0,1-7.13.24h-.6Q456,5.09,456,2.24a1.37,1.37,0,0,0,.11-.6V.58q.19-.36.36-.36h17.62c.79,0,1.18.28,1.18.82s0,1.2-.12,2.16l.12.24q-.12,0-.12,1.41c0,1.19-.63,1.78-1.89,1.78A7,7,0,0,1,472,6.27l-2.26.36v.12q0,.2.48.36l.24-.12q.6,0,.6.24c2.93.23,4.39.55,4.39,1a.88.88,0,0,0-.12.46v3.21c0,.4,0,1-.12,1.78q.12,0,.12.24c-.08.79-.2,1.19-.36,1.19h-10a33.69,33.69,0,0,1-.46,4l.12.59h8.82c.16,0,.23.08.23.24v.24l-.59.12h-1.78a1.23,1.23,0,0,0-.6.7.11.11,0,0,1,.12.12L472,21h1.67c.31,0,.78-.39,1.42-1.18h.12a.21.21,0,0,1,.24.24v1.3c0,.56,0,1.43.12,2.62a2.62,2.62,0,0,1-2.13.71h-1.56C471.06,24.69,470.67,23.7,470.67,21.72Zm-14.53-2.25a1.07,1.07,0,0,1,1-.48h2.38l.58-.12a2.45,2.45,0,0,1,.36,1.07h-.12c.08,1.26.12,2,.12,2.26a.92.92,0,0,0,.12.36.11.11,0,0,0-.12.12v.6l.12.58a2.58,2.58,0,0,1-1.66.83H457Q456.44,24.69,456.14,19.47Z"/><path class="cls-1" d="M492.38,21.72v-.48h-.13c-.31,0-.51,1.07-.59,3.22v.12h-6.45c-.81,0-1.68-1-2.61-3a1,1,0,0,1,.12-.48,9.15,9.15,0,0,1-.12-1.3V18.51l-.24-.34q-1.25,0-2.61.12c-1-.14-1.54-.34-1.54-.6v-2.5q0-.24.36-.24v-.24l-.36-.59c.08-1.87.12-3.14.12-3.8a.83.83,0,0,1,.12-.36c1.69.08,2.88.12,3.55.12,1,0,1.44.75,1.44,2.26l-.12.6.24.12a1.86,1.86,0,0,0,.7-1.68l-.12-.58.12-.48q0-.48,4.08-.48h.46l.24-.12c-.39-2.67-.58-4.3-.58-4.87l-1.2.12q.09,0-.39-.12a64.45,64.45,0,0,1-7.12.24h-.6c-.95,0-1.42-1-1.42-2.85a1.22,1.22,0,0,0,.12-.6V.58q.18-.36.36-.36h17.62c.78,0,1.18.28,1.18.82s0,1.2-.12,2.16l.12.24q-.12,0-.12,1.41c0,1.19-.64,1.78-1.9,1.78a7,7,0,0,1-1.32-.36l-2.25.36v.12q0,.2.48.36l.23-.12q.6,0,.6.24c2.93.23,4.39.55,4.39,1a1,1,0,0,0-.11.46v3.21c0,.4,0,1-.12,1.78q.12,0,.12.24c-.08.79-.2,1.19-.36,1.19h-10a33.69,33.69,0,0,1-.46,4l.12.59h8.82a.21.21,0,0,1,.24.24v.24l-.6.12H493a1.21,1.21,0,0,0-.59.7c.07,0,.11,0,.11.12l1.18-.12h1.68c.31,0,.78-.39,1.42-1.18h.12c.16,0,.23.08.23.24v1.3c0,.56.05,1.43.13,2.62a2.63,2.63,0,0,1-2.14.71h-1.56Q492.38,24.69,492.38,21.72Zm-14.53-2.25a1,1,0,0,1,.95-.48h2.38l.58-.12a2.45,2.45,0,0,1,.36,1.07H482c.08,1.26.12,2,.12,2.26a.92.92,0,0,0,.12.36.11.11,0,0,0-.12.12v.6l.12.58a2.56,2.56,0,0,1-1.66.83h-1.89Q478.14,24.69,477.85,19.47Z"/><path class="cls-1" d="M509.19,0q9.23.12,13.85.12h4.88l.6.12V1.91l-.12,1.42h.12a.92.92,0,0,0-.12.36q0,3.83-.24,9.2h.12a.76.76,0,0,0-.12.35q0,1-.12,5.73a.77.77,0,0,1-.83.6,1.7,1.7,0,0,1-1.08-.6q-1.1,0-4.53-.24a5.34,5.34,0,0,1-1.56.6,2.36,2.36,0,0,0-.71-1.92h-1.56l-.7-.12q-.35,0-.6.84.24,3.69.24,6a1.68,1.68,0,0,1-1.08.59h-1.55A1.68,1.68,0,0,1,513,24.1l-.71.59h-3.7c-.32-.1-.47-.46-.47-1.07q.47-5,.59-9.06l-.12-.24.12-.72-.12-.24a.89.89,0,0,0,.12-.47.9.9,0,0,0-.12-.48,1,1,0,0,0,.12-.48v-.24a.11.11,0,0,0-.12-.12l.12-.24V4.17a9.28,9.28,0,0,1,.12-1.3l-.12-.24a3.53,3.53,0,0,0,.12-.84l-.12-.23a1,1,0,0,0,.12-.48V.72a.11.11,0,0,0-.12-.12Q508.88,0,509.19,0Zm4.29,4.77L513.36,6v.48q0,.87.36,1h2.75l.24.12q0,1.44-1,1.44c-.55,0-.83.35-.83,1a9.46,9.46,0,0,1-.24,1.44l.36.6v1.31q0,.24.24.24h1.07c.16,0,.4-.61.72-1.67l1.3-.24c1.27.28,1.91.68,1.91,1.2s-.12.66-.12.71l.24.12h1.2c.24,0,.52-1.11.84-3.35a3,3,0,0,1-.72-1.65h-.12l-1.2.12a6.43,6.43,0,0,1-.48-1.2l.36-.24h.6c.56,0,1.44,0,2.63-.12a.94.94,0,0,1,.11-.36c0-.08,0-.12-.11-.12l.11-.6V4.89h-3.1a7.56,7.56,0,0,0-1.07,2.27l-.6.12h-2a9.13,9.13,0,0,0,.24-2.15.83.83,0,0,1-.12-.36Zm8.24,14.56q3.93.15,3.93,1a2.65,2.65,0,0,1,2.27,1.07c0,2.22-.64,3.33-1.91,3.33H520.4a1.14,1.14,0,0,1-1.07-.83c.37-2.78.69-4.17.95-4.17A6.35,6.35,0,0,0,521.72,19.33Z"/><path class="cls-1" d="M531.36.14h6.17c.64,0,1,.87,1,2.61.08,0,.16.27.24.82q-.15.72-1.77.72v.36a20.65,20.65,0,0,0,4,.6A15,15,0,0,1,541.56,8a3,3,0,0,0-.46,1.2v.58h1.66c1.1,0,1.65-1.06,1.65-3.19l.12-1.08h.24a1.14,1.14,0,0,0,.82.48h1.08c.76.16,1.2.24,1.3.24h.36c.83,0,2.13.08,3.91.24V6.31a7.23,7.23,0,0,0-3.91-.84c-.29-.55-.57-.82-.84-.82s-.59,0-1.3.12a4.11,4.11,0,0,1-2.25-3.68c.3-.63.7-.95,1.19-.95h6.51c.33,0,.57,1.54.72,4.63.08,0,.16.43.24,1.3a.11.11,0,0,1-.12.12l.12.59V10.1a.11.11,0,0,0,.12.12l-.12.24v.72a.11.11,0,0,0,.12.12l-.12.22V12a1,1,0,0,0,.12.48.89.89,0,0,0-.12.47v.12a.94.94,0,0,0,.12.47.94.94,0,0,0-.12.47v.12a.9.9,0,0,0,.12.48,1,1,0,0,0-.12.48.88.88,0,0,0,.12.46,1,1,0,0,0-.12.48v.36a.11.11,0,0,0,.12.12l-.12.24v4.39a9.28,9.28,0,0,1-.12,1.3l.12.24-.12.24c.08.56.12.87.12.94-.11.56-.27.83-.48.83h-.7q-1.08,0-1.08-1.77c-.27-.72-.47-1.08-.59-1.08h-.24V22a8.21,8.21,0,0,1,.24,1.56c-.06.78-.21,1.17-.46,1.17h-4.4q-.84,0-.84-1.53l.48-1-.36-3c0-.48.28-.71.84-.71a4.07,4.07,0,0,1,1.42.59l1.78-.36c1.1.21,1.66.76,1.66,1.66.24,1.14.35,1.73.35,1.78h.24l.12-.58V19.7q0-1.36-2.37-1.65l-2.14.12a19.14,19.14,0,0,0-2.25-.94c-.79.08-1.38.12-1.78.12a9.11,9.11,0,0,1-.82-3.1c0-.26.43-.5,1.3-.71v-.11c0-.28-1-.52-3-.72H539q-.24,0-.24.36a7.07,7.07,0,0,0,.12,1.3c-.11,2.21-.35,3.32-.72,3.32a22.13,22.13,0,0,1-4.15-.94l-.72.12c0-.13-.15-.25-.46-.36a10.71,10.71,0,0,0-1.67.24,1.63,1.63,0,0,1-1.06-.6l.12-.82V8.56a9.28,9.28,0,0,1,.12-1.3L530.18,7q.12-2,.12-3.09V1.2C530.4.49,530.75.14,531.36.14ZM532.79,17c0,.46.52.7,1.54.7.15.48,1.06.72,2.74.72q1.77,1.26,1.77,4.75H539c-.18,1-.54,1.53-1.07,1.53h-1.42c-.21,0-.64-.27-1.3-.83h-.84c-.11.56-.27.83-.48.83H531a1,1,0,0,1-1-.59,3.5,3.5,0,0,0,.36-1.18c-.08-2.73-.12-4.39-.12-5C530.3,17.71,531.13,17.4,532.79,17Z"/><path class="cls-1" d="M570,.22h1.56a2.63,2.63,0,0,1,2.13.72c-.08,1.18-.12,2.05-.12,2.6V4.85a.21.21,0,0,1-.24.24h-.12c-.64-.79-1.11-1.19-1.42-1.19H570.1l-1.18-.12a.11.11,0,0,1-.12.12,1.16,1.16,0,0,0,.6.71h1.78l.59.12V5a.21.21,0,0,1-.23.24h-8.82l-.12.6a33.72,33.72,0,0,1,.46,4h10c.16,0,.28.4.36,1.18q0,.24-.12.24.12,1.2.12,1.8v3.19a.92.92,0,0,0,.12.48c0,.4-1.46.72-4.39,1q0,.24-.6.24l-.24-.12q-.48.17-.48.36v.12l2.26.34a7,7,0,0,1,1.32-.34q1.89,0,1.89,1.77c0,1,0,1.42.12,1.42l-.12.24c.08,1,.12,1.67.12,2.14s-.39.83-1.18.83H554.63c-.11,0-.23-.11-.36-.35V23.28a1.12,1.12,0,0,0-.12-.6c0-1.9.48-2.86,1.42-2.86h.6a64.67,64.67,0,0,1,7.13.24q.48-.12.39-.12l1.2.12c0-.58.19-2.2.58-4.87l-.24-.12h-.46c-2.73,0-4.09-.16-4.09-.48l-.12-.47.12-.6a1.81,1.81,0,0,0-.7-1.66l-.24.12.12.6c0,1.5-.48,2.25-1.43,2.25-.68,0-1.86,0-3.56.12a.92.92,0,0,1-.12-.36c0-.67,0-1.93-.12-3.79l.36-.6V10q-.36,0-.36-.24V7.23c0-.26.52-.46,1.54-.6.91.08,1.78.12,2.62.12l.24-.36V5.09a9.14,9.14,0,0,1,.11-1.31.9.9,0,0,1-.11-.46c.93-2,1.8-3,2.61-3h6.44V.46c.08,2.13.28,3.2.6,3.2h.12V3.2C568.8,1.21,569.19.22,570,.22Zm-14.87,0H557a2.66,2.66,0,0,1,1.66.82l-.12.6v.6a.11.11,0,0,0,.12.12.83.83,0,0,0-.12.36q0,.36-.12,2.25h.12A2.42,2.42,0,0,1,558.19,6l-.58-.1h-2.38a1.07,1.07,0,0,1-1-.48C554.47,2,554.75.22,555.11.22Z"/><path class="cls-1" d="M588.78.14h2.92c.54,0,1,.5,1.3,1.52,0,.94-.43,1.42-1.3,1.42-2.19,0-3.28.23-3.28.7a9.19,9.19,0,0,0-.48,1.3.11.11,0,0,1,.12.12c.88-.87,1.47-1.3,1.76-1.3a3,3,0,0,0,.48-.12,19.8,19.8,0,0,0,2.12.12h.34q.24,0,.24.24a2.16,2.16,0,0,1-.46,1.06v.7A4.46,4.46,0,0,1,592.3,7c.39,2,.66,2.94.82,2.94,1.41,0,2.12-.2,2.12-.6.26-3.22.61-4.82,1.06-4.82a7.94,7.94,0,0,0,1.52-.1,13.07,13.07,0,0,0,1.52.1h.94c.79,0,1.18,1.37,1.18,4.12V9.66l.24.12c.8-.08,1.42-.12,1.88-.12a.21.21,0,0,0,.24-.24V2c.31-1.1.85-1.64,1.64-1.64,0-.08.42-.12,1.18-.12h4.46a1.47,1.47,0,0,1,1.18.82V12.83c0,.21-.32.36-.94.47h-1.76c-.26,0-.7.27-1.3.82a10.18,10.18,0,0,0-1.54.12v.47a32.05,32.05,0,0,0-1.52,4.81l-.24.12h-2.7c-.54,0-.89-.67-1.06-2l-.12-.23a9,9,0,0,0,.12-1.29v-.24a2.51,2.51,0,0,1-.7-1.06c-.43,0-2,0-4.82.12a4.19,4.19,0,0,0-.58,1.88,1.68,1.68,0,0,0,.34,1.06v.35a2.59,2.59,0,0,1-.94,1.18h-.1c-.65-.14-1-.3-1.06-.47l-.82.12h-2.82v.23a28.6,28.6,0,0,1,2.92.35v.12c-.23,1.06-.34,1.64-.34,1.76a4.27,4.27,0,0,1,.24,1.06v.47c0,1.1-.31,1.64-.94,1.64h-4.12c-1.8,0-2.7-.15-2.7-.47l-.24-3.64a3.3,3.3,0,0,1,2-.7q1.73.12,3.06.12v-.12c0-.14-.51-.33-1.54-.59a6.61,6.61,0,0,0-3.16-.71l-.36-.7a40.38,40.38,0,0,1,.48-5.64c-.08-2-.12-3.65-.12-4.82V3.2c0-2,.43-2.94,1.28-2.94S588,.14,588.78.14Zm20.9,14.34h.84c.85,0,1.28,1.09,1.28,3.28.16,2.38.24,3.9.24,4.58-.08,1.49-.27,2.24-.58,2.24h-7.3a.21.21,0,0,1-.24-.24c.08-1.06.12-1.8.12-2.23a1.45,1.45,0,0,1-.22-.71c0-.47.55-.7,1.64-.7q.88-.49,1.76-4.58c0-.79.55-1.18,1.64-1.18A.79.79,0,0,1,609.68,14.48Z"/><path class="cls-1" d="M626.45,18.9a3.93,3.93,0,0,1,.34.94l-.12.24c.08,1.06.12,1.85.12,2.36h.12l-.12.24v.6a.94.94,0,0,0,.12.47c0,.37-.56.68-1.66.94h-1.9c-.37,0-.65-1.77-.82-5.33a2,2,0,0,1,.94-.36h2.38ZM624,.19h18c.11,0,.23.12.35.36V1.61a1.16,1.16,0,0,0,.12.59C642.42,4.1,642,5,641,5h-.6a64.48,64.48,0,0,1-7.11-.24,3.31,3.31,0,0,1-.82.12L631.3,4.8q0,.86-.6,4.86l.24.12h.48c3,0,4.49.16,4.49.47l.12.48-.12.58a1.8,1.8,0,0,0,.7,1.66l.24-.12-.12-.58c0-1.5.48-2.26,1.42-2.26.67,0,1.86,0,3.56-.11a.76.76,0,0,1,.12.35c0,.67,0,1.93.12,3.8-.3.62-.69.94-1.18.94h-3.08c-.4,0-.76-.36-1.08-1.06h-.12c0,.7-.27,1.06-.82,1.06H631.3c-.08,1.32-.24,2.74-.48,4.25a1,1,0,0,1,.12.48h9.23q.24,0,.24.24v.24l-.6.12h-1.76a1.13,1.13,0,0,0-.6.7.11.11,0,0,1,.12.12l1.18-.12h1.66c.3,0,.78-.39,1.42-1.18H642a.23.23,0,0,1,.23.24v1.3c0,.56,0,1.42.12,2.6a2.61,2.61,0,0,1-2.13.71h-1.54c-.79,0-1.18-1-1.18-3v-.48h-.12c-.34,0-.54,1.11-.6,3.32H630.1c-1,0-2-1-2.83-3a1,1,0,0,1,.11-.48,9,9,0,0,1-.11-1.3v-1.3q0-.3-.48-.36c-.63,0-1.46,0-2.48.12-.95-.16-1.42-.36-1.42-.59V15.23a.11.11,0,0,0-.12-.12l.12-.24v-.12a3.73,3.73,0,0,0-.12-.94q0-.24.12-.24c-.08-.79-.12-1.38-.12-1.78V8.6a.9.9,0,0,0-.12-.48c0-.4,1.46-.71,4.38-.94,0-.14.19-.22.59-.24l.24.12c.31-.13.46-.25.46-.36V6.58l-2.23-.36a7.45,7.45,0,0,1-1.3.36c-1.27,0-1.9-.59-1.9-1.78,0-.94,0-1.42-.12-1.42l.12-.24q-.12-1.41-.12-2.13C622.77.46,623.16.19,624,.19Z"/><path class="cls-1" d="M651.81.38q.68,0,1.07,8.88a1.73,1.73,0,0,0-.12.84v.36l.12.24c-.16,0-.24.27-.24.82V12c0,.19.08,1.46.24,3.79v3.57a1.36,1.36,0,0,0,.24.7l.82-.12h2.86c.6,0,1,.48,1.06,1.44,0,.11-.2.23-.59.34-.43,1.12-.87,1.68-1.31,1.68.27.62.47.94.6.94a5.53,5.53,0,0,0,1.06-1.66c.87,0,1.31-.24,1.31-.72a7.82,7.82,0,0,0-.24-.94V20.3q.19-.36.36-.36h2.09c.53,0,.89.6,1.06,1.78a6.73,6.73,0,0,0-.6,1.44c0,1-.28,1.53-.82,1.53H645.52l-.24-.11a35.06,35.06,0,0,1-1.18-9.49V10L644,9.14A.11.11,0,0,0,644.1,9C644,6.59,644,4.65,644,3.21V1.08a1,1,0,0,1,.6-.94H651Z"/><path class="cls-1" d="M677.92.14a5.89,5.89,0,0,0,.94.12Q680,.14,681.8.14c1.17,0,1.76.16,1.76.48v.7a3.73,3.73,0,0,0,.12.94,9.37,9.37,0,0,1-.46,2.58,38.25,38.25,0,0,0,.58,4.58l-.48,2v.12l.12.82-.34.24h-3.18c-1.41.18-2.12.33-2.12.46a2.31,2.31,0,0,0,1.06.48H680c.36,0,.76.42,1.18,1.28a9.82,9.82,0,0,0,2.46.6,7.15,7.15,0,0,1,.36,1.76,11.21,11.21,0,0,0-.6,2L683.8,22c-.25,1.73-.61,2.59-1.06,2.59H669.46a.21.21,0,0,1-.24-.24v-.23a1.34,1.34,0,0,0,.36-.83V22.11a19.62,19.62,0,0,0-.12-2.11l.12-.48c-.31-1.72-.66-2.5-1.06-2.34h-.12a6.1,6.1,0,0,1,.48,2.82v3.17a6.76,6.76,0,0,1-1.18,1.41h-2.24l-.58.11q-.33,0-.58-6.93a9.36,9.36,0,0,1,2.7-.47,5.43,5.43,0,0,0,1.18.12l.1-.23a9.08,9.08,0,0,0-2.82-.71c-.93-.43-1.4-1.45-1.4-3-.08-1.38-.12-2.2-.12-2.47a9.06,9.06,0,0,1,.48-2l-.36-.83.36-.59-.36-7a.11.11,0,0,0,.12-.12l.24.12a1.88,1.88,0,0,1,.94-.24h7Q674.85.26,677.92.14Zm-5.28,4.7-.48,4.46a.92.92,0,0,1,.12.36h2.24a1.52,1.52,0,0,0,.94-1.3l.24-.12h5.4V8q-5.88-.57-5.88-.94c-.13-1.5-.28-2.24-.46-2.24l-.84.12C673.24,4.88,672.81,4.84,672.64,4.84Zm.94,10.1H673l-.22.12.22,2.12a2.35,2.35,0,0,0-.58,1.17v.71l.12.58h2.34c.13,0,.28-.16.48-.47v-.35a6.3,6.3,0,0,0-.12-1.18l.12-.46a7.73,7.73,0,0,0-.36-2.36Z"/><path class="cls-1" d="M693.57.38q.69,0,1.08,8.88a1.73,1.73,0,0,0-.12.84v.36l.12.24c-.16,0-.24.27-.24.82V12c0,.19.08,1.46.24,3.79v3.57a1.36,1.36,0,0,0,.24.7l.82-.12h2.85c.61,0,1,.48,1.06,1.44,0,.11-.19.23-.58.34-.43,1.12-.87,1.68-1.31,1.68.27.62.47.94.59.94a5.13,5.13,0,0,0,1.06-1.66q1.32,0,1.32-.72a7.82,7.82,0,0,0-.24-.94V20.3q.19-.36.36-.36h2.08c.54,0,.89.6,1.06,1.78a7.9,7.9,0,0,0-.59,1.44c0,1-.28,1.53-.83,1.53H687.28l-.24-.11a35.48,35.48,0,0,1-1.17-9.49V10l-.12-.84a.11.11,0,0,0,.12-.12c-.08-2.43-.12-4.37-.12-5.81V1.08a1,1,0,0,1,.59-.94h6.41Z"/><path class="cls-1" d="M706.78,0q9.24.12,13.85.12h4.88l.6.12V1.91L726,3.33h.12a.92.92,0,0,0-.12.36q0,3.83-.24,9.2h.12a.76.76,0,0,0-.12.35q0,1-.12,5.73a.77.77,0,0,1-.83.6,1.7,1.7,0,0,1-1.08-.6q-1.1,0-4.53-.24a5.44,5.44,0,0,1-1.55.6,2.34,2.34,0,0,0-.72-1.92h-1.56l-.7-.12q-.35,0-.6.84.24,3.69.24,6a1.68,1.68,0,0,1-1.07.59h-1.56a1.68,1.68,0,0,1-1.08-.59l-.71.59h-3.69c-.32-.1-.48-.46-.48-1.07q.48-5,.59-9.06l-.11-.24.11-.72-.11-.24a1,1,0,0,0,.11-.47,1,1,0,0,0-.11-.48,1.06,1.06,0,0,0,.11-.48v-.24c0-.08,0-.12-.11-.12l.11-.24V4.17a9.28,9.28,0,0,1,.12-1.3l-.12-.24a3.53,3.53,0,0,0,.12-.84l-.12-.23a1,1,0,0,0,.12-.48V.72A.11.11,0,0,0,706.3.6Q706.46,0,706.78,0Zm4.29,4.77L711,6v.48q0,.87.36,1h2.75l.24.12c0,1-.32,1.44-.95,1.44s-.84.35-.84,1a9.46,9.46,0,0,1-.24,1.44l.36.6v1.31q0,.24.24.24h1.07c.16,0,.4-.61.72-1.67l1.3-.24q1.92.42,1.92,1.2a5.39,5.39,0,0,0-.12.71l.23.12h1.2c.24,0,.52-1.11.84-3.35a3,3,0,0,1-.72-1.65h-.12l-1.2.12a5.94,5.94,0,0,1-.47-1.2l.36-.24h.59q.84,0,2.64-.12a.89.89,0,0,1,.1-.36c0-.08,0-.12-.1-.12l.1-.6V4.89h-3.1A7.56,7.56,0,0,0,717,7.16l-.6.12h-2a9.13,9.13,0,0,0,.24-2.15.83.83,0,0,1-.12-.36Zm8.24,14.56q3.93.15,3.93,1a2.65,2.65,0,0,1,2.27,1.07c0,2.22-.63,3.33-1.91,3.33H718a1.15,1.15,0,0,1-1.07-.83q.55-4.17,1-4.17A6.44,6.44,0,0,0,719.31,19.33Z"/><path class="cls-1" d="M747.51.14a.83.83,0,0,0,.36.12V1c0,.23-.24.62-.72,1.18,0,2-.43,2.94-1.28,2.94h-8.58c-.55,0-.82,1.13-.82,3.4l-.12.48H736c-.49-.48-.84-.72-1.06-.72a16.31,16.31,0,0,1-2.82.48l-2-.24v.24c0,.24.71.43,2.12.58h2.36c.59,0,1.26.62,2,1.88a79.21,79.21,0,0,1-.84,7.88,1.15,1.15,0,0,0,1.06.82h2.94q.21,0,.48-1.53c.15,0,.22,0,.22-.12l.24.12h.24c.58,0,1.67-.08,3.28-.23a16.31,16.31,0,0,1,2.36.23c.17,0,.4-.26.7-.71l-.24-.11a3,3,0,0,0-.82.23c-1.44-.23-2.26-.35-2.46-.35s-.5,0-1.18.12c-1.8-.19-2.7-1.09-2.7-2.71V13.06l-.12-.7c.21-1,.6-1.53,1.18-1.53h5.4a2,2,0,0,1,1.64.94v7.17A7.8,7.8,0,0,0,747,22.7v.94c0,.7-.43,1.05-1.28,1.05h-.6c-1.7,0-2.75-.31-3.16-.94h-.82v.83l-.6.11h-4.1c-.35,0-1.1-.58-2.24-1.76a16.37,16.37,0,0,1-2.24.71c-.19.62-.54.94-1,.94h-1.78a1.31,1.31,0,0,1-.82-.36q-.12-2.37-.22-9.4c.31-.86.65-1.28,1-1.28l.72.11.12-.23v-.24c-1.33-.16-2-.4-2-.7a6,6,0,0,1-.12-.94q-.12-7.9-.12-9.28c0-.06,0-.29-.12-.7.26-.87.66-1.3,1.18-1.3H740Q742.63.26,747.51.14Z"/><path class="cls-1" d="M750.74.14h1.18c1.8,0,2.7.27,2.7.82a.11.11,0,0,1,.12.12v1.3a.79.79,0,0,0,.46.82,6.44,6.44,0,0,1,.6-2,4.08,4.08,0,0,1-.24-.94l.24-.12h1.4q.24,0,.24.24a5.6,5.6,0,0,1-.24,1.52q.12,3.63.12,5.76v10c0,.24-.55.4-1.64.48L754.5,18l-.12.23v.12a6.19,6.19,0,0,0,1.42.59h1.06a.92.92,0,0,1,.58.82h2c.54-.33.82-.57.82-.7q.12-2.25.12-3.06l.34-.24h.12l.94.83a11.8,11.8,0,0,1,3.3-.47h.34a.11.11,0,0,1,.12.12l.24-.12a6.75,6.75,0,0,0,.94.23l.12-.23a6.27,6.27,0,0,0-2.46-.59h-2.6c-1-.91-1.52-1.46-1.52-1.65,0-.37,0-1.58.12-3.64l.24-.12-.12-.22A39.41,39.41,0,0,0,761.2,4c0-.68,0-1.85-.12-3.52h.12a15.83,15.83,0,0,1,1.4,1.4,6.1,6.1,0,0,1,2.12-.7c.37-.63.61-.94.7-.94h2.72c.3,0,.46,1.44.46,4.34q.12,3.95.12,5.76a4.47,4.47,0,0,1-.7.94h-.72c-.07,0-.1,0-.1-.12q-.48.18-.48.36a10,10,0,0,0,2.12.46c.08.56.12.87.12.94q0,5.22.22,10.7c-.39.62-.62.94-.7.94h-14c-1.21,0-3,0-5.52.11l-.12-.23a1.64,1.64,0,0,1,.82-1.65,26.93,26.93,0,0,0,.24-3.52V15.53a.89.89,0,0,0-.12-.47l.12-.24-.12-.23.12-.23-.12-.24.12-.24a.9.9,0,0,1-.12-.46h.12l-.12-.24v-.12a.11.11,0,0,1,.12-.12l-.12-.23V12.6a.11.11,0,0,1,.12-.12l-.12-.24V12c0-.07,0-.11.12-.11l-.12-.23v-.12a.11.11,0,0,1,.12-.12l-.12-.24v-.12c0-.07,0-.11.12-.11l-.12-.23V10.6a.11.11,0,0,1,.12-.12l-.12-.24v-.12c0-.07,0-.11.12-.11l-.12-.23V6.84c0-.9,0-2.28-.12-4.12h.12l-.12-.22V2.38a.11.11,0,0,1,.12-.12.11.11,0,0,0-.12-.12C749.68.8,750,.14,750.74.14Z"/><path class="cls-1" d="M722,24.68h6.39c.64,0,1,.23,1,.68s.08,1.89.2,4.33c-.21.63-.57.94-1.08.94h-.7c-.49,0-1.24-.75-2.26-2.26-.16,0-.23.12-.23.24v.48a2.88,2.88,0,0,0,.23,1.3l-.36.24h-3.07c-.23,0-.5-.59-.82-1.78a34.6,34.6,0,0,0,0-3.81C721.33,24.8,721.56,24.68,722,24.68Z"/></g></g></svg>