<svg xmlns="http://www.w3.org/2000/svg" viewBox="0 0 694.25 657.84">
    <defs>
        <style>.cls-1{fill:#fff;fill-rule:evenodd;}.cls-2{font-size:60px;fill:#fff;font-family:Corbel-Bold,
            Corbel;font-weight:700;}.cls-3{letter-spacing:-0.02em;}.cls-4{letter-spacing:-0.04em;}.cls-5{letter-spacing:-0.04em;}
        </style>
    </defs>
    <g id="Warstwa_1">
        <path class="cls-1"
              d="M329.83,372.09l.43-.07L333,387.11l-1.41.26-.09-.39c-.22-.89-.69-2.49-1.89-2.27a3.65,3.65,0,0,0-.64.2c-.32.13-.64.27-.95.42l-.59.3-5.68,3.53,1.54,8.4,6.25,1a5.69,5.69,0,0,0,1.93.05,1.69,1.69,0,0,0,1.39-.89,5.09,5.09,0,0,0,.26-1.9v-.36l1.37-.26,1.81,9.87-1.39.25-.1-.36a4.15,4.15,0,0,0-1.65-2.17,11.64,11.64,0,0,0-4.56-1.5l-26-4.16-.83-4.48,24.39-15a5.85,5.85,0,0,0,2.23-2.24,6.31,6.31,0,0,0,.48-2.72v-.36l.78-.14-1.29,0v-.42c0-.85-.05-2.24-.82-2.77a4.91,4.91,0,0,0-2.62-.68l-21.37-.42a5.66,5.66,0,0,0-2.69.52c-.84.42-1,1.72-1,2.55v.65l-1.46,0,.35-17.12a20.74,20.74,0,0,1,1.43-7.47,15.55,15.55,0,0,1,3.69-5.5,15.13,15.13,0,0,1,5.26-3.27,16.74,16.74,0,0,1,6.16-1,16.06,16.06,0,0,1,5.85,1.17,13.67,13.67,0,0,1,4.79,3.3,14.65,14.65,0,0,1,3.19,5.4,20.39,20.39,0,0,1,1,7.19ZM631.28,225.16a38.88,38.88,0,0,1,.84,5.24,11,11,0,0,1-.42,4.11,8.17,8.17,0,0,1-2.14,3.4,8.6,8.6,0,0,1-3.15,2,8.43,8.43,0,0,1-3.59.44,10.4,10.4,0,0,1-3.7-1.09,13.16,13.16,0,0,1-3.42-2.55,19.45,19.45,0,0,1-3.13-4.4c-.14-.25-.29-.49-.44-.72a4.06,4.06,0,0,0-.51-.65,1,1,0,0,0-1.26-.18l-.26.1-1-1,6.91-6.52,1.11,1.13-.21.3a8.26,8.26,0,0,0-1.65,3.87,7.68,7.68,0,0,0,.35,3.56,7.51,7.51,0,0,0,1.64,2.65,5.25,5.25,0,0,0,3.33,1.68,3.55,3.55,0,0,0,3-1,3.36,3.36,0,0,0,1-1.75,7.38,7.38,0,0,0,0-2.48c-.3-1.87-.73-3.72-1.11-5.57a29.07,29.07,0,0,1-.57-3.93,13,13,0,0,1,.12-3.05,7.36,7.36,0,0,1,.79-2.31,8.47,8.47,0,0,1,1.41-1.85,10.2,10.2,0,0,1,9.18-2.56,9,9,0,0,1,4.59,2.59,10.86,10.86,0,0,1,1.56,2,7.43,7.43,0,0,1,.49.75l.44.75a7.28,7.28,0,0,0,.8,1,1.38,1.38,0,0,0,.6.41,1.79,1.79,0,0,0,.69-.08l.23-.06.93.94-6.27,6.18-1.09-1.11.15-.28a9.13,9.13,0,0,0,1.31-4.82,5.79,5.79,0,0,0-1.78-4,4.72,4.72,0,0,0-1.82-1.19,3.57,3.57,0,0,0-2-.15,3.43,3.43,0,0,0-1.76,1,3.51,3.51,0,0,0-.74,1,5.23,5.23,0,0,0-.35,1.84,13.51,13.51,0,0,0,.38,3.41C630.88,223.17,631.15,224.17,631.28,225.16ZM392.15,501.63l-17.69,12.21-1.12-.82,7.34-23a4.54,4.54,0,0,0,.28-2,2.63,2.63,0,0,0-.43-1.19,5.45,5.45,0,0,0-.85-.88l-.43-.34.88-1.13,10.51,7.68-.87,1.13-.45-.29a2.5,2.5,0,0,0-1.37-.46,1.11,1.11,0,0,0-.94.52,4.79,4.79,0,0,0-.56,1.19l-3.24,10.06,10.05-6.89a3,3,0,0,0,0-.89,1.58,1.58,0,0,0-.35-.71,8.81,8.81,0,0,0-1-.93l-.41-.35.87-1.12L402.68,501l-.89,1.15-.46-.33a3.66,3.66,0,0,0-1.25-.66c-.25-.06-.49.23-.62.41a3,3,0,0,0-.3.52c-.12.27-.22.54-.32.82a4.13,4.13,0,0,0-.17.45v0l-3.15,9.87,7.87-5.56a6.38,6.38,0,0,0,1.44-1.3c.24-.33.6-.9.38-1.32a4.09,4.09,0,0,0-1.15-1.3l-.44-.34.88-1.14,7.62,5.56-.86,1.1-.43-.24a3.44,3.44,0,0,0-2.37-.39,9.1,9.1,0,0,0-3.27,1.58l-18.43,12.9-1.08-.79Zm190.17,11.75-1.2.55-.21-.2a10.42,10.42,0,0,0-5.59-2.89,10.7,10.7,0,0,0-6.54.91,8.46,8.46,0,0,0-3.69,3,8.09,8.09,0,0,0-1.27,4,14.9,14.9,0,0,0,.51,4.56,29.73,29.73,0,0,0,1.72,4.73c1.41,3,3.47,6.31,6.49,8a8.07,8.07,0,0,0,7.59.24c.84-.39,2.77-1.34,3-2.29a3.93,3.93,0,0,0-.42-2.6l-1.48-3.21a9,9,0,0,0-.89-1.56,2.4,2.4,0,0,0-1.2-.83,2.92,2.92,0,0,0-1.93.18l-.38.15-.61-1.34,12.34-5.68.6,1.31-.31.2c-1.49.94-1.67,2.21-1,3.75l3.24,7-.18.2a26.83,26.83,0,0,1-9.28,6.78,27.58,27.58,0,0,1-4.31,1.61,19,19,0,0,1-3.75.65,14.21,14.21,0,0,1-3.06-.11,16.66,16.66,0,0,1-2.6-.62,15.63,15.63,0,0,1-3.41-1.67,16,16,0,0,1-3.19-2.79,17,17,0,0,1-2.64-4.12,16.31,16.31,0,0,1-1.56-6.44,15.09,15.09,0,0,1,1.13-6.15,16.16,16.16,0,0,1,3.45-5.22,17.77,17.77,0,0,1,5.26-3.66,18.15,18.15,0,0,1,3-1.12c1.5-.38,3-.63,4.56-.9a6.1,6.1,0,0,0,2-.56c.69-.32.68-1,.56-1.68l-.07-.32,1.24-.57Zm-24.51,34.11a6.5,6.5,0,0,0-1,5.14c.43,1.7,1.31,2.61,3.14,2.15a7,7,0,0,0,2.42-1.2l.19-.14.67.25.46.94,0,.55-.1.11a7,7,0,0,1-1.65,1.36,9.57,9.57,0,0,1-2.71,1.16c-3.21.81-5.6-.12-6.45-3.49a6.6,6.6,0,0,1,1.67-6l-5.77,1.46-.35-1.39.38-.12c.87-.27,2.44-.85,2.14-2a3.71,3.71,0,0,0-.24-.63c-.15-.31-.31-.62-.48-.92s-.22-.38-.34-.57l-3.89-5.43-8.28,2.08-.57,6.3a5.69,5.69,0,0,0,.08,1.93c.14.53.39,1.16,1,1.33a4.92,4.92,0,0,0,1.91.13l.37,0,.34,1.35L531,554.24l-.35-1.37.36-.13a4.12,4.12,0,0,0,2.06-1.78,11.56,11.56,0,0,0,1.2-4.65l2.46-26.21,4.42-1.11,16.59,23.35a5.83,5.83,0,0,0,2.37,2.09,6.57,6.57,0,0,0,2.75.29l.36,0,.34,1.35Zm-29.49,6.64-23.91,2.75-.17-1.44.42-.05c.84-.1,2.2-.35,2.61-1.18a5,5,0,0,0,.32-2.69l-2.45-21.33a4.12,4.12,0,0,0-1.06-2.59,3.43,3.43,0,0,0-2.67-.54l-.42.05-.17-1.43L516,523.93l.16,1.44-.42,0c-.86.1-2.21.35-2.65,1.19a4.75,4.75,0,0,0-.36,2.71l2.34,20.31a4.51,4.51,0,0,0,.94,2.53,3.17,3.17,0,0,0,2.57.52l2.11-.24a7.65,7.65,0,0,0,3.71-1.47c1.43-1.07,2.22-3.55,2.63-5.23l.07-.28,1.38-.16Zm-36.89-14.3,1,.31a12.75,12.75,0,0,1,3.15,1.53,7.82,7.82,0,0,1,2.52,2.78,7.49,7.49,0,0,1,.77,4.32,7.66,7.66,0,0,1-1.77,4.45,9.31,9.31,0,0,1-3.87,2.64,8,8,0,0,1-2.64.53,25.76,25.76,0,0,1-2.91-.13l-18.75-1.65.12-1.44.43,0c.83.08,2.23.1,2.79-.63a4.92,4.92,0,0,0,.85-2.57L475,528.62a5.61,5.61,0,0,0-.34-2.63c-.36-.86-1.63-1.09-2.45-1.16l-.67-.06.13-1.44L488,524.76a16.89,16.89,0,0,1,5.34,1.23,12.55,12.55,0,0,1,2.18,1.42,8.49,8.49,0,0,1,2,2.46,6,6,0,0,1,.72,3.62,5.91,5.91,0,0,1-1.88,4.06,8.43,8.43,0,0,1-3.45,1.93C492.43,539.61,491.93,539.73,491.43,539.83Zm-26.14,14.1-23.48-5.31.32-1.42.41.1c.82.18,2.19.39,2.86-.26a5,5,0,0,0,1.19-2.43l4.73-20.94a4.17,4.17,0,0,0-.14-2.79,3.45,3.45,0,0,0-2.35-1.39l-.41-.1.32-1.41,14.91,3.37-.32,1.41-.42-.09c-.84-.19-2.2-.39-2.9.25a4.74,4.74,0,0,0-1.23,2.44l-4.51,19.94a4.52,4.52,0,0,0,.06,2.7c.35.8,1.47,1.16,2.25,1.34l2.07.47a7.62,7.62,0,0,0,4-.17c1.71-.52,3.27-2.61,4.21-4l.16-.25,1.35.3Zm-30.08-38.35-4.35,11.16,4.19,1.63a4.22,4.22,0,0,0,3,.26,4.08,4.08,0,0,0,1.93-2.06l.17-.35,1.31.51-3.56,9.15-1.29-.5.08-.36a3.2,3.2,0,0,0-.34-2.72,5.27,5.27,0,0,0-2.25-1.55l-4.18-1.63-3,7.81c-.86,2.2-.11,3.6,2.05,4.44l1.73.67a7.77,7.77,0,0,0,2.89.63,3.9,3.9,0,0,0,2.22-.8,12.44,12.44,0,0,0,2.46-2.61l.19-.26,1.29.5L436.28,547l-22.23-8.65.53-1.35.4.15c.79.31,2.12.72,2.89.16a4.78,4.78,0,0,0,1.54-2.21l7.77-19.95a5.54,5.54,0,0,0,.4-2.67c-.13-.94-1.29-1.51-2.08-1.82l-.58-.23.52-1.35,21.33,8.3-2.53,7.27-1.28-.5,0-.33a14.82,14.82,0,0,0,.17-2.9,3.43,3.43,0,0,0-.64-1.89,4.36,4.36,0,0,0-2-1.33ZM590.11,196.3a17.24,17.24,0,0,1,4.36-4.41,14.59,14.59,0,0,1,5.57-2.41,14.82,14.82,0,0,1,6.22.08,19.87,19.87,0,0,1,11.33,7.79,14.86,14.86,0,0,1,2,11.84,17.7,17.7,0,0,1-2.6,5.71,18,18,0,0,1-4.33,4.46,15.45,15.45,0,0,1-5.45,2.46,14.43,14.43,0,0,1-6.24,0,18.39,18.39,0,0,1-6.5-2.9,17.56,17.56,0,0,1-5.24-5.34,14.48,14.48,0,0,1-2.09-6.06,16.08,16.08,0,0,1,.51-6A17.91,17.91,0,0,1,590.11,196.3Zm-7.47-18-9.36,21.75a6.38,6.38,0,0,0-.53,1.86,2.1,2.1,0,0,0,.4,1.41,4.33,4.33,0,0,0,1.84,1.3l.39.16-.57,1.33-14-6,.57-1.33.39.17c.78.33,2.09.78,2.86.27a4.8,4.8,0,0,0,1.63-2.17l9.36-21.75-4.86-2.09a2.79,2.79,0,0,0-2.21-.09,10.64,10.64,0,0,0-3,2.81l-.2.25-1.28-.55,3.33-7.29,1,.43.06.05a6.41,6.41,0,0,0,2,1.23L590,178.47a6.52,6.52,0,0,0,2.25.59h.08l1,.44-3,7.43-1.27-.54.1-.36c.27-1,.73-3,.2-4a3.67,3.67,0,0,0-1.9-1.66Zm-25-4.1-1.51-.4v-.32a9.15,9.15,0,0,0-1.33-4.81,5.9,5.9,0,0,0-3.56-2.53,4.83,4.83,0,0,0-2.17-.09,3.61,3.61,0,0,0-1.78.88,3.48,3.48,0,0,0-1,1.73,4.11,4.11,0,0,0-.11,1.26,5.19,5.19,0,0,0,.64,1.76,13.38,13.38,0,0,0,2.06,2.74c.69.75,1.43,1.46,2,2.26a37.9,37.9,0,0,1,3.4,4.08A11.09,11.09,0,0,1,556,184.5a8.29,8.29,0,0,1-.11,4,8.28,8.28,0,0,1-4.54,5.56,10.36,10.36,0,0,1-3.74.94,13.56,13.56,0,0,1-4.25-.44,19.46,19.46,0,0,1-4.93-2.2l-.75-.39a3.75,3.75,0,0,0-.76-.3,1,1,0,0,0-1.18.48l-.18.22-1.39-.37,2.62-9.12,1.53.4,0,.36a8.24,8.24,0,0,0,.57,4.17,7.44,7.44,0,0,0,2.1,2.88,7.54,7.54,0,0,0,2.77,1.46,5.3,5.3,0,0,0,3.72-.25,3.55,3.55,0,0,0,2-2.37,3.28,3.28,0,0,0,0-2,7.22,7.22,0,0,0-1.29-2.12c-1.21-1.46-2.52-2.83-3.79-4.23a27.47,27.47,0,0,1-2.49-3.1,12.4,12.4,0,0,1-1.45-2.68,7.18,7.18,0,0,1-.5-2.38,8.28,8.28,0,0,1,.28-2.32,9.68,9.68,0,0,1,2.34-4.16,10,10,0,0,1,4.24-2.72,9,9,0,0,1,5.27-.11,11.37,11.37,0,0,1,2.34.88c.28.12.54.26.81.4s.5.29.76.42a7.33,7.33,0,0,0,1.2.48,1.41,1.41,0,0,0,.73,0,2.06,2.06,0,0,0,.56-.42l.17-.17,1.27.34ZM500,168.4l12.44,15c1.09,1.32,2.79,3,4.59,3.13l.4,0V188l-15,.07v-1.4l.38-.05a3.68,3.68,0,0,0,1.13-.28.41.41,0,0,0,.27-.44,3,3,0,0,0-.76-1.35l-8.89-10.83,0,9.41a4,4,0,0,0,.79,2.75,3.72,3.72,0,0,0,2.57.76h.43v1.44l-15.21.07v-1.45h.42c.84,0,2.24-.11,2.73-.89a5.05,5.05,0,0,0,.61-2.65l-.09-21.45a4.54,4.54,0,0,0-.71-2.77,3.57,3.57,0,0,0-2.65-.8H483v-1.4l15.2-.06v1.44h-.42c-.85,0-2.22.11-2.72.91a5,5,0,0,0-.62,2.65l0,8.91,8.28-8.77a4.54,4.54,0,0,0,1.23-2.32c0-1.35-2.12-1.39-3.06-1.39h-.43v-1.44l13.73-.06V158l-.39,0a9.65,9.65,0,0,0-4.58,1.59,22.31,22.31,0,0,0-4,3.33Zm-30.17,17a10.89,10.89,0,0,1-8.3,7.06,12.1,12.1,0,0,1-6.4-.28,10.54,10.54,0,0,1-4.85-3.19c-1.64-1.95-2.53-5.22-3.05-7.68l-2.7-12.59a4.58,4.58,0,0,0-1.24-2.49,3.48,3.48,0,0,0-2.78-.26l-.41.09-.3-1.42,14.86-3.18.3,1.41-.41.09c-.83.18-2.13.57-2.47,1.44a4.84,4.84,0,0,0-.07,2.72l2.86,13.33a12.39,12.39,0,0,0,1.64,4.35,5.94,5.94,0,0,0,1.76,1.7,5.88,5.88,0,0,0,2.28.84,6.89,6.89,0,0,0,2.52-.08,7.08,7.08,0,0,0,4.31-2.82,6,6,0,0,0,1-2.28,15.37,15.37,0,0,0-.43-5.43l-2.67-12.46a4.24,4.24,0,0,0-1.32-2.57,3.65,3.65,0,0,0-2.7-.22l-.42.09-.3-1.37L475.41,157l.3,1.42-.41.09c-.82.17-2.13.56-2.47,1.41a4.85,4.85,0,0,0-.07,2.75l4.49,21a4.47,4.47,0,0,0,1.27,2.53,3.52,3.52,0,0,0,2.76.25l.41-.09.3,1.38-11.18,2.39Zm-38.91,4.47L423,193.21l.43,6.31a5.54,5.54,0,0,0,.38,1.89c.22.51.57,1.09,1.17,1.17a5.13,5.13,0,0,0,1.91-.17l.36-.09.54,1.28-9.22,3.94-.56-1.3.34-.19a4.13,4.13,0,0,0,1.75-2.07,11.7,11.7,0,0,0,.46-4.79l-1.66-26.27,4.19-1.79,20,20.48a5.79,5.79,0,0,0,2.67,1.69,6.44,6.44,0,0,0,2.76-.13l.35-.09.55,1.28-14.11,6-.57-1.31.36-.18c.82-.4,2.28-1.22,1.8-2.34a4.19,4.19,0,0,0-.34-.58c-.2-.28-.4-.56-.62-.83l-.42-.52Zm-22.23,9.49-7.1-10.79c-.59-.89-1.58-2.17-2.71-2.33a6.13,6.13,0,0,0-3.35.72l-.33.16-.77-1.17,9.5-6.25.78,1.18-.3.24a4.26,4.26,0,0,0-1.51,2,2.94,2.94,0,0,0,.05,1.83,9.42,9.42,0,0,0,1.06,2l14.08,21.39-1.14.76L386.16,202,395,215.44a6.66,6.66,0,0,0,2.63,2.42,3.7,3.7,0,0,0,3.4-.44l.35-.19.78,1.19-9.83,6.47-.79-1.18.31-.24c2-1.59,2.77-3.42,1.23-5.69l-11-16.72-.29-.06-.83-.15-1.07-.19c-1.62-.3-3.92-.56-5.46.15l-.33.16-.77-1.17,9.77-6.43ZM362.4,238.81l-5.57,6.47,3.16,5.48a5.61,5.61,0,0,0,1.17,1.52,1.69,1.69,0,0,0,1.57.53,4.93,4.93,0,0,0,1.64-1l.28-.24,1.05.91-6.55,7.6-1.06-.92.22-.31a4.18,4.18,0,0,0,.65-2.64,11.63,11.63,0,0,0-1.69-4.5l-13.06-22.85,3-3.46,27,9.57a5.82,5.82,0,0,0,3.14.34,6.56,6.56,0,0,0,2.42-1.34l.27-.23,1.06.91-10,11.62-1.08-.93.24-.32c.55-.72,1.51-2.09.58-2.89a3.62,3.62,0,0,0-.56-.37c-.3-.17-.61-.33-.92-.48s-.4-.19-.6-.27Zm-36.12,18.73-1.18-.76L333.26,244l1.22.78-.23.36c-.45.71-1.1,1.92-.71,2.77a5,5,0,0,0,1.9,1.95l18.1,11.53a7.51,7.51,0,0,0,1.55.78,2.24,2.24,0,0,0,1.49-.05,3.57,3.57,0,0,0,1.64-1.53l.31-.49,1.22.77-8.16,12.82-1.22-.77.23-.36c.45-.71,1.09-1.91.71-2.76a4.86,4.86,0,0,0-1.88-2l-18.1-11.52a4,4,0,0,0-2.76-.82,3.51,3.51,0,0,0-2.06,1.72Zm-2.47,18.65,18.26,17.29-.47,1.21-24.58.93,14,6.77a8.47,8.47,0,0,0,3.52,1,2.73,2.73,0,0,0,1.87-.62,6,6,0,0,0,1.15-1.71l.17-.36,1.32.51L335,311.7l-1.33-.51.12-.38a3.25,3.25,0,0,0-.34-3,10.81,10.81,0,0,0-3.85-2.88l-17.14-8.87a6.93,6.93,0,0,0-4.85,3.36l-.18.32-1.29-.5,4.26-10.95,21.22-.9L316.35,273l3.88-9.94,1.32.52-.12.37a10.23,10.23,0,0,0-.43,1.88,1.91,1.91,0,0,0,.39,1.28,3.41,3.41,0,0,0,1.79,1L342.92,274a10.68,10.68,0,0,0,3.06.57,2.34,2.34,0,0,0,1.41-.39,7.78,7.78,0,0,0,1.26-1.53l.19-.28,1.27.49-5.4,13.86-1.34-.52.14-.39a3.84,3.84,0,0,0,.13-2.63c-.34-.94-1.83-1.49-2.72-1.76Zm-19,43.53,11.8,2,.77-4.42a4.21,4.21,0,0,0-.35-3,4.1,4.1,0,0,0-2.39-1.48l-.38-.1.24-1.39,9.67,1.68-.24,1.36h-.36a3.22,3.22,0,0,0-2.6.87,5.43,5.43,0,0,0-1.08,2.51l-.76,4.43,8.25,1.43c2.31.4,3.55-.62,4-2.89l.31-1.83a7.76,7.76,0,0,0,0-3,4,4,0,0,0-1.23-2,12.56,12.56,0,0,0-3.05-1.89l-.29-.14.24-1.36,8,1.9L331.24,336l-1.43-.25.07-.42c.15-.85.28-2.22-.41-2.87a4.92,4.92,0,0,0-2.48-1.08l-21.09-3.65a5.38,5.38,0,0,0-2.7.13c-.89.31-1.22,1.57-1.37,2.4l-.11.62-1.43-.25L304.2,308l7.63,1-.24,1.36-.33,0a14.6,14.6,0,0,0-2.87.41,3.41,3.41,0,0,0-1.73,1,4.43,4.43,0,0,0-.91,2.2Zm19.84,108.77L334,411.42c.83-1.5,1.79-3.7,1.23-5.42l-.12-.38,1.31-.53,5.57,14-1.3.51-.18-.33a3.75,3.75,0,0,0-.68-.95.42.42,0,0,0-.51-.09c-.36.14-.79.87-1,1.2l-6.82,12.24,8.74-3.48a4,4,0,0,0,2.27-1.74,3.73,3.73,0,0,0-.24-2.68l-.15-.39,1.34-.54,5.63,14.12-1.35.54-.15-.4c-.31-.77-.92-2-1.83-2.21a5,5,0,0,0-2.68.41l-19.93,7.94a4.54,4.54,0,0,0-2.32,1.68,3.52,3.52,0,0,0,.23,2.76l.15.39-1.3.52-5.63-14.12,1.35-.53.15.39c.32.79.92,2,1.84,2.2a4.89,4.89,0,0,0,2.69-.4l8.29-3.3-11.21-4.48a4.51,4.51,0,0,0-2.6-.31c-1.25.5-.52,2.49-.17,3.36l.15.4-1.34.54-5.08-12.76,1.31-.52.18.36a9.7,9.7,0,0,0,3.15,3.67,22.62,22.62,0,0,0,4.59,2.54Zm24.1,27.95,5,6.95,6.06-1.78a5.63,5.63,0,0,0,1.77-.78,1.68,1.68,0,0,0,.88-1.39,5.14,5.14,0,0,0-.57-1.83l-.17-.33,1.13-.81,5.84,8.16-1.15.82-.25-.29a4.14,4.14,0,0,0-2.41-1.26,11.61,11.61,0,0,0-4.77.58l-25.29,7.29-2.65-3.71,15.68-24a5.92,5.92,0,0,0,1.07-3,6.53,6.53,0,0,0-.73-2.67l-.16-.33,1.13-.8L358,449.8l-1.16.83-.25-.32c-.57-.7-1.68-1.95-2.67-1.24a3,3,0,0,0-.49.45c-.24.25-.47.52-.68.78s-.29.35-.42.53Zm12.44,27.11-.42-.21-3.49-1.71,5.66-4.19.69,4.3.21-.42,1.71-3.49,4.19,5.66-4.29.69.41.21,3.49,1.72-5.66,4.18L363,486,361,489.9l-4.19-5.66ZM633.72,486l-.69,4.3-5.67-4.18,3.49-1.72.42-.2-4.3-.7,4.19-5.66,1.72,3.49.2.42.69-4.3,5.66,4.19L636,483.34l-.42.21,4.3.69-4.19,5.66Zm-16.85,25.43a11,11,0,0,1-4.76,9.81,12.08,12.08,0,0,1-6,2.31,10.53,10.53,0,0,1-5.72-1c-2.28-1.13-4.41-3.77-5.88-5.81L587,506.32a4.52,4.52,0,0,0-2.14-1.78,3.43,3.43,0,0,0-2.65.87l-.34.25-.85-1.17,12.34-8.89.84,1.17-.34.25c-.69.49-1.73,1.37-1.69,2.3a4.92,4.92,0,0,0,1,2.53l8,11.06a12.67,12.67,0,0,0,3.25,3.32,5.91,5.91,0,0,0,4.73.7,7.11,7.11,0,0,0,5.08-5.4,6,6,0,0,0,0-2.5,15.16,15.16,0,0,0-2.58-4.79l-7.44-10.34a4.26,4.26,0,0,0-2.25-1.83,3.63,3.63,0,0,0-2.56.88l-.35.25-.82-1.14,12.34-8.88.84,1.17-.34.25c-.68.49-1.72,1.36-1.69,2.29a4.83,4.83,0,0,0,1,2.54L623,506.84a4.43,4.43,0,0,0,2.18,1.81,3.52,3.52,0,0,0,2.62-.88l.35-.25.82,1.14-9.27,6.68Zm43-62.22-7.09,11.61,7.4,4.52a5.68,5.68,0,0,0,2.55.88c.94.06,1.71-1,2.14-1.7l.33-.54,1.23.75-7.91,13-1.24-.76.22-.36c.44-.72,1.08-2,.66-2.8a5.09,5.09,0,0,0-2-1.92L638,460.7a8.29,8.29,0,0,0-1.56-.75,2.34,2.34,0,0,0-1.5.07,3.54,3.54,0,0,0-1.58,1.53l-.33.54-1.23-.75,7.91-13,1.24.75-.22.37c-.44.7-1.1,2-.68,2.79a5,5,0,0,0,1.94,1.9l8.42,5.14,7.08-11.61L649,442.56a8.5,8.5,0,0,0-1.58-.76,2.21,2.21,0,0,0-1.48.07,3.58,3.58,0,0,0-1.59,1.54l-.32.54-1.24-.75,7.92-13L652,431l-.22.37c-.43.71-1.08,2-.67,2.78A5,5,0,0,0,653,436l18.29,11.15a5.45,5.45,0,0,0,2.55.88c.94.05,1.7-1,2.14-1.7l.33-.54,1.23.76-7.92,13-1.23-.76.22-.36c.45-.73,1.06-1.93.65-2.78a4.88,4.88,0,0,0-2-1.94Zm9.84-13.34.53-1.43.36.07a11.11,11.11,0,0,0,4,.16,9.43,9.43,0,0,0,3.32-1.1,9,9,0,0,0,2.53-2.13,10.2,10.2,0,0,0,1.7-3,8.56,8.56,0,0,0,.51-4.28,7.65,7.65,0,0,0-1.38-3.45,13.46,13.46,0,0,0-3.43-3,25.5,25.5,0,0,0-4.59-2.21,15.59,15.59,0,0,0-7.86-1.1,9.6,9.6,0,0,0-5.13,2.38,10.9,10.9,0,0,0-2.68,4c-1.43,3.86-.37,7.61,1.79,11l.69,1.07-4-1.46-.08-.14a20.41,20.41,0,0,1-1.68-3.87,14.34,14.34,0,0,1-.6-4.6,17.56,17.56,0,0,1,1.18-5.67,17.31,17.31,0,0,1,3.62-6,14.39,14.39,0,0,1,5.07-3.52,15.27,15.27,0,0,1,5.82-1.09,17.58,17.58,0,0,1,10.17,3.37,15,15,0,0,1,3.11,3.06,18.31,18.31,0,0,1,2.1,3.64,14.79,14.79,0,0,1,1.19,6.36,20.86,20.86,0,0,1-1.31,6.09,26.08,26.08,0,0,1-3.45,6.27,9,9,0,0,0-.92,1.63,1.61,1.61,0,0,0,.69,1.69l.21.19-.45,1.23Zm9.32-39.46-11.56-2a4.3,4.3,0,0,0-2.79.23,3.6,3.6,0,0,0-1.26,2.45l-.07.42L662,397.2l2.66-15,1.43.25-.08.42c-.14.83-.28,2.18.39,2.83a4.83,4.83,0,0,0,2.49,1.08l9.91,1.76,13.33-6.77a11,11,0,0,0,2.84-1.85,4,4,0,0,0,.87-2l.07-.42,1.43.26-2.78,15.65-1.41-.25,0-.41a5.78,5.78,0,0,0,.05-1.76c-.06-.34-.32-.46-.64-.52a5.58,5.58,0,0,0-2.32.71l-8.39,3.92,5.41,5.25A5.63,5.63,0,0,0,690,402a1.33,1.33,0,0,0,1.06-.29,2.67,2.67,0,0,0,.78-1.63l.08-.41,1.42.25-2.15,12.13-1.41-.25.05-.4a7.34,7.34,0,0,0-.54-4,13.63,13.63,0,0,0-3.06-4.09Zm0-27.34L692,369c1.07,0,2.68-.14,3.44-1a6.25,6.25,0,0,0,1.21-3.21l0-.36h1.4l.06,11.37h-1.41l0-.38a4.28,4.28,0,0,0-.85-2.35,3,3,0,0,0-1.57-1,9.7,9.7,0,0,0-2.28-.23l-25.62.15v-1.37l22.77-21.88-16.14.09a6.68,6.68,0,0,0-3.46.88,3.75,3.75,0,0,0-1.49,3.09l0,.4h-1.43l-.06-11.77h1.42l0,.39c.22,2.58,1.35,4.18,4.1,4.14l20-.12.21-.22c.2-.19.38-.4.58-.61l.74-.79c1.13-1.2,2.61-3,2.85-4.66l0-.37h1.39l.07,11.71Zm-4.25-47.47L673,313.23l-6.27-.81a5.63,5.63,0,0,0-1.92,0,1.66,1.66,0,0,0-1.37.92,4.94,4.94,0,0,0-.21,1.91l0,.36-1.37.29-2.06-9.82,1.38-.29.12.37a4.16,4.16,0,0,0,1.69,2.12,11.65,11.65,0,0,0,4.61,1.38l26.09,3.49.94,4.46-24,15.66a5.83,5.83,0,0,0-2.17,2.29,6.51,6.51,0,0,0-.41,2.73l0,.36-1.36.29-3.16-15,1.4-.29.11.39c.23.87.75,2.46,1.94,2.21a3,3,0,0,0,.64-.22c.31-.13.63-.28.93-.44l.59-.31Zm.37-40.68-25.92,1.79-.51-1.18L670,262.65a5.42,5.42,0,0,0,1.53-1.93,3.37,3.37,0,0,0,.3-1.59,6.1,6.1,0,0,0-.35-1.46l-.14-.38,1.31-.56,5.88,13.71-1.31.56-.18-.36a3.25,3.25,0,0,0-1.22-1.4,1.55,1.55,0,0,0-1.49,0,5.4,5.4,0,0,0-1.36.91l-9.9,8.77,15.21-1a3.83,3.83,0,0,0,.65-1.05,2,2,0,0,0,.07-1.06,9.11,9.11,0,0,0-.46-1.6l-.13-.38,1.31-.56,5.76,13.44-1.33.57-.17-.39a4.78,4.78,0,0,0-.93-1.51c-.32-.3-.8-.15-1.15,0a3.36,3.36,0,0,0-.67.37c-.28.21-.56.42-.83.65a6.08,6.08,0,0,0-.47.39l0,0-9.71,8.63,12.1-1a7.62,7.62,0,0,0,2.32-.48c.55-.24,1.29-.65,1.34-1.32a5.22,5.22,0,0,0-.41-2.13l-.15-.38,1.32-.57,4.21,9.8-1.29.55-.19-.32a4.38,4.38,0,0,0-2.3-1.94,11,11,0,0,0-4.39-.37l-26.37,2-.48-1.13Zm-37.52-45.42a17.34,17.34,0,0,1,5.57-2.74,14.61,14.61,0,0,1,11.9,1.68,18.28,18.28,0,0,1,5,4.79,17.86,17.86,0,0,1,3.09,6.29,14.79,14.79,0,0,1-2,11.86,18.3,18.3,0,0,1-9.89,7.32,15.32,15.32,0,0,1-5.95.53,14.34,14.34,0,0,1-5.88-2.07,18.29,18.29,0,0,1-5.19-4.88,17.64,17.64,0,0,1-3.2-6.76,14.59,14.59,0,0,1,0-6.41,16.13,16.13,0,0,1,2.45-5.48A17.94,17.94,0,0,1,637.65,235.49ZM537.89,537.74l6.21-1.57-5.32-7.56Zm-55-10.87-1,11.39,1.68.15a9.55,9.55,0,0,0,4.45-.7c1.75-.72,2.23-2.9,2.38-4.59a5.62,5.62,0,0,0-1.35-4.5,3.9,3.9,0,0,0-1.45-1,10.63,10.63,0,0,0-3-.58Zm-1.23,13.93-.82,9.31c-.07.77-.08,2,.66,2.51a5.65,5.65,0,0,0,2.55.76,14.14,14.14,0,0,0,2.06,0,5.42,5.42,0,0,0,2-.51,4.31,4.31,0,0,0,1.76-1.6,7.35,7.35,0,0,0,1-3.34,6.39,6.39,0,0,0-.67-3.85,5.44,5.44,0,0,0-2.54-2.2,13.1,13.1,0,0,0-4-1ZM597,200.56a40.08,40.08,0,0,0-3,5.27,12.19,12.19,0,0,0-1.15,5.82,6.45,6.45,0,0,0,3.17,5.16c2.55,1.74,5.2,2.25,7.82.33a26.84,26.84,0,0,0,6.28-6.48,34.29,34.29,0,0,0,3.25-5.83,11.07,11.07,0,0,0,.9-5.65,6.37,6.37,0,0,0-3-4.6,6.59,6.59,0,0,0-5.92-1.17,11.58,11.58,0,0,0-4.86,3A33.32,33.32,0,0,0,597,200.56Zm-174.21-10.4,5.89-2.51L422.27,181Zm-67.53,52.47,4.18-4.85-8.7-3.12Zm-53.8,117.48,22,.44a7.11,7.11,0,0,0,2.43-.28,2,2,0,0,0,1.18-1.12,7.47,7.47,0,0,0,.47-2.82,19.82,19.82,0,0,0-.17-3.17,7.77,7.77,0,0,0-.84-2.57,8.54,8.54,0,0,0-2.77-3,13.28,13.28,0,0,0-4-1.79,18.84,18.84,0,0,0-9.41-.09,13.57,13.57,0,0,0-4.47,2,10.51,10.51,0,0,0-3.32,3.84,13.43,13.43,0,0,0-1.37,6A12.6,12.6,0,0,0,301.49,360.11Zm18.81,37-1.16-6.3-7.89,4.82Zm30.44,67.15-3.72-5.2-5.1,7.71ZM676.08,313.62l1.32,6.26,7.77-5Zm-33.29-71.83a40.54,40.54,0,0,0-4.61,4,12.31,12.31,0,0,0-3,5.12,6.48,6.48,0,0,0,1.3,5.91c1.83,2.48,4.18,3.84,7.28,2.88a26.84,26.84,0,0,0,8.07-4.05,35,35,0,0,0,5-4.44,11.05,11.05,0,0,0,2.72-5,6.38,6.38,0,0,0-1.35-5.34,6.59,6.59,0,0,0-5.2-3.05,11.82,11.82,0,0,0-5.58,1.22A33.34,33.34,0,0,0,642.79,241.79Zm-146,171.27,1.7-37.22c1,.11,2.75.46,3.78.58,1.51.18,3,.37,4.55.58l1.52,35.9A60.39,60.39,0,0,1,496.8,413.06Zm-129.11-44.7-9.22-.6L358.7,356l9.31,1Zm185.39,18.43-.17.17.71.37Zm-14.79-5.74-.2-.21L538,381ZM419.81,343.33l-2.13-.82,1.41-1.6C419.32,341.72,419.56,342.53,419.81,343.33Zm-3.34,4.42-2.52-1,2.49-2.84,2.52,1ZM412.73,352l-2.52-1,2.49-2.84,2.53,1ZM409,356.27l-2.53-1,2.49-2.84,2.53,1Zm-3.74,4.26-2.53-1,2.5-2.84,2.52,1Zm-3.74,4.26-2.52-1,2.49-2.84,2.52,1Zm-3.74,4.26-2.52-1,2.49-2.85,2.52,1ZM394,373.31l-2.52-1,2.49-2.85,2.53,1Zm20.49-51.82-2.33-1.37,2.26-1.87c.12,1,.25,2,.39,3Zm-4.37,3.61-2.33-1.37,2.91-2.4,2.34,1.36Zm-4.37,3.61-2.33-1.37,2.91-2.4,2.34,1.36Zm-4.37,3.6L399.09,331l2.91-2.4,2.34,1.36Zm-4.37,3.61-2.33-1.36,2.91-2.41,2.34,1.37Zm-4.37,3.61-2.33-1.36,2.91-2.41,2.34,1.37Zm-4.37,3.61L386,341.78l2.91-2.41,2.34,1.37Zm-4.37,3.61-2.33-1.36,2.91-2.41,2.34,1.36Zm-4.37,3.61L377.24,349l2.91-2.4,2.33,1.36ZM375.2,354l-2.34-1.37,2.92-2.4,2.33,1.36Zm-4.84.7,1.05-.86,2.33,1.36-2,1.64Zm41.1-50L409.35,303l3.22-2,1,.82c0,.51,0,1,0,1.53Zm-4.84,2.95-2.11-1.69,3.22-2,2.12,1.68Zm-4.84,2.95-2.11-1.69,3.22-2,2.12,1.68Zm-4.84,2.94-2.12-1.68,3.23-2,2.12,1.68Zm-4.84,2.95L390,314.77l3.23-2,2.12,1.69Zm-4.84,2.95-2.12-1.68,3.23-2,2.12,1.68Zm-4.84,3-2.12-1.68,3.23-2,2.12,1.68Zm-4.84,2.95-2.12-1.69,3.23-2,2.12,1.68Zm-4.84,2.95-2.12-1.69,3.23-2,2.12,1.68Zm-4.84,2.94-2.12-1.68,3.23-2,2.12,1.68Zm-6.55,1.58.18-.45h0v0h0l.08-.2h0l2.52-1.54,2.12,1.69-3.23,2-1.72-1.36Zm-1.2,3.15.15-.42v-.11l.13-.35v-.19l0-.05v-.13l0,0v0l0-.05v0l.76.61Zm10.16,20.39-22.18-39.08q-.79,4.13-1.37,8.33l16.65,29.69.29.5,5.07.47Zm67.06,112.76-43.62-76.54-6.5-6.5-2.68-4.7c-1.6.11-4.26.15-6.47.13l51,89.48A41.51,41.51,0,0,1,437.37,469.07ZM404,408c18.81,8.89,90.55,41.76,195.44,5.4L590.36,431c-77.23,25.09-133,12.62-174.68-2.35Zm12.86,22.71c28.65,11.64,89.53,29,172.32,2.77L580.74,450c-68.27,18.73-121.45,9.22-153.6-1.24Zm11.21,19.81c30.43,10.42,83.08,20.87,151.67,1.41L571.54,468c-56.94,13.81-102.74,8.05-133.75-.44ZM537,476.19a289.22,289.22,0,0,0,33.7-6.51l-6.35,12.43-.34.25c-7.86,5.84-14.65,1.31-20.18-2.37A30.3,30.3,0,0,0,537,476.19Zm-84.32-3a245.23,245.23,0,0,0,73.62,4.17,44.68,44.68,0,0,0-6.14,4.14c-1.38,1.05-2.79,2.11-4.2,3a20.45,20.45,0,0,1-8.82,3.1,9.37,9.37,0,0,1-6.41-1.46,41.81,41.81,0,0,0-9.09-5.6c-3.94-1.6-8.22-2-12.27.6-1,.66-1.91,1.31-2.78,2C465.05,491.58,461.19,479.14,452.68,473.2Zm104-101-1.52-14.74,13-.45,1.56,15C563.19,372.24,558.39,372.23,556.68,372.22Zm16.77-.29-1.56-15,13.52-.44,1.45,14.63C582.28,371.41,577.4,371.79,573.45,371.93Zm16.8-1.07-1.52-14.68,12.95-.45,1.43,13.8C598.84,370.09,594.49,370.52,590.25,370.86Zm28.42-1h0l-.2,15.27-1.28.05q-14.85,2.31-29.54,3.44-15.17,1.2-29.39,1.17l-1.49-15.44c5.57,0,39.49,0,61.87-5.42v.15h0v.77ZM456.62,493l.32.34m-.14-8-.19-.21m22.61,3.49c-5.52,4.06-10.42,7.66-20.11-.41.45.64.91,1.31,1.36,2,6.24,6.4,12.15,5.24,18.82.61,7.53-5.22,14,.83,18.77,4.66,5.88,6.43,15.47,2.87,18.94-.93s6.85-7.87,9.72-9.38c3.13-1.65,6.19-1.95,10.17-1.05,2.62.59,5,2.48,7.63,4.56,4.69,3.73,10.33,8.21,17.3,2.67l.35-.28,2-1.59c-9.54,5.44-16.73-.22-23-4.43-2.38-1.59-4.54-3.25-6.16-3.6-9.54-2.16-16,11.64-27.77,12.61a14.25,14.25,0,0,1-9.87-2.46,37.33,37.33,0,0,0-8-4.95c-2.56-1-5.25-1.37-7.6.15C480.94,487.36,480.07,488,479.22,488.62Zm-19.17-6.37c8.36,8,12,5.34,16.18,2.28.87-.64,1.76-1.3,2.78-2,4.06-2.62,8.33-2.2,12.27-.6a41.81,41.81,0,0,1,9.09,5.6,9.31,9.31,0,0,0,6.41,1.46,20.3,20.3,0,0,0,8.82-3.09c1.41-.89,2.82-1.95,4.21-3,4.71-3.56,9.25-7,15.73-5.62,2.6.55,5.13,2.23,7.93,4.1,5.53,3.69,12.32,8.21,20.19,2.37l.37-.27c12.26-9.11,15.7-11.67,29.11-6-1.6,1.23-3.22,2.44-4.86,3.61-6.8-2.27-10.32-1.2-16,2.73,4-2.16,7.55-2.43,12.95-.58-2.18,1.47-4.39,2.89-6.65,4.25-3.7.26-6.78,2.48-11.78,6.44q-6,2.94-12.28,5.38c-5.08-.26-9.33-3.63-13.11-6.64-2.15-1.7-4.11-3.26-5.58-3.59a9.16,9.16,0,0,0-6.7.59,28.73,28.73,0,0,0-8.33,6.36c-3.4,3.73-7.36,6.09-11.79,6.59-14.11,1.58-19.47-13.48-28.28-8-8.22,5.7-17.18,6.91-21.29,1.54.46.6.93,1.22,1.4,1.87,7.65,7.87,11,5.26,14.76,2.28.8-.63,1.62-1.28,2.61-2,7.53-5.22,15.49,1.17,20.26,5a15.23,15.23,0,0,0,10.34,2.07,14.37,14.37,0,0,0,9.18-4.39c3.53-3.88,6.27-6.49,9.14-8,3.13-1.64,6.19-1.95,10.17-1.05,2.62.59,5,2.49,7.62,4.57a34.85,34.85,0,0,0,6,4.07q-3.11,1.11-6.27,2.09c-1-.72-1.92-1.47-2.84-2.19a17.86,17.86,0,0,0-6.14-3.28c-7.17-1.62-10.14,3.82-15.21,8.59a11.26,11.26,0,0,1-4.23,2.82c-4.85.55-9.78.86-14.76.95l-1.65-.05a14.21,14.21,0,0,1-4.48-2.25l-.15-.12c-3.69-3-9.69-7.7-14.06-4.67-.74.51-1.56,1.15-2.36,1.78-1.08.86-3.35,2.55-4.58,3.37q-7.08-1.12-13.94-2.9c-4.9-3.56-12.41-19-24.46-13.75-.58.25-2.32,2.39-3.47,3.6q-2.64-1.27-5.22-2.62c.81-1.09,2.17-3,2.44-3.24.66-.46,1.36-.91,2.09-1.33,6.1-3.45,14.68-4.58,23.85,4.27-8.24-10.92-18.34-9.73-25.11-4.8a48.31,48.31,0,0,0-4,4.72q-2.67-1.42-5.27-2.94c9.2-11,19.16-16.17,31.94-6.87-9.08-10.36-18.86-6.8-25.79-.94-.78.59-1.52,1.21-2.21,1.83-1.11,1-3.85,4.51-4.74,5.51q-2.22-1.31-4.39-2.7c1-1.14,3.78-4.74,4.85-5.76a41.25,41.25,0,0,1,3.41-2.91C433.35,469.81,447.2,465.53,460.05,482.25ZM461.37,380l-2.7.07,1.21-5.27,2.71-.06Zm-1.82,5.37-2.7.06,1.21-3.58,2.71-.06Zm-1.82,5.36-2.7.07,1.21-3.58,2.71-.07Zm-1.82,5.37-2.7.07,1.21-3.58,2.71-.07Zm-1.82,5.37-2.71.06,1.22-3.57,2.7-.07Zm-3.75,3.14.44-1.29,2.7-.06-.82,2.43Zm32.53-26-2.65.56.54-3.74,2.18-.46.45,0Zm-.81,5.61-2.65.56L480,381l2.65-.56Zm-.82,5.61-2.64.56.54-3.74,2.65-.56Zm-.81,5.61-2.65.56.55-3.74,2.64-.56Zm-.81,5.6-2.65.56.54-3.74,2.65-.55Zm-.82,5.61-2.64.56.54-3.74,2.65-.55Zm-3.11,3.78.2-1.35,2.64-.56-.36,2.54Zm-2.45-33.6-2.69.33.53-2.27,2.62,0ZM472,382.29l-2.69.33.86-3.68,2.69-.33Zm-1.29,5.52-2.68.33.85-3.68,2.69-.33Zm-1.29,5.51-2.68.34.86-3.68,2.68-.34Zm-1.28,5.52-2.69.34.86-3.68,2.68-.34Zm-1.29,5.52-2.68.34L465,401l2.69-.33Zm-3.42,3.5.31-1.32,2.68-.34-.58,2.5Zm55.09-28.94-3.16-.49.7,0Zm.7,5.66-2.43.95-.39-3.8,2.43-1Zm.59,5.69-2.43,1-.39-3.8,2.43-.95Zm.59,5.7-2.43.95-.39-3.8,2.43-.95Zm.59,5.69-2.43.95-.39-3.8,2.43-.94Zm.59,5.7-2.43.95-.39-3.8,2.43-.95Zm-2.09,4.21-.14-1.36,2.43-.95.26,2.58Zm.1-129.2-.68.51c0-.74,0-1.47.08-2.2Zm2,5.48-2.08,1.54-.59-1.64c0-.84,0-1.69,0-2.54l1.37-1Zm2,5.48-2.08,1.54-1.31-3.66,2.08-1.53Zm2,5.48-2.08,1.54L522,296.69l2.08-1.53Zm2,5.48-2.08,1.54-1.3-3.65,2.07-1.54Zm2,5.49-2.08,1.53-1.3-3.65,2.07-1.54Zm2,5.48-2.07,1.53-1.31-3.65L530,311.6Zm2,5.48-2.08,1.53-1.31-3.65,2.08-1.54Zm2,5.48-2.08,1.53-1.31-3.65,2.08-1.53Zm2,5.48-2.08,1.54-1.31-3.66,2.08-1.53Zm2,5.48-2.08,1.54-1.31-3.66,2.08-1.53Zm2,5.48L539,344.2l-1.3-3.66,2.07-1.53Zm2,5.48L541,349.68,539.7,346l2.07-1.53Zm2,5.48L543,355.16l-1.31-3.66,2.08-1.53Zm2,5.49-2.08,1.53L543.62,357l2.08-1.54Zm2,5.48-2.08,1.53-1.31-3.65,2.08-1.54Zm2,5.48-2.08,1.53L547.54,368l2.08-1.53Zm2,5.48-2.08,1.53-1.31-3.65,2.08-1.54Zm2,5.48-1.93,1.43-.22-.27-.11-.13-1.12-3.15,2.07-1.53Zm-.71,2.84,1.37-1,1.29,3.63-.06-.06A26.13,26.13,0,0,1,554.14,383.87Zm-20.06.48-2.28,1.24-.83-3.76,0,0,2.66.74Zm1.25,5.64-2.28,1.24-.83-3.76,2.28-1.24Zm1.25,5.65-2.28,1.24-.83-3.77,2.28-1.23Zm1.25,5.64-2.28,1.24-.83-3.77,2.28-1.23Zm1.25,5.64-2.28,1.24L536,404.4l2.27-1.24Zm-1.57,4.47-.3-1.35,2.28-1.24.57,2.56ZM523.23,279c-.73.46-1.41.92-2.1,1.37-.35-1.25-.68-2.52-1-3.79.69-.47,1.41-.9,2.11-1.33C522.56,276.56,522.88,277.79,523.23,279Zm1.64,5.59c-.7.47-1.36.95-2,1.43-.45-1.25-.83-2.5-1.2-3.76.69-.46,1.38-.91,2.09-1.4C524.1,282.14,524.48,283.39,524.87,284.62Zm2,5.51c-.64.53-1.3,1-1.93,1.54-.53-1.24-1-2.5-1.47-3.75.66-.48,1.33-1,2-1.44C526,287.7,526.42,288.91,526.89,290.13Zm2.39,5.56c-.61.5-1.22,1-1.82,1.57-.59-1.27-1.17-2.51-1.71-3.76l1.92-1.52C528.19,293.22,528.71,294.46,529.28,295.69Zm2.73,5.72c-.6.5-1.16,1-1.73,1.52-.66-1.29-1.29-2.55-1.9-3.79.59-.54,1.17-1.07,1.79-1.57C530.76,298.84,531.37,300.13,532,301.41Zm2.9,5.82c-.54.53-1.08,1-1.62,1.54-.7-1.31-1.37-2.6-2-3.92l1.69-1.51C533.6,304.63,534.26,305.93,534.91,307.23Zm3.12,5.85c-.55.53-1.06,1.07-1.58,1.59-.71-1.31-1.43-2.63-2.12-3.95.52-.52,1.06-1,1.62-1.5C536.63,310.5,537.31,311.79,538,313.08Zm3.22,5.79c-.52.55-1,1.1-1.54,1.66-.74-1.28-1.46-2.6-2.18-3.92.51-.51,1-1,1.55-1.53C539.8,316.35,540.51,317.62,541.25,318.87Zm3.33,5.63c-.5.56-1,1.13-1.51,1.68-.76-1.22-1.5-2.48-2.23-3.75.5-.54,1-1.11,1.51-1.64C543.08,322,543.82,323.27,544.58,324.5Zm3.44,5.26c-.53.65-1,1.24-1.53,1.83-.76-1.16-1.52-2.35-2.28-3.55.48-.59,1-1.16,1.51-1.75C546.46,327.47,547.22,328.63,548,329.76Zm3.47,4.85c-.52.68-1,1.33-1.54,2-.78-1.07-1.54-2.15-2.31-3.26.5-.63,1-1.27,1.51-1.92Q550.3,333.08,551.49,334.61Zm3.56,4.26c-.52.73-1,1.49-1.58,2.21-.78-.92-1.57-1.9-2.35-2.92.52-.68,1-1.34,1.53-2.06C553.45,337.07,554.25,338,555.05,338.87Zm3.62,3.7c-.55.76-1.09,1.55-1.64,2.33-.81-.81-1.6-1.63-2.38-2.5.54-.73,1.07-1.49,1.6-2.25C557.06,341,557.86,341.8,558.67,342.57Zm3.6,3.42c-.56.77-1.12,1.53-1.71,2.27-.77-.71-1.57-1.45-2.36-2.2.57-.78,1.14-1.55,1.69-2.34C560.68,344.48,561.46,345.24,562.27,346Zm3.5,3.58c-.58.73-1.16,1.42-1.76,2.12l-2.28-2.31,1.73-2.2C564.22,348,565,348.77,565.77,349.57Zm3.31,3.94q-.5.48-1,1l-1.43.17c-.52-.58-1-1.17-1.56-1.77.58-.68,1.16-1.34,1.76-2C567.63,351.7,568.34,352.61,569.08,353.51ZM465,204.23c2.66-.65,4.59-1.14,7.31-1.65l26.28,2.74.08-5.06a31,31,0,0,1,6.39.36l.05,5.4,51.62,5.23,2.83,1.5-.58,3.43-53.81-5.13,0,2.92c-2.2-.21-4.4-.46-6.57-.76v-2.86l-34.82-3.82ZM347.89,355.29,356,356l-.15,11.58-7.93-.7V355.29Zm262.68,43.57.14,0,0,0-3-1.06,1.69-3.81-8.56,16.59c-42.2,15.09-77.73,18.36-108.27,17.19-45.61-3.08-72.89-14.3-90.64-23.11l-13.32-24q-10.74.39-21.28,0l-19.42-1.22V367.81c5.47.51,13.54,1,18.82,1.21q4.68.18,9.6.19l2,0-.06-.14-8.25-.52.16-11.59,9.32.24-.16,12c1.78,0,3.57-.05,5.39-.1l-2.5-.28.15-11.58,8.6.41-.38,16.24,2.21.85-1.7,1.93-.76-.84-.6,4.6c13,8.5,54,32,103.29,33.86a250.78,250.78,0,0,0,68.51-7.22l-.27-.74c2.76-2,1.11-1.11-1.19-.51l-.54-4.33-.23-.64.14-.11-.26-2.11-.53.39-1.31-3.66,1.31-1-.26-2.11-1.7,1.26-.7-2,1.73-2.49,1,2.89q11.41,0,23.53-.82c8-.59,16.17-1.47,24.38-2.69v0l3.76-.58c-14.5,7.85-33,13.32-47,17.07l.54,1.53a312.87,312.87,0,0,0,40.39-13.17l7.15-4-1.5,3.46-.3.58,4.31,1.51,1.67-2.05,2.42-5.35,10.54,2.68L625,398.69l9.36,3.07-2,4.43L623,403.14l-.16.38-32.25,71.17-.69-.26-.13.26c-8.64-3.22-12.88-2.35-19.5,2C583.69,450.86,597.11,424.81,610.57,398.86Zm-92.51-18.6-3.16-.5.7,0Zm29.85,2.15L546.37,384l-.66-.26.4-.4c-.53-.22-1.07-.43-1.61-.63l1.58-1.59.94,1.31,1.3-1.3c.73,1,1.47,1.93,2.24,2.87.33.4.66.79,1,1.19l-.77.77-.22-.1-.43-.53C549.38,384.35,548.63,383.39,547.91,382.41Zm-36.43-68.32-3.65,3.65,3.65,3.65,3.66-3.65Zm-5.23,5.23L502.59,323l3.66,3.65L509.9,323ZM501,324.56l-3.65,3.65,3.65,3.66,3.65-3.66Zm-5.24,5.24-3.65,3.65,3.65,3.66,3.66-3.66Zm-46.13-6.26c0-.3,0-.59,0-.89,0-.7-.05-1.43-.05-2.17l-.92.91L445,317.74l3.65-3.65,1.35,1.34c0-.19.09-.38.13-.57s.15-.55.24-.82l.37-1-.5-.5,3.65-3.65,3.66,3.65L454,316.08c.51.54,1,1.08,1.57,1.59l3.59-3.58.23.22a24.14,24.14,0,0,1-.23-3.39l-3.65-3.66,3.65-3.65,2.3,2.3c1.71.3,3.44.53,5.18.69l3-3,3.32,3.31c1.33,0,2.67,0,4-.15l3.16-3.16,3.65,3.65-3.65,3.66-.45-.45c-.47.62-.91,1.23-1.32,1.84l.19.19-.9.9c-.49.77-.93,1.55-1.34,2.33l-.35.68c-.53,1.11-1.06,2.24-1.55,3.4l.48-.49,2.3,2.3,1.8-1.36-2.51-2.52,3.65-3.65,3,3,1.81-1.36-3.25-3.25,3.66-3.65L489,312.5,485.49,316l.11.88q.11.86.24,1.68c.09.55.18,1.09.28,1.63L489,323l-1.88,1.88c.19.86.38,1.72.59,2.58l2.87-2.88,3.66,3.65-3.66,3.66-2.36-2.37q.78,3.12,1.71,6.19l.65-.66,3.66,3.66-2.52,2.52c.27.77.56,1.54.87,2.3l3.23-3.24,3.65,3.66-3.65,3.65-2.65-2.65c.32.75.66,1.48,1,2.2l1.33,2.7-1.58-1,.31.3-.54.54.63,1.2-1.11-.72-2.64,2.64-3.65-3.66,1.87-1.86L486.84,346l-1.54,1.54-3.66-3.65.8-.81-1.9-1.26-.48.48-2.4-2.4-.26-.17c4.72,5.54,9.5,11,14.65,16.19l2,2-1.92-.38c-5.88-6-12.18-12.35-17.59-18.76l-.78-.92a1.26,1.26,0,0,1-.29-.74,1.25,1.25,0,0,1,.21-.77,1.28,1.28,0,0,1,.79-.53,1.26,1.26,0,0,1,.94.19l0,0c5.86,4,11.8,8,17.8,11.73a79.3,79.3,0,0,1-3.7-10.06,152.82,152.82,0,0,1-4-16.34c-.15-.81-.3-1.63-.43-2.44-.06-.42-.13-.85-.19-1.27l-11.57,8.79a1.45,1.45,0,0,1-.54.23,1.25,1.25,0,0,1-1.31-.65,1.26,1.26,0,0,1-.1-.95,67.8,67.8,0,0,1,4-9.75,72.5,72.5,0,0,1,4.37-7.79,47.27,47.27,0,0,1-8.32.43,73,73,0,0,1-10.83-1.11,19.25,19.25,0,0,0-.06,3.13,27.76,27.76,0,0,0,.58,4.16,43.08,43.08,0,0,0,1.4,5c.62,1.83,1.34,3.62,2.12,5.37a1.31,1.31,0,0,1,.12.68,1.26,1.26,0,0,1-.27.65,1.23,1.23,0,0,1-1.75.2h0c-1.67-1.33-3.32-2.73-4.91-4.15a54.68,54.68,0,0,1-6.88-7c0,.11-.07.24-.1.36a29,29,0,0,0-.5,7.67,91.43,91.43,0,0,0,1.26,11.43c.46,2.77,1,5.55,1.67,8.27a31.39,31.39,0,0,0,1.23,4.13,42.48,42.48,0,0,0,3.24-2.92c1.2-1.19,2.35-2.43,3.5-3.67.71-.76,1.41-1.52,2.13-2.27s1.47-1.51,2.23-2.23a1.23,1.23,0,0,1,.52-.3,1.3,1.3,0,0,1,.59,0,1.28,1.28,0,0,1,.79.54,1.25,1.25,0,0,1,.18.92h0c-.42,2.05-.74,4.16-1,6.21a132.89,132.89,0,0,0-1.24,13.52A65.1,65.1,0,0,1,478,356a104.93,104.93,0,0,1,14.12,1.64l2,2-3.65,3.66-3.66-3.66,2.08-2.08-2.75-.42-.91.92-1.21-1.21c-1.2-.15-2.39-.29-3.57-.4l3.19,3.19-3.65,3.66-3.65-3.66,3.27-3.27-1.82-.12-1.25,0-1.79,1.79-1.66-1.67q-1.14.06-2.25.15l-.72.06,3.05,3-3.66,3.66-3.65-3.66,2.93-2.93-3.49.32-1,1-3.66-3.66,3.53-3.52c0-.43,0-.87.07-1.31,0-.7.1-1.39.16-2.09l-.1.1-3.66-3.65,3.66-3.65.81.81c.18-1.3.39-2.59.6-3.86q-1.47,1.44-2.94,2.91c-1.42,1.42-2.81,2.87-4.25,4.3s-2.88,2.8-4.39,4.12l-.27-1,0,0-3.65-3.65,2.18-2.18c-.16-.64-.32-1.28-.47-1.92l-.15-.63-3.14,3.15L445,338.69l3.66-3.65,2.83,2.83c-.31-1.35-.6-2.7-.88-4.05l-.37-.36.24-.25c-.13-.64-.26-1.29-.38-1.94l-.09-.75-1.35,1.35L445,328.22l3.66-3.66,1,1C449.62,324.88,449.62,324.21,449.64,323.54Zm14.71,37.68-3.66,3.66,3.66,3.65,3.65-3.65Zm17.29,3.66,3.66,3.65,3.65-3.65-3.65-3.66Zm49.21,0-3.65-3.66-3.66,3.66,3.66,3.65Zm1.58,1.58-3.65,3.66,3.65,3.65,3.66-3.65ZM522,373.77l3.65-3.65L522,366.46l-3.65,3.66Zm15.71-2.07L534,375.35l3.65,3.65,3.65-3.65Zm-45.55-6.82,3.65,3.65,3.65-3.65-3.65-3.66Zm17.78-20.95-3.65-3.66-3.66,3.66,3.66,3.65Zm1.58-1.59,3.66-3.65L511.48,335l-3.65,3.65Zm1.59,1.59,3.65,3.65,3.65-3.65-3.65-3.66Zm-1.59,1.58-3.65,3.66,3.65,3.65,3.66-3.65Zm-12.05,8.89-3.66-3.65-3.65,3.65,3.65,3.66Zm1.58-1.58,3.65-3.66L501,345.51l-3.65,3.65Zm1.58,1.58,3.66,3.66,3.65-3.66-3.65-3.65ZM501,356l-3.65,3.65,3.65,3.65,3.65-3.65Zm19.37-22.54-3.66-3.65-3.65,3.65,3.65,3.66Zm0,20.95-3.66-3.65-3.65,3.65,3.65,3.66Zm1.58-1.58,3.65-3.66L522,345.51l-3.65,3.65Zm1.58,1.58,3.66,3.66,3.65-3.66-3.65-3.65ZM522,356l-3.65,3.65,3.65,3.65,3.65-3.65Zm-12.06,8.89-3.65-3.66-3.66,3.66,3.66,3.65Zm1.58-1.59,3.66-3.65L511.48,356l-3.65,3.65Zm1.59,1.59,3.65,3.65,3.65-3.65-3.65-3.66Zm-1.59,1.58-3.65,3.66,3.65,3.65,3.66-3.65Zm-8.89-33,3.66,3.66,3.65-3.66-3.65-3.65ZM501,335l-3.65,3.65,3.65,3.65,3.65-3.65Zm10.47-10.48-3.65,3.65,3.65,3.66,3.66-3.66Zm-36.66,36.66-3.65,3.66,3.65,3.65,3.66-3.65Zm-56-59.19,3.66,3.65L426.1,302l-3.65-3.66Zm5.24,5.23,3.66,3.66,3.65-3.66-3.65-3.65Zm5.24,5.24,3.65,3.66,3.66-3.66-3.66-3.65Zm5.24,5.24,3.65,3.65,3.65-3.65-3.65-3.65Zm5.23,5.24,3.66,3.65,3.65-3.65-3.65-3.66Zm56,3.65,3.66-3.65-3.66-3.65L492.12,323Zm8.89-8.89L501,314.09l-3.65,3.65,3.65,3.65Zm1.59-1.58,3.65-3.66-3.65-3.65-3.66,3.65Zm8.89-8.9-3.66-3.65-3.65,3.65,3.65,3.66ZM468,302l-3.65-3.66L460.69,302l3.66,3.65Zm1.58-1.59,3.66-3.65-3.66-3.65-3.65,3.65Zm1.59,1.59,3.65,3.65,3.66-3.65-3.66-3.66Zm14.13-3.66L481.64,302l3.66,3.65L489,302Zm-57.62,2.07,3.66-3.65-3.66-3.65L424,296.79Zm1.59,1.59,3.65,3.65,3.66-3.65-3.66-3.66Zm8.89-8.89-3.65,3.65,3.65,3.65,3.65-3.65Zm48.72,24.6,3.66,3.65,3.65-3.65-3.65-3.65Zm7.31-10.48-3.66-3.65-3.65,3.65,3.65,3.66Zm1.58-1.58,3.66-3.65-3.66-3.66L492.12,302Zm1.59,1.58,3.65,3.66,3.65-3.66L501,303.61Zm-1.59,1.59-3.65,3.65,3.65,3.66,3.66-3.66Zm10.48-10.48L502.59,302l3.66,3.65L509.9,302Zm-68.09,12.55,3.65-3.66-3.65-3.65-3.65,3.65Zm1.58,1.58,3.66,3.66,3.65-3.66-3.65-3.65Zm19.37-19.36-3.65,3.65,3.65,3.65,3.65-3.65ZM447.05,302l-3.65-3.66L439.74,302l3.66,3.65Zm1.59-1.59,3.65-3.65-3.65-3.65L445,296.79Zm1.58,1.59,3.65,3.65,3.66-3.65-3.66-3.66Zm-1.58,1.58L445,307.26l3.66,3.66,3.65-3.66Zm8.89,61.27-3.66-3.66-3.65,3.66,3.65,3.65Zm1.58-1.59,3.65-3.65L459.11,356l-3.65,3.65Zm-6.82,6.83-3.66-3.66L445,370.12l3.65,3.65Zm-21-31.43L427.69,335,424,338.69l3.66,3.65Zm1.58-1.58,3.66-3.66-3.66-3.65-3.65,3.65Zm1.59,1.58,3.65,3.65,3.65-3.65L438.16,335Zm-1.59,1.58-3.65,3.66,3.65,3.65,3.66-3.65Zm8.89-12-3.65-3.66-3.65,3.66,3.65,3.65Zm1.59,1.58-3.66,3.65,3.66,3.66,3.65-3.66Zm-3.66,14.13,3.66,3.65,3.65-3.65-3.65-3.66Zm-1.58,1.58-3.65,3.66,3.65,3.65,3.65-3.65Zm-5.24,5.24-3.65,3.65,3.65,3.66,3.66-3.66Zm-10.47-41.9-3.66,3.65,3.66,3.66,3.65-3.66Zm24.6,45.55-3.65-3.65-3.66,3.65,3.66,3.66Zm1.59-1.58,3.65-3.66-3.65-3.65L445,349.16Zm1.58,1.58,3.65,3.66,3.66-3.66-3.66-3.65ZM448.64,356,445,359.64l3.66,3.65,3.65-3.65Zm-14.13,14.13,3.65,3.65,3.65-3.65-3.65-3.66Zm24.6-24.61-3.65,3.66,3.65,3.65,3.65-3.65Zm-17.3,14.13L438.16,356l-3.65,3.65,3.65,3.65Zm1.59,1.58-3.66,3.66,3.66,3.65,3.65-3.65Zm-20.95-34.59L426.1,323l-3.65-3.66L418.79,323Zm1.58,1.59,3.66,3.65,3.65-3.65-3.65-3.66Zm7.31-10.48-3.65-3.65L424,317.74l3.66,3.65Zm1.58,1.58L429.27,323l3.65,3.65,3.66-3.65Zm5.91,59.17v-.06l0,0Zm4.11,9-.83,4.66-1.63-3.68.83-4.66Zm2.45,5.51-.83,4.66L442.93,394l.83-4.66Zm2.44,5.52-.83,4.66-1.63-3.68.83-4.66Zm2.22,6.78-2.17-.62.76-4.33,1.63,3.68ZM528,268c-.64-1.25-1.27-2.51-1.89-3.76l-1.89.94c.63,1.26,1.26,2.52,1.9,3.77Zm2.89,5.61-1.93-3.74-1.88,1c.64,1.25,1.29,2.51,1.94,3.75Zm3,5.57-2-3.71-1.86,1c.66,1.25,1.32,2.49,2,3.73Zm3,5.53c-.69-1.22-1.36-2.45-2-3.68L533,282l2,3.7Zm3.11,5.49-2.09-3.65-1.83,1c.69,1.23,1.39,2.45,2.09,3.67Zm3.19,5.43c-.71-1.2-1.43-2.4-2.14-3.61L539.21,293c.72,1.21,1.43,2.43,2.16,3.64Zm3.29,5.38c-.74-1.19-1.47-2.38-2.2-3.58l-1.8,1.1c.73,1.2,1.47,2.4,2.21,3.6Zm3.39,5.32c-.76-1.18-1.52-2.35-2.27-3.54l-1.78,1.13c.75,1.19,1.52,2.37,2.29,3.55Zm3.51,5.23c-.79-1.16-1.58-2.32-2.35-3.48l-1.76,1.16q1.17,1.77,2.37,3.51Zm3.63,5.14c-.82-1.13-1.64-2.27-2.44-3.42l-1.73,1.21q1.21,1.74,2.46,3.45Zm3.77,5c-.86-1.1-1.7-2.22-2.53-3.34l-1.69,1.26c.84,1.13,1.69,2.26,2.56,3.37Zm3.94,4.9c-.9-1.06-1.78-2.15-2.65-3.25l-1.65,1.31c.88,1.11,1.77,2.21,2.68,3.29Zm4.12,4.73c-.94-1-1.86-2.07-2.77-3.13l-1.6,1.37q1.38,1.62,2.82,3.18Zm4.35,4.51c-1-1-2-2-2.92-3l-1.54,1.44c1,1,2,2,3,3Zm4.61,4.23c-1.06-.9-2.09-1.83-3.11-2.78l-1.44,1.53q1.54,1.47,3.17,2.85Zm4.91,3.83c-1.13-.81-2.23-1.64-3.31-2.5L578.05,343c1.11.9,2.25,1.75,3.42,2.58Zm5.26,3.25c-1.21-.65-2.4-1.35-3.55-2.1l-1.15,1.77c1.21.78,2.43,1.51,3.7,2.19Zm5.64,2.42a32,32,0,0,1-3.8-1.51l-.9,1.91a34.82,34.82,0,0,0,4,1.6Zm2.95.79-1-.22-.52,2,1.1.25Zm-71.39-88c-.62-1.26-1.24-2.52-1.85-3.78l-1.9.91,1.86,3.8Zm-9.61,34a116,116,0,0,1,0-17.19,101,101,0,0,1,3.82-20.46c4.51-15.62,11.93-28.62,24.9-38.69l.48.13c1-.78,2.12-1.56,3.23-2.32.34-.24-62.61.43-78.14-7.88-29.92,14.53-48.34,46.55-52.53,78.72h.19c-.12.78-.23,1.55-.33,2.33a474.52,474.52,0,0,1,48.23.47C481.73,292.33,498.39,294,515.54,296.28ZM544,378.06c-.42-.64-.83-1.28-1.24-1.92l0,0,0,0,0,0,0,0,0,0v0h0l0,0,0,0,0,0,0,0,0,0,0,0,0,0,0,0,0,0,0,0h0l0,0,0,0,0,0,0,0,0,0,0,0,0,0,0,0,0,0v0h0l0-.05h0l0,0,0,0,0,0,0,0,0,0,0,0,0,0,0,0h0l0,0,0,0,0,0,0,0,0,0,0,0,0,0v0l0,0,0,0h0v0l0,0,0,0,0,0,0,0,0,0,0,0,0,0,0,0,0,0h0v0l0,0v0l0,0,0,0,0,0,0,0,0,0-.54-.88,0-.08,0-.06v0l0-.08-.05-.08,0-.08,0-.05,0,0,0-.07,0-.08,0-.08,0-.06,0,0,0-.08,0-.08,0-.08,0-.05,0,0-.05-.08,0-.08,0-.08,0-.05,0,0,0-.08-.05-.08,0-.08,0,0,0,0,0-.08,0-.08-.05-.09,0,0,0-.05,0-.08-.09-.16,0,0,0-.06-.05-.08,0-.08,0-.08v0l0-.06,0-.08,0-.08,0-.08v0l0-.06-.05-.08,0-.08,0-.08h0l0-.08,0-.08,0-.08,0-.08h0l0-.08-.1-.16,0-.08h0l-.05-.08,0-.08-.05-.08,0-.08h0l0-.08-.05-.08,0-.08,0-.07h0l0-.08,0-.08,0-.08,0-.07v0l0-.08,0-.08,0-.08-.37.38L534,364.89l1.48-1.48-.31-.61-.1-.19-.49-1-.17-.33h0l-2,2-3.65-3.65,3.27-3.28-.29-.63v0l0,0,0,0v0l0,0v0l0,0,0,0v0l0,0,0,0v0l0,0v0l0,0v0l0,0,0,0v0l0,0,0,0h0v0l0,0v0l0,0v0l0,0,0-.07,0,0v0l0,0,0,0v0l0,0v0l0,0v0l0,0,0,0v0l0,0v0l0,0v0l0,0h0l0,0v0l0,0v0l0,0,0,0v0l0,0v0l0,0v0l0,0,0,0v0l0,0v0l0,0v0c-.27-.58-.53-1.17-.78-1.76l0,0,0,0,0,0,0-.08,0,0v0l0,0,0,0v0l0,0,0,0,0,0v0l0,0,0,0,0,0v0l0,0,0,0v0l0,0,0,0,0,0v-.08l0,0,0,0v0l0,0,0,0v0l0,0,0,0v0l0,0,0,0,0,0v0l0,0,0,0v0l0,0,0,0,0,0v0l0,0h0l0,0v0l0,0,0,0v0l0,0,0,0,0,0v0l0,0,0,0v0l0,0,0,0v0l0,0,0,0h0l-.14-.14.06-.06,0,0v0l0,0v0l0,0v0l0,0v0l0,0v0l0,0v0l0,0v0l0,0v0l0,0v0l0,0v0l0,0v0l0,0v0h0l0,0v0l0,0v0l0,0v0l0,0v0l0,0v0l0,0-.1-.25v0l0,0v0l0,0v0l0,0h0v0l0,0v0l0,0v-.07l0,0,0-.11,0,0v0l0,0,0-.07,0,0-.71.72-3.66-3.66,2.32-2.32-.25-.67v0l-.57-1.55,0-.06-3,3.06-3.66-3.66,3.66-3.65,2.4,2.4c-.31-.88-.61-1.76-.9-2.65h0l0-.05,0-.05v-.06l0-.05,0,0,0-.05,0-.06v-.05h0l0-.05,0-.05v-.06l0-.05,0-.05,0-.05,0-.05v0l0-.06,0-.05v-.05l0-.05,0-.06,0-.05v0l-.05-.16,0-.05,0-.05,0,0v-.05l0-.06,0-.05,0-.05V333l0-.06,0-.05v-.05l0-.05,0-.06,0-.05v0l0,0h0l0-.05v-.06l.1-.06,0-.06,0-.05v-.05l0,0,0-.05v-.06l0-.05,0-.05v0l0-.06,0-.05v-.05l0-.06v-.1l0,0,0-.05v-.06l0-.05-.43.43-3.65-3.65,2.43-2.43-.2-.73v-.47h0v-.9h0v-.38l-3.35,3.34L513.05,323l3.65-3.65,3.14,3.13-.57-2.32v0h0v-.38l0-.05v0l0-.06v0l0-.08v0l0-.06v-.17h0v-.88h0l-.55-.55.35-.35h0v-.9h0v-1.71l-1.39,1.38L513,312.51l3.65-3.66.36.36-.23-1.41v-.26l0-.21v-.55l0,0v-1.15h0v-.11h0L513.06,302l2.73-2.72-.08-.85v-.07l0-.35,0-.32-1.42-.19-2.34,2.39-3.14-3.09-3.78-.45-3.65,3.71-3.68-3.63.82-.83-1.89-.21-.43.38-.42-.47L493,295l1.49,1.47-3.68,3.74-3.69-3.62,1.95-2-2.46-.24-1,.86-.92-1-3.86-.34,2.89,2.89-3.65,3.65-3.66-3.65,3-3-3-.24-1.26,1.28-1.5-1.48q-3.5-.25-7-.47L464.61,295l-2.41-2.36c-1.8-.1-3.61-.18-5.41-.26L454,295.15l-3.05-3-4.28-.11-3.23,3.28L440,291.93h-3.6l-3.52,3.57L429.34,292c-1.15,0-2.29,0-3.43.06l-3.56,3.62-3.46-3.4-1.88.08v.1l-.12.12-.09,1,.42-.42,3.65,3.65-3.65,3.65-.81-.81c-.09,1.65-.13,3.3-.14,4.93l.95-.95,3.65,3.65-3.65,3.66-.85-.85c.07,1.53.17,3.05.3,4.57l.55-.55,3.65,3.65-3.45,3.46c.2,1.42.43,2.83.68,4.24l2.77,2.77L419,330.07c.19.86.38,1.72.59,2.57l2.85-2.84,3.65,3.65-3.65,3.66-2.31-2.31q.8,3,1.72,6.06l.59-.59,3.65,3.66-2.43,2.42.84,2.33,3.17-3.17,3.66,3.66-3.66,3.65-2.58-2.58c.3.78.6,1.56.92,2.33l-.14-.13c.12.3.24.6.35.91l.07-.07c.3.75.61,1.5.93,2.24l-.09.09.27.66.27-.28,3.66,3.65-1.58,1.58.72,1.53-.16.16.29.62,2.31-2.31,3.65,3.66-3.36,3.37c.72,1.41,1.47,2.82,2.23,4.22l-.7-.7q.78,1.46,1.59,2.91l.21-.21c.37.67.76,1.35,1.14,2l-.21.21.13.22.45-.44-.13.69.24-.23,1.25,1.25-.5.21,0,.09c.87-.42,1.75-.86,2.65-1.28l-1.86-1.86,3.66-3.65,3.32,3.32a32.45,32.45,0,0,1,4.13-1.22l-.1.1,1.12-.2,2-2,1.51,1.51c.69,0,1.39-.07,2.08-.09l1,0-3-3,3.66-3.66,3.65,3.66L459.85,373c1.1,0,2.2-.08,3.3-.14l1.19-1.19,1.07,1.06,3-.16-2.49-2.48,3.65-3.66,3.66,3.66-2.37,2.37,3.3-.14.65-.65.61.61,3.08-.08-2.11-2.11,3.66-3.66,3.65,3.66-2.06,2.06h2.25l.88,0,.52-.51.56.56,1.85.1-.14-.14,1.46,0-2.15-2.14,3.65-3.66,3.66,3.66-2.27,2.26,2.13.12-.28.28.85.07,1.15-1.15,1.39,1.39,1.94.19-.4-.41,1.58.17-2.92-2.92,3.65-3.66,3.65,3.66-3.07,3.07,2,.24-.33.32.82.1,2.16-2.15,2.83,2.83.63.09.33-.33,3.56.53,3.12-3.12,3.66,3.65-.58.58,1.46.3.4.08-.35.35,2.7.58-.52-.52c.63.15,1.26.3,1.89.47l-1.84-1.84,3.66-3.65,3.65,3.65L528.19,378c.57.18,1.12.38,1.66.59l0,0,.28.07.26.1.17,0,1.9-1.9,3.2,3.2.16-.17c1.24.31,2.56.68,3.92,1.08l-.46-.45,3.66-3.66Zm1.49,1.29-.38-.18.27.27Zm.93.43-.64-.3.38.56ZM479.86,245.91l4.76-2.52c2.31-1.22,4.64-2.45,7-3.7s4.69-2.54,7-3.82a91.8,91.8,0,0,0-3.9,8.33c-1.11,2.77-2,5.58-2.87,8.38s-1.49,5.68-2,8.52a66.29,66.29,0,0,0-.86,8.67c-1.81-1.84-3.49-3.62-5.12-5.36s-3.11-3.31-4.61-4.91l-2.94-3.21q.4,2.54.95,5.1a64.6,64.6,0,0,0,2.19,7.63,57.87,57.87,0,0,0,3.8,8c-2.28-.42-4.55-.83-6.84-1.17s-4.58-.62-6.9-.75c-2.36,0-4.73.11-7.12.29s-4.82.41-7.23.61c1.5-2.55,3-5.08,4.59-7.58s3.24-4.94,4.92-7.37q1.77-2.51,3.59-5l-4.6,2.92c-2.23,1.42-4.44,2.86-6.7,4.3s-4.48,2.8-6.74,4.12c.86-2.92,1.76-5.83,2.73-8.73s1.95-5.71,3-8.56a73,73,0,0,1,4.42-8.47,98.07,98.07,0,0,1,5.93-8.29,27.43,27.43,0,0,0,1.38,4.9,28.19,28.19,0,0,0,2.32,4.42c.65,1,1.34,1.93,2.08,2.89.09-1.62.29-3.23.53-4.84a43.31,43.31,0,0,1,2-7,39.37,39.37,0,0,1,3.79-6.95c1.67.29,3.37.53,5.09.68s3.49.22,5.25.28,3.54.08,5.32.08l5.34,0a87.57,87.57,0,0,0-8.46,6.77c-2.42,2.21-4.67,4.48-6.87,6.71C482.68,242.84,481.23,244.38,479.86,245.91ZM614.3,295c-2.85,0-6.19,2.81-10.24,2.81-7.51,0-16.69-2.67-24.25-2.84-5-.12-9.5,2.24-13,2.24-1.2,2.61,8.59,7.3,10,10.54,8.95-3.85,19.27,2.64,25.44,1.86,4.9,0,8-1.19,12-1.78Zm2.12-2.92v63.27l1.8-.06.35,11.46c-3.84.95-8.05,1.74-12.4,2.4l-1.39-13.39,9.46-.33v-34c-3.77,0-10.56,3.82-15.27.9-12.53-7.79-25.92-.9-34.23-.9,0-4.07,5.09-8,11.6-13.23-2.26-4.27-10.4-6.55-10.4-11.69,3.89,0,8.66-2.29,14.18-2.17,7.74.17,16.68,2.77,24.24,2.77,3.76,0,7.15-2.9,9.87-2.9v-2.12ZM555,216.39l.69.28-5.4,1.57q-1.89,1.23-3.64,2.55l-.47.35-.12.09-.53.4-.61.49-.06,0-.54.44-.53.43-.13.12-.44.37-.25.21-.34.29-.34.31-.25.22-.06,0-.56.51-.06,0-.58.54-.26.25-.37.35-.21.21-.44.43-.15.15-.41.41-.17.18,0,0-.52.54-.06.06-.44.48-.07.07-.26.29-.28.31-.28.31-.31.35-.15.17-.13.15-.44.52,0,0-.47.57-.25.31-.31.38-.14.18-.37.47-.17.22-.32.42-.2.27-.2.26-.39.54c-.28.39-.56.77-.82,1.16l-.19.27-.24.36-.21.31-.36.55,0,.07-.35.55-.11.17,0,0-.39.62-.06.1-.32.53h0l-.29.47-.18.32-.18.31-.29.51-.1.17-.27.49-.13.24,0,0-.35.65,0,.11-.05.09-.3.57-.21.41-.12.24-.21.42-.23.48-.09.16-.07.15-.31.66v0l-.31.67,0,.12-.08.17-.24.54-.14.31-.18.43-.15.34-.06.14-.23.55-.06.15-.29.68h0l-.28.71,0,.13-.09.23-.2.51-.09.25-.25.67,0,.09-.27.74,0,.08,0,.15-.26.73h0l0,.13c-.17.49-.33,1-.5,1.48l0,.15-.15.44-.14.45,0,.1-.18.57-.06.23-.05.14-.22.75h0l-.21.75-.05.16-.17.6-.08.32v0l-.09.34-.1.34c-.6,2.28-1.15,4.64-1.61,7,.1.48.2,1,.31,1.42l-.65.38c-.14.8-.27,1.61-.39,2.41l1.44-.88c.27,1.28.53,2.55.84,3.77l-2.11,1.33c-.17-.71-.33-1.42-.47-2.14-.34,2.53-.58,5-.72,7.5v6h0v.86h0v4.69l0,.26v.29l0,.29h0l0,.28v.57h0l0,.29v.29l0,.26v0l0,.29v.29l0,.25v0l0,.29v.09l0,.2,0,.23V298l0,.29v.07l0,.22v.29l0,.29v.05l0,.24,0,.19v.1l0,.29v0l0,.25,0,.18v.11l0,.29v0l0,.27v.15l0,.14,0,.29c2.18,19.13,8.41,38.38,16.73,55.7a163.09,163.09,0,0,0,11.33,20.14l0,.05,0,0h0l0,0,0,.05v0l0,0,0,.05,0,0v0l0,.05,0,0h0l0,.05,0,.05h0l0,0,0,.05v0l0,0,0,.05,0,0v0l0,0,0,0h0l0,.05,0,.05h0l0,.05,0,0h0l0,0,0,.05,0,0v0l0,0,0,0h0l0,.05,0,.05h0l0,.05,0,0h0l0,0,0,.05v0l0,0,0,.05,0,0v0l0,.05,0,.05h0l0,.05,0,.05h0l0,0,0,.05v0l0,0,0,.05,0,0h0l0,.05,0,.05h0l0,.05,0,.05h0l0,0,0,.05v0l0,0,0,.05,0,0v0l0,0,0,0h0l0,.05,0,.05h0l0,.05,0,0h0l0,0,0,.05,0,0,0,0,0,.05c.93,1.27,1.9,2.53,2.9,3.75a32.69,32.69,0,0,0,4.09,4.31l1.49,1.25-2.22,3.19.27.44c1.25-5.21-14.55-11.09-25.19-12.79-6-2.53-18.79-4.52-29.33-5.66-12.28-1.46-24-.94-36.33-.24-11.5.66-12.08-.54-24.3,5.48l.68,1.53-.83,4.67L438,383l.32-1.8-.35.16-.63-1.09-.16.89-.26-.58c.06-.27.1-.53.14-.78l-.09-.15c-14.89-25.57-24.84-53.1-22.57-82.91,2.65-34.73,21.82-72.53,54.17-88.21l1-.47.95.5C482.74,214.9,541,216.33,555,216.39Zm53.69,29.43a155.92,155.92,0,1,0,45.66,110.24A155.45,155.45,0,0,0,608.72,245.82ZM498.47,195.91a160.16,160.16,0,1,1-113.24,46.91A159.62,159.62,0,0,1,498.47,195.91Zm-.13-52A212.6,212.6,0,1,1,348,206.18,212,212,0,0,1,498.34,143.91Zm147.32,65.27a208.36,208.36,0,1,0,61,147.33A207.7,207.7,0,0,0,645.66,209.18Z"
              transform="translate(-160.46 -143.91)"/>
    </g>
    <g id="Warstwa_2">
        <text class="cls-2" transform="translate(63.79 499.43)">
            <tspan class="cls-3">R</tspan>
            <tspan x="36.5" y="0">ektor</tspan>
            <tspan class="cls-4" x="175.2" y="0"></tspan>
            <tspan x="184.92" y="0">ANS w Elblągu</tspan>
            <tspan x="-63.79" y="72">dr inż.</tspan>
            <tspan class="cls-3" x="96.81" y="72"></tspan>
            <tspan x="108" y="72">Jarosław Niedojadło</tspan>
            <tspan x="125.45" y="144">pro</tspan>
            <tspan class="cls-5" x="212.64" y="144">f</tspan>
            <tspan x="229.98" y="144">. uczelni</tspan>
        </text>
    </g>
</svg>